<?xml version="1.0" standalone="no"?>
<!DOCTYPE svg PUBLIC "-//W3C//DTD SVG 1.1//EN" "http://www.w3.org/Graphics/SVG/1.1/DTD/svg11.dtd" >
<svg xmlns="http://www.w3.org/2000/svg">
<metadata>
Created by FontPrep 20130207 at Mon May  8 15:50:27 2017
 By bwbuser
Copyright (c) 1987, 1990, 1994, 2001 Adobe Systems Incorporated.  All Rights Reserved.
</metadata>
<defs>
<font id="7e7fd0e02b1db54d8a0d39cbca020c02" horiz-adv-x='1024' >
  <font-face 
    font-family="HoboStd"
    font-weight="500"
    font-stretch="normal"
    units-per-em="2048"
    panose-1="0 0 6 0 0 0 0 0 0 0"
    ascent="1747"
    descent="-301"
    x-height="1311"
    cap-height="1704"
    bbox="-252 -645 2588 2255"
    underline-thickness="102"
    underline-position="-102"
    unicode-range="U+0020-FB02"
  />
<missing-glyph horiz-adv-x="1024" 
d="M102 1239v-1044l349 522zM164 102h696l-348 523zM573 717l349 -522v1044zM512 809l348 522h-696zM0 0v1434h1024v-1434h-1024z" />
    <glyph glyph-name="fi" unicode="fi" horiz-adv-x="1236" 
d="M37 1073q-14 0 -18 13q-3 13 -3 51q0 109 29 141t78 33q81 0 100 78q7 29 19 79t18 72q29 92 109 150t163 57q399 0 400 -70q0 -37 -31 -135t-59 -98q-12 0 -30 10q-57 31 -214 31q-39 0 -68 -45q-28 -45 -28 -77t15 -52q15 -21 49 -21t136 10t318 11q68 0 67 -41
q0 -12 -12 -123t-12 -249q0 -465 72 -801q8 -42 8 -56t-15 -29t-52 -14q-36 2 -42 2h-139q-55 0 -68 10q-33 29 -37 205q-4 177 -4 453t7 352q0 37 -38 57t-85 21h-97q-80 0 -96 -83q-12 -63 -12 -208q-1 -145 37 -455t39 -315q0 -37 -31 -37h-202q-75 0 -79 4
q-41 39 -41 608l7 308l2 73q0 102 -76 105q-20 0 -45 -12t-39 -13z" />
    <glyph glyph-name="fl" unicode="fl" horiz-adv-x="1216" 
d="M1159 25q0 -31 -59 -26q-13 1 -17 1h-209q-70 0 -69 733q0 527 23 665q3 18 3 34q0 40 -35 49q-40 8 -77 6t-49 -2q-168 0 -168 -131q0 -23 14 -38t37 -16l78 11q53 0 66 -30t14 -95q0 -106 -43 -107q-6 -1 -40 9t-64 10t-54 -20q-44 -37 -45 -227q-1 -189 37 -499
t39 -315q0 -37 -31 -37h-202q-75 0 -79 4q-39 39 -41 608q0 205 7 308l2 73q0 102 -76 105q-20 0 -45 -12t-39 -13q-14 0 -18 13q-3 13 -3 51q0 109 29 141t78 33q81 0 100 78q7 29 19 79t18 72q29 96 122 152t232 55q555 0 551 -70q0 -4 -20 -95t-42 -278t-22 -379
q0 -515 70 -856q8 -40 8 -44z" />
    <glyph glyph-name=".notdef" horiz-adv-x="1024" 
d="M102 1239v-1044l349 522zM164 102h696l-348 523zM573 717l349 -522v1044zM512 809l348 522h-696zM0 0v1434h1024v-1434h-1024z" />
    <glyph glyph-name=".null" horiz-adv-x="0" 
 />
    <glyph glyph-name="nonmarkingreturn" horiz-adv-x="681" 
 />
    <glyph glyph-name="space" unicode=" " horiz-adv-x="593" 
 />
    <glyph glyph-name="exclam" unicode="!" horiz-adv-x="665" 
d="M217 1704h272q72 0 72 -39q0 -6 -41 -98q-41 -91 -81 -233t-40 -267t17 -309l16 -185q0 -29 -143 -28q-63 -1 -125 329t-62 493t4 203t7 62q2 22 10 35q8 15 12 23t21 12t35 3t26 -1zM331 -31q-95 0 -162 67t-67 160q0 92 67 158t161 66t163 -66t69 -160t-68 -159
q-68 -66 -163 -66z" />
    <glyph glyph-name="quotedbl" unicode="&#x22;" horiz-adv-x="681" 
d="M530 1735q100 0 101 -121q0 -25 -41 -463q-4 -25 -20 -44t-40 -19q-22 0 -38 18q-16 20 -21 45q-41 438 -41 463q0 121 100 121zM152 1735q100 0 100 -121q0 -25 -41 -463q-5 -25 -21 -44t-38 -19t-39 18q-16 20 -21 45q-41 438 -41 463q1 121 101 121z" />
    <glyph glyph-name="numbersign" unicode="#" horiz-adv-x="1265" 
d="M496 692h225l49 287h-225zM63 481v211h236l51 287h-217v211h244l76 471h196l-76 -471h226l73 471h201l-74 -471h203v-211h-233l-51 -287h212v-211h-239l-80 -481h-195l74 481h-223l-76 -481h-198l75 481h-205z" />
    <glyph glyph-name="dollar" unicode="$" 
d="M442 342q56 0 56 69v220q0 63 -3 83q-7 49 -98 81q-354 129 -354 436q0 168 104 293t283 157q33 5 47 19t17 51q2 41 98 41h8q25 0 31 -9t6 -23v-17q0 -41 59 -49q14 -2 38 -4t36 -4q246 -47 246 -91q0 -20 -46 -138t-64 -118t-84 42q-67 42 -134 42q-43 0 -43 -67v-213
q-1 -78 17 -108t88 -56q395 -139 395 -492q0 -215 -123 -351t-305 -136q-63 0 -64 -82q0 -41 -36 -41h-32q-13 0 -41 -2t-33 11t-6 44q-2 70 -94 70q-91 0 -215 54t-124 85q0 45 41 185t65 139q33 -1 112 -61t152 -60zM498 1208v180q0 12 -9 23q-9 12 -32 12q-66 0 -102 -52
q-36 -53 -36 -119q-1 -66 53 -122t90 -57q36 0 36 135zM645 632v-210q0 -31 2 -44q6 -36 68 -36q61 0 107 47t46 109t-65 127q-66 63 -106 63t-46 -17t-6 -39z" />
    <glyph glyph-name="percent" unicode="%" horiz-adv-x="1626" 
d="M410 1124q55 0 88 76q32 76 32 154t-32 134q-33 56 -88 56t-88 -76t-33 -154t33 -134t88 -56zM725 1288q0 -156 -84 -280q-85 -124 -233 -125q-148 0 -231 125q-83 126 -83 280t84 279t232 125q100 0 175 -64q140 -118 140 -340zM1216 -31q-148 0 -232 125
q-83 125 -83 280q0 156 84 280t232 124q100 0 175 -63q140 -118 140 -340q0 -156 -84 -281t-232 -125zM408 2q0 39 65 203l490 1276q68 176 107 215q40 39 144 39q31 1 58 -13q26 -14 26 -34t-55 -146l-627 -1421q0 -11 -21 -49q-40 -70 -77 -87q-37 -16 -73 -16
q-37 0 -37 33zM1217 211q55 0 88 76q33 75 33 153t-33 134t-88 56t-89 -75q-34 -76 -32 -155q0 -79 33 -134t88 -55z" />
    <glyph glyph-name="ampersand" unicode="&#x26;" horiz-adv-x="1961" 
d="M547 -31q-213 0 -329 110t-116 288q0 106 36 197q36 90 87 148t101 102t87 79q36 35 36 57t-34 79q-100 165 -100 281q1 117 45 195t97 123t148 76t213 31t202 -37q141 -62 195 -205q22 -55 22 -121t-33 -141q-33 -74 -80 -122t-93 -89t-79 -78q-32 -37 -32 -75
q0 -37 54 -117t97 -88q16 0 46 32t74 77q44 46 102 92q57 46 151 78t192 32t161 -52q62 -52 63 -139q0 -39 -27 -85t-51 -46t-74 30t-108 30t-144 -65q-86 -66 -136 -134t-50 -96t58 -56q108 -50 220 -4q53 24 83 46t39 22t9 -35q0 -174 -94 -297t-252 -123q-63 0 -119 24
t-113 74q-58 50 -91 50t-75 -24q-42 -25 -84 -51t-123 -50t-181 -23zM773 1151q44 0 105 76q60 76 60 133q0 133 -141 133q-68 0 -109 -37t-41 -96t41 -134t85 -75zM604 672q-53 0 -111 -80q-59 -80 -59 -154t58 -122t124 -48t137 34t70 75q0 29 -92 162t-127 133z" />
    <glyph glyph-name="quotesingle" unicode="'" horiz-adv-x="454" 
d="M227 1735q100 0 101 -121q0 -25 -41 -463q-5 -25 -21 -44t-39 -19t-39 18q-16 20 -20 45q-41 438 -41 463q0 121 100 121z" />
    <glyph glyph-name="parenleft" unicode="(" horiz-adv-x="944" 
d="M154 901q0 834 456 834q49 0 87 -36t65 -108t29 -118q0 -15 -74 -15t-137 -33q-64 -33 -100 -83q-64 -88 -80 -307q-5 -81 -5 -216q0 -444 109 -737q12 -35 12 -39q0 -23 -56 -49t-93 -25t-87 141t-89 364q-37 224 -37 427z" />
    <glyph glyph-name="parenright" unicode=")" horiz-adv-x="944" 
d="M791 803q0 -834 -457 -834q-49 0 -95 44t-76 165q-9 37 -9 52q0 16 74 16t136 33q64 33 100 83q64 88 80 307q5 81 5 215q0 444 -109 738q-12 35 -12 39q0 23 56 49t94 25t87 -141q50 -140 88 -364t38 -427z" />
    <glyph glyph-name="asterisk" unicode="*" horiz-adv-x="1325" 
d="M978 1561q19 0 52 -88t33 -111t-46 -35q-46 -13 -119 -23t-93 -14q156 -162 160 -170t4 -12q0 -16 -84 -72q-83 -56 -95 -55q-12 0 -18 3t-15 17q-9 15 -19 31q-9 16 -28 52t-46 85q-91 -168 -103 -178t-27 -10q-14 0 -96 53q-82 52 -82 70t99 117q10 10 28 30t37 39
q-222 33 -240 45t-18 31t30 107t52 88q14 0 215 -86l-20 215q0 32 7 39q7 8 10 13t53 5h96q61 0 71 -7t10 -34l-20 -231q53 33 123 59t89 27z" />
    <glyph glyph-name="plus" unicode="+" 
d="M1083 578h-393v-502h-190v502h-398v192h398v475h190v-475h393v-192z" />
    <glyph glyph-name="comma" unicode="," horiz-adv-x="593" 
d="M340 434q82 0 142 -74t60 -170t-69 -177q-71 -81 -151 -113t-148 -31q-16 0 -16 10q0 2 13 24q40 68 40 129q0 62 -25 101q-26 39 -56 51t-54 20t-25 15q0 12 41 39l170 137q53 39 78 39z" />
    <glyph glyph-name="hyphen" unicode="-" horiz-adv-x="512" 
d="M397 514h-303q-2 0 -21 -1q-52 -3 -62 10q-11 13 -11 41t32 120t83 92h303q2 0 21 1q52 3 62 -10q11 -13 11 -41t-32 -120t-83 -92z" />
    <glyph glyph-name="period" unicode="." horiz-adv-x="593" 
d="M296 -31q-95 0 -162 67q-66 67 -66 160q0 92 66 158t161 66q94 0 163 -66q68 -66 68 -160t-68 -159q-68 -66 -162 -66z" />
    <glyph glyph-name="slash" unicode="/" horiz-adv-x="1079" 
d="M94 2q0 39 66 203l489 1276q68 176 108 215t144 39q31 1 57 -13t27 -34q0 -20 -55 -146l-627 -1421q0 -15 -32 -67t-67 -69q-35 -16 -72 -16q-38 0 -38 33z" />
    <glyph glyph-name="zero" unicode="0" 
d="M594 1415q-227 0 -227 -518q1 -311 67 -437t160 -126t161 126t67 438q-1 412 -148 498q-35 19 -80 19zM594 -31q-221 0 -374 221t-152 639q0 418 152 640q153 223 374 223t374 -222q152 -222 152 -641q0 -418 -152 -639t-374 -221z" />
    <glyph glyph-name="one" unicode="1" 
d="M432 328q0 299 11 562t11 347q1 137 -83 182q-31 15 -58 35t-26 43q0 47 116 121q117 74 261 74q40 0 82 -22t42 -60q0 -8 -28 -188t-29 -369q0 -189 34 -515t34 -513q1 -25 -105 -40t-202 -16q-25 0 -34 16q-26 44 -26 343z" />
    <glyph glyph-name="two" unicode="2" 
d="M971 561v9q0 5 9 5q9 -1 36 -33q26 -32 52 -96t26 -129q0 -145 -98 -246t-201 -102q-51 0 -181 28t-180 28q-51 0 -146 -28t-114 -28q-80 0 -80 111q0 284 137 477q109 154 283 292q74 57 135 111q139 122 137 238q0 94 -44 156t-125 61q-81 0 -144 -50q-63 -51 -97 -111
t-63 -110t-41 -50t-78 114t-65 133q0 99 139 225t345 126t339 -117t133 -324q0 -119 -48 -225q-47 -106 -119 -179q-140 -143 -311 -259t-171 -213q0 -47 41 -47q8 0 44 12t86 12t133 -20t104 -21q59 0 101 49t42 123q0 19 -3 28t-4 16t-3 13l-4 12q-2 5 -2 9z" />
    <glyph glyph-name="three" unicode="3" 
d="M222 1661h543q183 0 203 1t29 0l24 -3q42 -6 42 -57q0 -115 -48 -224q-49 -109 -107 -172t-106 -113q-48 -51 -48 -63t34 -30q121 -65 179 -116q57 -50 92 -135t35 -196q0 -248 -148 -416t-377 -168q-230 0 -397 139q-75 62 -78 93q0 14 100 146q99 132 112 132
q20 0 89 -72q27 -28 77 -51t110 -22q86 0 149 74t64 161q0 135 -112 203t-294 68q-72 0 -72 43t195 247t195 237q1 32 -97 32t-233 -37t-139 -37q-20 0 -48 123q-27 123 -26 168q0 45 58 45z" />
    <glyph glyph-name="four" unicode="4" 
d="M598 422q0 51 -79 51t-219 -34t-155 -33q-63 0 -83 53q-19 53 -19 165t78 302q145 357 381 621q100 114 145 114h225q72 0 72 -39q0 -8 -91 -103t-201 -215t-200 -279t-92 -280q0 -18 10 -24t50 -6q41 0 122 33t95 92q37 164 105 284t123 169q56 48 86 48t30 -20
q0 -2 -16 -55q-48 -160 -49 -295t28 -163t131 -28h21q37 2 47 -24t10 -207q0 -80 -27 -80l-151 20q-57 -1 -79 -37t-22 -167l9 -265q0 -22 -89 -36q-194 -29 -220 2q-24 30 0 197t24 239z" />
    <glyph glyph-name="five" unicode="5" 
d="M291 1661h690q41 0 41 -25q0 -44 -17 -156t-42 -112q-9 0 -111 15t-202 15t-148 -18q-27 -12 -59 -98q-31 -86 -31 -165t43 -79q4 0 24 10q54 26 172 25q207 1 324 -149t117 -363q0 -279 -160 -435t-418 -157q-125 0 -226 41t-147 85q-45 43 -45 67t69 172t89 149
q28 0 91 -74q24 -28 78 -52t128 -23q109 0 175 63t67 173q0 110 -70 186t-168 76t-184 -51q-86 -50 -103 -50q-121 0 -121 148q0 260 42 521q43 261 102 261z" />
    <glyph glyph-name="six" unicode="6" 
d="M786 1692q64 0 156 -22t92 -68q0 -20 -48 -138t-68 -118q-10 0 -66 34t-123 35q-127 0 -237 -127t-111 -241q0 -13 10 -29q9 -16 23 -16t56 22q124 68 241 68q186 0 298 -162t111 -357q0 -155 -50 -275t-129 -190q-159 -139 -341 -139q-236 0 -384 197q-148 196 -148 610
t195 665t523 251zM608 311q104 0 170 78q66 77 66 185t-58 182t-166 74q-106 0 -180 -72t-74 -175t69 -188q69 -84 173 -84z" />
    <glyph glyph-name="seven" unicode="7" 
d="M766 1358q0 41 -92 41h-185q-94 0 -151 -25q-57 -24 -79 -54t-40 -54t-33 -25q-25 0 -30 62l-33 321q0 22 27 34q6 3 222 3h640q41 0 47 -23t6 -94v-98q0 -8 -2 -15t-3 -11t-4 -13l-6 -16t-15 -26t-19 -30q-231 -373 -306 -541t-75 -337q0 -106 49 -176t152 -70
q18 0 37 7t29 7t9 -16q0 -68 -87 -154t-229 -86t-234 111q-91 112 -91 272t78 343t170 304t170 223t78 136z" />
    <glyph glyph-name="eight" unicode="8" 
d="M585 1450q-77 0 -131 -52t-54 -136t69 -159q70 -75 124 -75t119 76q64 76 64 159t-57 135t-134 52zM582 719q-78 0 -138 -78t-61 -159t53 -126t147 -45t157 44t65 127q0 83 -72 160q-73 77 -151 77zM1137 469q-1 -244 -153 -372t-386 -128t-390 108q-157 108 -157 306
q0 102 38 187t82 130t82 86q38 40 38 74t-84 132q-31 36 -57 105q-27 69 -27 152q0 211 135 327t346 116t330 -120t119 -274q0 -76 -30 -142t-67 -102q-96 -92 -96 -122q0 -28 29 -56t69 -63t80 -79q41 -44 70 -114t29 -151z" />
    <glyph glyph-name="nine" unicode="9" 
d="M401 -31q-63 0 -155 22t-92 68q0 23 48 173t68 149q10 0 66 -35t123 -35q127 0 237 127t111 242q0 14 -10 30q-11 16 -23 15q-12 0 -55 -23q-129 -69 -242 -67q-190 0 -300 132q-109 132 -109 303t50 292q50 120 129 190q159 140 341 140q236 0 384 -197t148 -611
t-196 -664q-196 -251 -523 -251zM580 1415q-104 0 -170 -78t-66 -185t58 -181t165 -74t181 72t74 175t-69 187t-173 84z" />
    <glyph glyph-name="colon" unicode=":" horiz-adv-x="593" 
d="M296 891q-95 1 -162 67q-66 66 -66 159t66 159q67 66 161 66t163 -66q68 -66 68 -160t-67 -160q-68 -65 -163 -65zM296 -31q-95 0 -162 67q-66 67 -66 160q0 92 66 158t161 66q94 0 163 -66q68 -66 68 -160t-68 -159q-68 -66 -162 -66z" />
    <glyph glyph-name="semicolon" unicode=";" horiz-adv-x="593" 
d="M296 891q-95 1 -162 67q-66 66 -66 159t66 159q67 66 161 66t163 -66q68 -66 68 -160t-67 -160q-68 -65 -163 -65zM340 434q82 0 142 -74t60 -170t-69 -177q-71 -81 -151 -113t-148 -31q-16 0 -16 10q0 2 13 24q40 68 40 129q0 62 -25 101q-26 39 -56 51t-54 20t-25 15
q0 12 41 39l170 137q53 39 78 39z" />
    <glyph glyph-name="less" unicode="&#x3c;" 
d="M1081 47l-972 528v201l970 527v-218l-796 -405v-4l798 -408v-221z" />
    <glyph glyph-name="equal" unicode="=" 
d="M1083 330h-979v192h979v-192zM1083 827h-979v191h979v-191z" />
    <glyph glyph-name="greater" unicode="&#x3e;" 
d="M109 1303l972 -527v-201l-970 -528v221l796 406v6l-798 405v218z" />
    <glyph glyph-name="question" unicode="?" horiz-adv-x="983" 
d="M378 -31q-95 0 -162 67q-66 67 -66 160q0 92 66 158t161 66q94 0 163 -66q68 -66 68 -160t-68 -159q-68 -66 -162 -66zM270 625v147q0 150 110 243q46 39 92 73q110 82 110 208q0 70 -37 123t-97 53t-96 -31q-37 -32 -57 -64q-21 -31 -35 -31t-86 82t-72 100
q0 57 108 132t236 75q188 -1 312 -145t123 -337q0 -102 -42 -189q-41 -87 -101 -143q-60 -57 -120 -103t-101 -91q-42 -45 -42 -75t-2 -51q-2 -20 -8 -26l-9 -9q-5 -5 -46 -5h-70q-50 0 -54 6q-16 21 -16 58z" />
    <glyph glyph-name="at" unicode="@" horiz-adv-x="1787" 
d="M973 854q-90 0 -163 -100t-73 -248t105 -148q54 0 104 75t70 177l45 228q-33 16 -88 16zM94 483q0 254 104 468q103 214 309 349t472 136q347 0 537 -213t190 -507t-127 -454t-315 -160q-94 0 -148 60t-61 168h-6q-47 -98 -131 -163t-191 -65t-179 94t-71 240
q0 256 153 425t390 169q174 0 289 -67l-74 -426q-45 -254 70 -258q83 0 155 105t72 314q0 260 -153 425t-429 165q-116 0 -234 -56q-259 -124 -377 -408q-62 -153 -63 -328q0 -304 169 -488t415 -184q194 0 350 96l52 -141q-186 -106 -433 -107q-327 0 -531 226t-204 585z
" />
    <glyph glyph-name="A" unicode="A" horiz-adv-x="1429" 
d="M774 1384q-82 0 -206 -181t-124 -294q0 -39 39 -39l154 27q155 27 237 27t106 13t24 54q0 97 -86 245t-144 148zM983 0q-78 0 -78 25q0 18 39 95q119 235 119 400q0 66 -52 96t-128 31q-483 0 -484 -266q0 -118 101 -299q33 -59 32 -68q0 -14 -38 -14h-293
q-133 0 -133 451q0 248 64 469q65 221 156 364q91 144 193 250t177 154t105 47q30 0 91 -36q60 -36 150 -130q90 -93 168 -227t134 -358t56 -488t-19 -349q-19 -86 -32 -104q-12 -18 -23 -31t-37 -14l-39 2h-229z" />
    <glyph glyph-name="B" unicode="B" horiz-adv-x="1355" 
d="M860 1339q0 123 -161 123t-229 -88t-69 -319q0 -72 23 -86q12 -8 44 -8t97 45l150 106q53 38 99 104t46 123zM414 612q0 -282 105 -328q49 -22 157 -22t194 53t86 164q0 68 -47 153t-103 141q-56 57 -82 57t-89 -35l-133 -72q-64 -35 -76 -56t-12 -55zM831 0h-477
q-166 0 -177 4t-27 41q-45 105 -47 616q-1 512 29 749q30 238 54 266t54 28h534q418 0 418 -299q0 -76 -37 -151q-37 -74 -80 -120t-80 -87t-37 -61t34 -55q34 -36 82 -85q48 -48 97 -110t83 -152t34 -189q0 -167 -112 -281t-345 -114z" />
    <glyph glyph-name="C" unicode="C" horiz-adv-x="1320" 
d="M733 -31q-135 0 -249 47t-192 128q-240 248 -241 682q0 148 48 312q49 163 139 298t235 217t311 82t307 -66q71 -33 115 -93t45 -143q0 -83 -56 -133t-155 -49q-28 0 -36 30t-13 67q-4 36 -49 66t-133 30q-141 0 -241 -89q-184 -163 -185 -472q0 -139 44 -250
q74 -188 255 -267q74 -32 156 -32t155 31q145 62 201 237q10 31 14 31q18 0 32 -76t13 -108q0 -221 -148 -351q-149 -129 -372 -129z" />
    <glyph glyph-name="D" unicode="D" horiz-adv-x="1372" 
d="M422 1069v-293q0 -365 113 -465q55 -49 120 -49q113 0 216 97q118 113 118 399q0 154 -42 302q-42 146 -105 230t-129 128t-118 44q-129 0 -166 -275q-7 -61 -7 -118zM745 0h-412q-144 0 -156 4q-11 4 -27 41q-45 105 -47 616q-1 512 29 749q30 238 54 266t54 28h354
t367 -151q100 -81 179 -199t130 -300q51 -183 51 -386t-55 -344q-54 -140 -188 -232t-333 -92z" />
    <glyph glyph-name="E" unicode="E" horiz-adv-x="1222" 
d="M1204 31q0 -38 -59 -31h-957q-59 -2 -71 40q-13 42 -13 194t-1 314t65 659t106 497h807q98 0 99 -35q0 -15 -70 -159t-88 -144q-10 0 -44 24t-100 48t-168 24q-104 0 -190 -72t-86 -198q0 -127 66 -127q18 0 150 48t233 48q29 0 61 -10t31 -33q1 -10 -61 -173t-78 -163
q-2 0 -67 20t-112 21q-94 -1 -175 -71t-81 -202t67 -210t202 -78t297 102q53 34 69 33q20 0 94 -172t74 -194z" />
    <glyph glyph-name="F" unicode="F" horiz-adv-x="1122" 
d="M240 1704h841q98 0 99 -35q0 -15 -70 -159t-88 -144q-10 0 -44 24t-100 48t-168 24q-104 0 -190 -72t-86 -208q0 -98 11 -130t59 -32t96 24q49 24 124 47q75 24 191 23q70 0 70 -35q0 -20 -46 -175t-69 -154q-2 0 -55 14t-100 14q-133 0 -202 -72t-69 -205
q0 -134 61 -391q19 -85 19 -92q2 -18 -94 -18h-169q-72 0 -84 4q-11 4 -27 41q-45 105 -47 616q-1 512 29 749q30 238 54 266t54 28z" />
    <glyph glyph-name="G" unicode="G" horiz-adv-x="1349" 
d="M51 754q0 250 85 469t262 365t411 147q150 0 292 -66q71 -33 116 -93t45 -143t-56 -133t-155 -49q-27 0 -36 30t-14 67q-4 36 -49 66q-44 30 -146 30t-191 -60q-152 -104 -208 -368q-24 -109 -24 -223q0 -459 332 -459q109 0 187 48t77 148q0 58 -26 100t-55 60
q-81 49 -81 74q0 18 176 86t202 68q27 0 57 -242t30 -320q0 -127 -79 -218q-147 -169 -441 -169q-346 0 -529 215q-182 215 -182 570z" />
    <glyph glyph-name="H" unicode="H" horiz-adv-x="1456" 
d="M969 1377q-45 122 -90 211t-45 95q0 20 73 21h269q57 0 117 -348t61 -678q0 -678 -66 -678h-295q-76 0 -75 31q0 16 6 28q131 344 131 584q0 102 -44 144t-149 42q-174 0 -301 -85t-127 -250q0 -244 84 -443q8 -16 8 -31q0 -26 -53 -21q-10 1 -12 1h-301q-57 0 -58 678
q0 222 38 624t102 402h278q61 0 62 -18q0 -6 -35 -98q-105 -274 -105 -443q0 -41 14 -71t34 -30q22 0 51 16q87 46 293 46l92 -2q50 0 69 15t19 75q0 61 -45 183z" />
    <glyph glyph-name="I" unicode="I" horiz-adv-x="669" 
d="M517 1704q50 0 50 -33q0 -4 -11 -47q-97 -379 -97 -711q0 -453 92 -838q10 -46 10 -52q0 -23 -31 -23h-233q-84 0 -95 4t-28 41q-47 109 -47 618q0 510 30 747q29 238 53 266t54 28h253z" />
    <glyph glyph-name="J" unicode="J" horiz-adv-x="819" 
d="M281 1680q0 29 45 25q14 -1 16 -1h268q29 0 39 -14q68 -98 68 -1033q0 -346 -113 -531q-34 -54 -68 -81q-83 -65 -125 -68q-43 -4 -67 -9t-30 -2q-7 3 -9 3q-111 1 -208 61t-97 105q0 74 48 198t81 124q12 0 54 -73t77 -73q4 0 22 -1q51 -3 64 35q29 82 34 206
q5 125 5 252q0 350 -68 704q-14 78 -25 122t-11 51z" />
    <glyph glyph-name="K" unicode="K" horiz-adv-x="1335" 
d="M1157 1704q2 0 14 1q52 4 52 -26q-1 -104 -55 -226t-120 -207q-66 -86 -119 -154q-55 -68 -55 -78t41 -60q228 -276 312 -586q41 -157 41 -325q0 -32 -19 -39q-19 -6 -41 -5t-28 1h-250q-45 0 -45 59v23q-5 343 -134 576q-62 108 -92 108q-45 0 -135 -94t-90 -163
t34 -269q34 -201 36 -205q0 -35 -39 -35h-202q-74 0 -86 4q-11 4 -27 41q-45 105 -47 616q-1 512 29 749q30 238 54 266t54 28h180q72 0 79 -3t14 -7t7 -23l-12 -42q-9 -29 -43 -165q-45 -184 -45 -383q0 -129 35 -129q25 0 111 98t193 279q108 180 146 332q2 8 3 10t4 12
t9 12q5 3 9 5t8 2l23 2h196z" />
    <glyph glyph-name="L" unicode="L" horiz-adv-x="1128" 
d="M1022 0h-834q-59 -2 -71 40q-13 42 -13 194t-1 314t65 659t106 497h326q39 0 39 -41q0 -11 -25 -71q-213 -515 -213 -980q0 -194 68 -272t159 -78t168 43t127 87t68 44q25 0 72 -189t47 -215t-25 -30t-43 -3t-20 1z" />
    <glyph glyph-name="M" unicode="M" horiz-adv-x="1775" 
d="M508 30q0 -30 -48 -30h-198q-73 0 -85 4q-11 4 -27 41q-45 105 -47 616q-1 512 29 749q30 238 54 266t54 28h178q82 0 118 -20t123 -141q87 -120 192 -347q19 -43 36 -43q10 0 28 44q17 43 77 149t148 212t126 125q39 20 106 21h160q37 0 55 -35q86 -147 86 -892
t-76 -773q-9 -4 -93 -4h-239q-40 0 -40 31q0 6 12 55q104 425 104 877q0 295 -61 294q-53 0 -158 -251q-85 -214 -108 -339t-36 -178t-35 -75q-21 -22 -65 -21q-44 0 -72 22q-42 33 -82 207t-128 384q-4 8 -17 43q-77 208 -135 208q-66 0 -66 -331t85 -707q17 -84 31 -133
t14 -56z" />
    <glyph glyph-name="N" unicode="N" horiz-adv-x="1452" 
d="M1004 1704h208q37 0 60 -30q22 -30 50 -264t28 -563t-8 -474t-15 -218q-8 -73 -25 -110q-18 -37 -28 -41t-22 -4h-230q-41 0 -57 16q-15 16 -29 72t-32 131t-74 227t-122 289t-159 288q-92 151 -132 151t-40 -152l2 -113q0 -423 63 -754q27 -139 20 -146q-6 -7 -14 -8
t-14 -2t-15 0t-60 1h-111q-59 0 -71 4q-11 4 -27 41q-45 105 -47 616q-1 512 29 749q30 238 54 266t54 28h166q145 0 616 -873q23 -37 35 -36q16 0 16 142q-1 141 -27 323t-52 296t-25 125q0 23 35 23z" />
    <glyph glyph-name="O" unicode="O" horiz-adv-x="1458" 
d="M729 334q346 0 346 332q0 315 -114 526q-115 211 -232 211t-231 -211t-115 -526q0 -332 346 -332zM831 -31h-204q-199 0 -332 91q-133 90 -189 232t-55 368q0 226 88 481q88 256 247 425t343 169t343 -169t247 -425t88 -481q0 -224 -55 -366q-54 -142 -188 -234t-333 -91
z" />
    <glyph glyph-name="P" unicode="P" horiz-adv-x="1277" 
d="M240 1704h632q119 0 204 -39t126 -99q76 -111 76 -245q0 -133 -83 -257t-201 -202t-234 -142t-200 -132q-83 -66 -83 -138q0 -140 53 -358l19 -74q0 -18 -62 -18h-219q-80 0 -91 4t-27 41q-45 105 -47 616q-1 512 29 749q30 238 54 266t54 28zM498 874q88 0 268 148
t180 250q0 100 -70 145q-71 45 -150 45t-112 -6q-34 -6 -72 -33t-58 -77q-48 -115 -50 -377q0 -45 12 -70t52 -25z" />
    <glyph glyph-name="Q" unicode="Q" horiz-adv-x="1480" 
d="M739 1444q-95 0 -159 -58t-94 -153q-52 -166 -52 -361q0 -284 81 -422t224 -139q61 0 101 25q-203 152 -203 377q0 25 8 69t23 43q33 0 32 -34q28 -87 120 -149q51 -35 179 -105q45 145 45 366q0 541 -305 541zM739 -31q-281 0 -459 213t-178 641q0 279 81 496
q46 123 116 213q69 90 183 146t257 56t257 -56t184 -146q196 -252 196 -709q4 -248 -110 -495q147 -135 147 -316q0 -98 -35 -98q-22 0 -88 59l-170 146q-63 -72 -174 -111t-207 -39z" />
    <glyph glyph-name="R" unicode="R" horiz-adv-x="1359" 
d="M524 25q0 -31 -57 -26q-12 1 -74 1h-133q-71 0 -83 4q-11 4 -27 41q-45 105 -47 616q-1 512 29 749q30 238 54 266t54 28h546q364 0 455 -249q23 -62 23 -144t-32 -160t-83 -134t-161 -141q-32 -26 -32 -40t58 -84t127 -160q70 -90 127 -245t57 -320q0 -15 -9 -21t-97 -6
h-231q-46 0 -46 27q0 180 -98 413t-185 234q-57 0 -134 -60t-77 -135q1 -133 58 -371q18 -81 18 -83zM498 915q41 -1 142 51t197 143q95 91 95 179t-69 131t-166 43t-151 -30q-112 -63 -112 -392q1 -125 64 -125z" />
    <glyph glyph-name="S" unicode="S" horiz-adv-x="1323" 
d="M999 1274q-16 0 -46 29q-31 29 -65 63t-97 64q-63 28 -143 28t-154 -44q-72 -44 -72 -120t47 -116q19 -16 31 -28t39 -24q27 -14 39 -21t43 -19t39 -15q8 -4 41 -14q323 -101 439 -244t116 -326t-139 -341q-69 -79 -189 -128t-275 -49q-237 0 -411 126t-174 356
q0 79 28 147t56 98q29 30 39 31q10 0 18 -43q22 -121 88 -225q39 -61 126 -105t210 -43q123 0 207 51t84 150t-110 161q-81 45 -201 83q-121 39 -215 89t-147 99q-52 50 -82 110t-38 108t-8 114q0 141 109 290q56 75 166 122t252 47t265 -43q123 -42 185 -92t63 -90
q0 -40 -61 -138q-62 -98 -103 -98z" />
    <glyph glyph-name="T" unicode="T" horiz-adv-x="1282" 
d="M860 35q0 -40 -80 -36q-18 1 -20 1h-215q-4 0 -25 -4t-40 9t-42 137q-22 124 -22 348q1 366 67 711q23 114 23 129v69q0 35 -52 35t-154 -60t-180 -118q-79 -58 -93 -58h-16q-1 0 -6 11t-5 49t32 180t51 180q19 37 201 77t402 40q220 -1 408 -57t188 -128q0 -61 -52 -173
t-71 -111q-16 0 -90 85q-29 33 -77 59t-95 26t-79 -62t-51 -205q-19 -144 -19 -345t28 -395t56 -293t28 -101z" />
    <glyph glyph-name="U" unicode="U" horiz-adv-x="1378" 
d="M989 1704h201q16 0 28 -8t31 -51q62 -148 62 -711q0 -965 -623 -965q-295 -1 -458 229t-162 681q0 299 22 499q35 323 82 326h285q45 0 45 -27q0 -8 -26 -96t-52 -259t-25 -380q0 -316 89 -462t200 -146q41 0 74 6t83 40t84 92t58 174q25 116 25 271t-14 325t-40 267
q-26 96 -36 128t-11 40q0 27 78 27z" />
    <glyph glyph-name="V" unicode="V" horiz-adv-x="1318" 
d="M902 1704h263q63 0 99 -236q20 -128 20 -316t-53 -384t-133 -337q-80 -142 -168 -254t-162 -169t-113 -57q-10 0 -47 19q-83 42 -217 184t-245 409q-111 268 -111 645t56 461q17 27 27 31t27 4h234q96 0 96 -33q-1 -12 -27 -77q-26 -64 -54 -202t-28 -286t34 -285
q33 -138 132 -295q41 -63 74 -97t49 -34q41 1 97 55t107 141q52 87 89 215t37 266t-21 259q-22 121 -46 179q-25 58 -47 102t-21 59q0 33 52 33z" />
    <glyph glyph-name="W" unicode="W" horiz-adv-x="1742" 
d="M1407 1704h188q47 0 62 -10q53 -49 53 -301q0 -253 -48 -479t-118 -392t-144 -300t-126 -203q-53 -69 -68 -68q-40 0 -116 135t-150 270t-100 136q-27 0 -101 -136q-75 -136 -151 -270q-76 -135 -115 -135q-14 0 -61 58q-110 135 -235 429q-60 143 -102 341
q-42 197 -42 421t12 346q13 122 25 140t26 18h273q47 0 47 -29q0 -2 -16 -55q-43 -145 -43 -378q-1 -232 33 -412t72 -254t64 -74q35 0 87 88t99 277q46 189 46 414t-28 348q-9 44 -9 48q0 27 35 27h266q51 0 51 -35q1 -7 -19 -105t-20 -294t32 -385q32 -187 73 -285t73 -98
q63 0 143 230q79 230 79 440t-53 422q-17 73 -17 79q0 31 43 31z" />
    <glyph glyph-name="X" unicode="X" horiz-adv-x="1302" 
d="M1251 41q1 -41 -35 -41h-225q-98 0 -101 6t-10 16t-10 48l-6 88q-21 253 -130 419q-52 74 -87 74t-82 -56q-47 -57 -80 -115q-78 -139 -106 -400q-2 -18 -3 -24t-2 -18q-1 -11 -4 -14q-3 -2 -5 -10t-9 -8l-25 -6h-149q-51 0 -66 -1t-34 1q-31 4 -31 31q0 149 41 281
t104 225t216 272q41 49 41 80t-33 76t-79 102t-93 131t-80 193t-33 258q0 28 10 37q22 18 39 18h277q39 -4 44 -16t13 -118q21 -273 113 -415q44 -66 78 -68q55 1 111 149t57 280l-7 149q0 19 12 29t20 11q9 1 32 -1h180q35 0 54 -6q34 -11 37 -61q1 -15 1 -103t-28 -200
t-69 -178q-40 -66 -80 -116q-41 -49 -69 -87q-28 -39 -28 -67t50 -100t110 -158t109 -241q50 -154 50 -326v-20z" />
    <glyph glyph-name="Y" unicode="Y" horiz-adv-x="1318" 
d="M999 1704h171q76 0 96 -24t20 -85q0 -149 -40 -283t-100 -228t-130 -200t-130 -200t-100 -228t-41 -286l13 -131q0 -39 -94 -39h-238q-64 0 -64 112q-1 190 103 403q35 73 35 93t-48 74q-167 189 -245 307q-78 117 -126 262t-48 275q1 130 23 154t98 24h163q96 0 113 -33
q4 -8 4 -20l-18 -160q0 -135 53 -270t115 -211t93 -76t101 89t131 227t62 251q0 39 -9 103t-10 65q0 35 47 35z" />
    <glyph glyph-name="Z" unicode="Z" horiz-adv-x="1269" 
d="M133 1686q0 24 68 19q12 -1 14 -1h942q31 0 55 -16t25 -50q0 -82 -117 -263t-256 -358t-256 -361t-116 -269q0 -61 60 -93t136 -32t138 24t96 52t64 50q30 24 42 24q24 0 92 -182t68 -199q0 -31 -92 -31h-739q-249 0 -265 1t-21 5t-21 14t-17 66q0 133 69 302
q70 169 168 321q98 153 196 287t169 238q70 104 70 140q0 88 -127 88q-74 0 -132 -18t-88 -40q-28 -22 -52 -40t-34 -18q-33 0 -86 154t-53 186z" />
    <glyph glyph-name="bracketleft" unicode="[" horiz-adv-x="819" 
d="M258 0q-104 0 -104 733q0 1001 125 1002h170l101 2q162 0 167 -27q1 -31 -17 -43t-47 -17q-29 -6 -63 -18q-76 -28 -134 -180q-59 -152 -60 -567t59 -583q60 -167 131 -197q32 -13 60 -19t45 -18t18 -43q0 -27 -162 -27l-98 2h-191z" />
    <glyph glyph-name="backslash" unicode="\" horiz-adv-x="741" 
d="M721 -100h-199l-502 1847h197z" />
    <glyph glyph-name="bracketright" unicode="]" horiz-adv-x="819" 
d="M541 1735q125 0 125 -1002q-1 -733 -105 -733h-190l-102 -2q-163 0 -167 27q0 31 18 43t46 18t62 19q75 29 136 196q60 167 60 583t-61 569t-135 179q-34 12 -62 18t-46 17q-17 12 -18 43q0 27 167 27l102 -2h170z" />
    <glyph glyph-name="asciicircum" unicode="^" horiz-adv-x="1200" 
d="M1110 741h-215l-299 705l-303 -705h-205l416 912h190z" />
    <glyph glyph-name="underscore" unicode="_" horiz-adv-x="1024" 
d="M961 -399h-918q-2 0 -38 -2t-46 11t-10 40q0 28 32 110t82 82h918q2 0 38 2t46 -11t10 -40q1 -27 -31 -109t-83 -83z" />
    <glyph glyph-name="grave" unicode="`" horiz-adv-x="788" 
d="M102 1782q0 52 108 48q24 -1 40 -1h30q34 0 40 -4t13 -7q7 -2 11 -12t10 -18t15 -25l155 -290q25 -41 25 -55t-27 -13q-56 -6 -160 79t-182 178t-78 120z" />
    <glyph glyph-name="a" unicode="a" horiz-adv-x="1064" 
d="M596 0q-528 0 -528 377q0 182 147 312t336 163q37 6 55 12t34 24t17 52q0 74 -61 117t-135 43t-119 -28t-57 -60q-11 -32 -23 -61q-12 -28 -26 -27q-51 0 -95 51q-43 51 -43 117q0 110 106 180t253 69q346 0 450 -284q47 -131 47 -797l17 -213q0 -47 -375 -47zM678 403
v146q0 38 -11 61q-19 41 -75 41q-94 1 -171 -67t-77 -155t62 -137t148 -50q88 0 106 43t18 118z" />
    <glyph glyph-name="b" unicode="b" horiz-adv-x="1097" 
d="M180 1747h197q74 0 74 -45q0 -4 -31 -127t-31 -202t45 -79q25 0 84 23q84 25 136 25t122 -34q170 -79 239 -282q40 -119 40 -272q0 -356 -209 -594q-137 -160 -324 -160h-362q-63 0 -64 733q0 1014 84 1014zM530 342q191 0 237 262q11 61 11 125q0 223 -72 321
q-72 97 -170 97t-130 -72t-33 -249q0 -396 80 -458q27 -22 39 -24t38 -2z" />
    <glyph glyph-name="c" unicode="c" horiz-adv-x="999" 
d="M526 -31q-123 1 -218 55t-151 144q-114 183 -114 444t138 485q69 109 184 177t253 68t226 -63q88 -62 88 -151q0 -55 -35 -117t-86 -63q-15 0 -33 38t-59 76t-126 38t-154 -80q-120 -139 -120 -371q0 -158 75 -261t224 -103t234 131q20 31 32 51q11 20 16 20q11 0 21 -41
q9 -41 9 -79q0 -182 -111 -290t-293 -108z" />
    <glyph glyph-name="d" unicode="d" horiz-adv-x="1110" 
d="M952 0h-479q-182 0 -306 161t-124 455q0 166 51 310t128 230q77 87 160 136t153 49q23 1 63 -23t53 -24q47 0 47 100t-25 198q-26 97 -26 126t72 29h213q84 0 84 -1014q-1 -733 -64 -733zM537 299q127 0 168 109q39 108 35 287q-1 56 -1 127q0 276 -77 315q-20 10 -54 10
q-92 0 -190 -121t-99 -367q0 -57 12 -116q27 -146 108 -208q47 -36 98 -36z" />
    <glyph glyph-name="e" unicode="e" horiz-adv-x="1075" 
d="M582 1100q-115 0 -189 -98t-74 -199q0 -45 37 -45q54 0 226 60t172 128t-54 111t-118 43zM971 502q33 0 37 -123q0 -188 -128 -299t-319 -111q-258 -1 -388 181t-130 450q0 350 163 546t386 195q178 0 297 -97t119 -271q0 -123 -68 -206t-165 -122t-194 -69t-165 -68
q-68 -40 -68 -102t86 -111t176 -49t160 26t115 78q45 51 62 101q17 51 24 51z" />
    <glyph glyph-name="f" unicode="f" horiz-adv-x="733" 
d="M510 0h-202q-75 0 -79 4q-41 39 -41 608l7 308l2 73q0 102 -76 105q-20 0 -45 -12t-39 -13q-14 0 -18 13q-3 13 -3 51q0 109 29 141t78 33q81 0 100 78q7 29 19 79t18 72q29 92 109 150t163 57h60q103 0 118 -25q7 -12 7 -38q-1 -26 -19 -122q-18 -95 -41 -96
q-14 0 -31 10t-28 9q-39 0 -68 -45q-28 -45 -28 -77q1 -61 51 -63l78 11q53 0 66 -30t14 -95q0 -106 -43 -107q-6 -1 -40 9t-64 10t-54 -20q-44 -37 -45 -227q-1 -189 37 -499t39 -315q0 -37 -31 -37z" />
    <glyph glyph-name="g" unicode="g" horiz-adv-x="1138" 
d="M578 1341q41 0 86 -8l41 -8q39 0 79 47t79 94q38 47 75 47q38 -1 102 -75t64 -98t-30 -32q-30 -6 -66 -8t-65 -18q-30 -16 -30 -48t52 -107q52 -74 52 -236q1 -162 -113 -293t-326 -131q-84 0 -167 -42t-83 -87q0 -29 20 -49q20 -21 50 -21t185 51t263 52q51 0 134 -35
t83 -85t-51 -166t-92 -116q-20 0 -39 26q-53 77 -123 77q-68 0 -202 -52t-210 -51q-127 0 -211 71t-84 191q0 83 37 143t80 86t80 50t37 41q0 16 -37 61t-74 124t-37 175q0 201 117 315t324 115zM576 729q88 0 144 56q56 57 56 153t-56 152t-142 57q-86 0 -142 -56
q-56 -57 -57 -151q0 -94 54 -153q55 -58 143 -58z" />
    <glyph glyph-name="h" unicode="h" horiz-adv-x="1114" 
d="M102 698q0 1048 117 1049h223q14 0 24 -13q10 -14 9 -26q0 -12 -19 -78q-57 -199 -59 -319q0 -63 35 -64q18 0 94 45q94 49 170 49q76 1 132 -29q194 -102 194 -597q0 -205 -25 -460t-67 -255h-213q-74 0 -74 27q-1 4 25 126q76 366 77 578q0 213 -35 291q-36 78 -118 78
q-213 0 -213 -465q0 -330 34 -520q11 -68 11 -82q0 -33 -59 -33h-203q-31 0 -35 4q-21 20 -23 234q-2 212 -2 460z" />
    <glyph glyph-name="i" unicode="i" horiz-adv-x="544" 
d="M274 1470q-66 0 -112 36t-45 100q0 64 47 102q47 39 110 39q62 0 110 -39t48 -102q0 -64 -46 -100t-112 -36zM94 678q0 254 4 341t6 134t11 77q8 30 10 47t14 25q11 8 15 10q4 1 20 0t21 -1h112q61 0 75 -5q14 -4 13 -24q0 -20 -12 -133t-12 -251q0 -428 71 -801
q8 -42 9 -54t-15 -30q-15 -17 -52 -15q-36 2 -78 2t-104 -1t-77 24q-29 49 -31 415v240z" />
    <glyph glyph-name="j" unicode="j" horiz-adv-x="618" 
d="M340 1470q-66 0 -112 36t-46 100t47 102q47 39 111 39t110 -39q48 -39 48 -102q0 -64 -46 -100t-112 -36zM260 1311h195q70 0 69 -807q0 -381 -164 -488q-72 -47 -156 -47t-144 23t-60 71q0 72 19 166t57 95q16 0 40 -26t48 -26t38 14q15 14 30 96q16 81 16 215t-22 388
t-21 287q0 39 55 39z" />
    <glyph glyph-name="k" unicode="k" horiz-adv-x="1052" 
d="M655 1268q0 43 28 43h123q42 0 61 1t36 -2q29 -4 29 -44q0 -96 -35 -192t-77 -153t-77 -105t-35 -62t24 -36q22 -22 66 -60q247 -214 246 -603q0 -24 -5 -30q-5 -7 -7 -11q-6 -15 -37 -14h-24h-183q-39 0 -57 7q-18 8 -18 56q0 131 -37 254t-82 190t-78 67t-77 -34
q-44 -32 -44 -96q0 -176 39 -355q12 -54 12 -64q0 -25 -51 -25h-235q-63 0 -64 733q0 1014 84 1014h219q49 0 50 -45q-1 -4 -19 -87t-38 -261t-19 -378q0 -200 26 -200q35 0 96 75q60 75 110 195t50 222z" />
    <glyph glyph-name="l" unicode="l" horiz-adv-x="526" 
d="M467 25q0 -31 -59 -26q-13 1 -17 1h-215q-63 0 -63 733q0 1014 84 1014h168q75 0 89 -8q21 -11 21 -31l-8 -39q-45 -176 -62 -406q-16 -229 -16 -459t26 -442t39 -273q13 -60 13 -64z" />
    <glyph glyph-name="m" unicode="m" horiz-adv-x="1730" 
d="M428 29q0 -29 -33 -29h-144q-51 0 -67 -1q-46 -3 -53 27q-4 15 -12 40q-8 26 -11 66q-2 40 -8 110t-6 470t6 476q12 141 68 170q42 18 154 18t112 -33l-24 -92q0 -14 12 -24t26 -10t26 6q13 6 36 19t39 22q86 47 192 47q55 0 126 -47t91 -47q59 1 141 47q81 46 163 46
t142 -28q60 -29 98 -70q38 -42 66 -112t46 -149q22 -101 22 -345v-51q0 -435 -47 -512q-10 -18 -19 -32t-34 -13l-37 2h-139q-78 0 -78 33q0 6 20 88q56 243 58 516q0 432 -217 432q-31 0 -43 -2t-36 -18q-24 -15 -34 -49q-26 -87 -26 -320q0 -232 -2 -371t-13 -215
q-10 -76 -21 -85t-40 -9h-185q-8 0 -22 -1q-15 -1 -21 0t-14 2t-11 6t-3 13t38 249t39 350q3 321 -71 407q-37 43 -96 43q-211 0 -211 -494q0 -327 43 -479q14 -53 14 -67z" />
    <glyph glyph-name="n" unicode="n" horiz-adv-x="1130" 
d="M469 1339q0 -9 -9 -33t-9 -40q0 -39 30 -39q6 0 94 42t166 42q29 0 55 -4t74 -34t80 -83q86 -140 86 -462q-2 -583 -52 -680q-20 -38 -32 -43t-76 -5h-122q-69 0 -84 6t-15 18t12 50q93 313 93 667q0 237 -70 299q-33 29 -76 29q-44 0 -78 -16q-103 -48 -141 -199
q-56 -221 21 -726q14 -97 14 -101q0 -27 -74 -27t-142 -1q-67 -1 -82 18q-38 48 -38 488t21 617t62 219q42 42 120 35h115q58 0 57 -37z" />
    <glyph glyph-name="o" unicode="o" horiz-adv-x="1114" 
d="M557 311q74 0 127 38q53 39 81 101q52 116 52 260t-53 254q-29 60 -82 98t-125 38t-125 -38t-82 -98q-53 -110 -53 -254q0 -145 52 -260q28 -62 81 -100t127 -39zM557 -31q-92 0 -180 41t-165 121t-123 217t-46 310t52 324t172 255t290 104t290 -104q224 -194 224 -580
q0 -172 -46 -309t-123 -217t-165 -121t-180 -41z" />
    <glyph glyph-name="p" unicode="p" horiz-adv-x="1075" 
d="M381 412v-54q-1 -111 19 -217t20 -112q0 -29 -66 -29h-168q-41 0 -54 8t-26 82q-12 74 -12 244v602q0 213 10 253q10 41 19 67q8 26 21 36q12 10 30 24t41 16q23 1 53 7t64 2q35 -4 78 -2t65 2q573 0 574 -432q1 -115 -51 -235q-95 -220 -280 -349q-81 -56 -140 -57
q-35 0 -109 88q-8 8 -18 22t-18 21q-7 9 -17 21q-10 13 -23 12q-12 0 -12 -20zM465 530q133 0 231 106t98 222q0 114 -69 178q-70 64 -168 64q-41 0 -63 -4t-49 -26q-28 -22 -41 -64q-33 -105 -33 -322q0 -47 3 -74q4 -28 26 -54t65 -26z" />
    <glyph glyph-name="q" unicode="q" horiz-adv-x="1075" 
d="M655 29q-1 6 19 107t20 171v105q0 20 -11 20t-40 -33q-28 -33 -37 -43q-74 -88 -108 -88q-58 0 -140 56t-156 144q-74 87 -124 207q-51 120 -51 234q0 432 573 432h136q119 0 145 -13t49 -36q24 -22 28 -48t14 -79t9 -229v-602q0 -304 -38 -326q-13 -8 -54 -8h-168
q-66 0 -66 29zM610 530q43 0 66 27q24 27 26 53q12 129 -3 242t-28 155q-13 41 -41 63t-50 26t-62 4q-98 0 -168 -64t-69 -162q0 -132 98 -238t231 -106z" />
    <glyph glyph-name="r" unicode="r" horiz-adv-x="872" 
d="M687 1341q73 0 129 -59t56 -149t-61 -156t-117 -66q-6 0 -12 34t-35 69t-90 35q-184 0 -184 -400q0 -328 52 -539q17 -73 17 -77q-1 -33 -69 -33h-164q-3 0 -23 -1t-22 1t-17 9q-14 7 -16 23t-12 47q-10 30 -11 75q0 45 -6 124t-6 268q0 190 -2 408t4 286t39 71h170
q3 0 17 1t29 -1q24 -4 24 -29q6 -68 49 -70q17 0 34 12t25 16q9 5 25 18q104 83 177 83z" />
    <glyph glyph-name="s" unicode="s" horiz-adv-x="1058" 
d="M979 387q0 -193 -136 -305q-137 -112 -321 -113q-184 1 -313 99t-129 268q0 96 42 185q15 34 23 34q3 0 13 -32t34 -77t59 -91q37 -45 101 -77t141 -32t132 38t55 102t-57 106t-139 76q-82 32 -162 73t-138 122q-57 81 -57 193q0 180 123 282t299 103q90 0 190 -31
t180 -116q28 -31 27 -47q0 -33 -64 -119t-98 -86q-16 0 -35 25t-39 55t-68 54t-108 24t-106 -24q-47 -24 -47 -74q0 -88 211 -185q88 -41 176 -91t150 -137t61 -202z" />
    <glyph glyph-name="t" unicode="t" horiz-adv-x="743" 
d="M387 1568q113 42 163 42t-7 -157q-31 -83 -31 -91q0 -61 41 -62l78 11q53 0 66 -30t14 -95q0 -106 -43 -107q-6 -1 -40 9t-65 10t-55 -20q-39 -34 -45 -165q-2 -41 -2 -161q0 -268 34 -406q34 -137 57 -182q23 -44 23 -49q1 -23 -123 -84t-161 -62q-51 0 -75 208
q-24 209 -24 341t4 220q3 88 6 133q3 46 3 57l2 72q0 98 -76 98q-20 0 -45 -12t-39 -13q-14 0 -17 13t-3 51q1 109 29 141t94 33l38 -8q24 0 32 10q32 38 41 111q1 8 4 26t3 25q6 51 119 93z" />
    <glyph glyph-name="u" unicode="u" horiz-adv-x="1138" 
d="M766 1311h190q88 0 88 -625q0 -462 -26 -563q-10 -39 -14 -66t-20 -44t-22 -26q-14 -18 -52 -18h-89q-51 -1 -78 17t-20 41q15 57 -47 57q-12 0 -103 -68q-79 -47 -151 -47t-125 28q-53 27 -101 97q-102 148 -102 568q0 104 14 283q28 366 87 366h188q4 0 18 1t33 -1
t25 -11q6 -8 6 -15t-24 -85q-23 -78 -47 -224t-23 -319q0 -426 174 -426q223 0 223 461q0 212 -53 488q-18 98 -19 106q0 25 70 25z" />
    <glyph glyph-name="v" unicode="v" horiz-adv-x="1056" 
d="M752 1310q2 1 47 1h116q70 -1 84 -17t15 -100q0 -242 -47 -456t-114 -349t-141 -234t-130 -143q-54 -44 -76 -43q-22 0 -70 41q-48 42 -116 142t-130 239q-61 139 -104 367t-43 489q0 43 10 53t53 11h158l36 2q52 0 52 -35l-10 -180q0 -383 108 -599q52 -104 89 -104
t84 84t84 247t36 349l-12 193l2 22q0 4 3 7t4 5t6 5z" />
    <glyph glyph-name="w" unicode="w" horiz-adv-x="1478" 
d="M862 1311q45 0 45 -26q0 -5 -9 -102t-9 -217q1 -120 27 -270t58 -222t56 -71q24 0 61 83q35 82 63 226t28 254t-14 204q-13 93 -13 110q-1 31 57 31h112q54 0 66 -2q12 -3 27 -23t17 -59t2 -119q0 -208 -42 -402t-102 -322t-128 -226q-67 -98 -114 -144q-48 -45 -67 -45
q-59 0 -190 275q0 2 -8 16q-7 14 -14 30q-31 68 -50 68q-16 0 -53 -74t-112 -195q-75 -120 -112 -120q-20 0 -65 50q-45 51 -103 151q-136 233 -197 544q-36 183 -36 343t7 182q7 21 9 33t11 19q8 7 12 13t65 7h170q41 -4 45 -19q4 -9 -8 -59t-12 -210q0 -159 26 -311
t56 -230q30 -79 49 -79q33 0 76 83q97 187 92 573l-12 219q0 33 30 33h203z" />
    <glyph glyph-name="x" unicode="x" horiz-adv-x="1044" 
d="M291 654q0 18 -33 66t-74 104t-73 167q-33 111 -33 205t13 104t71 11h149q49 -1 57 -11t9 -32q0 -166 56 -286t108 -120q18 0 44 31t54 117q29 86 37 207q2 14 5 34q3 19 3 25q0 34 48 35h134q37 0 50 -2q36 -6 36 -68q0 -113 -37 -214t-79 -157t-80 -101
q-37 -45 -37 -67t43 -70t93 -102t93 -168q43 -112 43 -224q-1 -112 -11 -125t-86 -13h-170q-32 0 -32 43q0 123 -41 233t-87 162q-46 53 -77 54q-47 0 -102 -119t-55 -279q0 -66 -12 -80t-81 -14h-116q-45 0 -47 2t-7 3t-7 5q-1 4 -3 8t-2 12l-2 36q0 120 37 230t82 174
t82 116q37 50 37 68z" />
    <glyph glyph-name="y" unicode="y" horiz-adv-x="1050" 
d="M965 1311q32 0 32 -81v-79q7 -219 -69 -437t-202 -380t-292 -263t-332 -102q-33 1 -41 19t-8 59v180q0 84 60 84q106 0 179 22q118 36 118 81q0 20 -37 59q-128 135 -187 226q-133 206 -133 515q0 72 9 84t88 12t176 1q45 0 45 -37q1 -10 -9 -64t-10 -114t32 -149
q51 -143 155 -252q39 -40 55 -40q57 -1 97 135t40 232t-11 173t-11 85q0 31 49 31h207z" />
    <glyph glyph-name="z" unicode="z" horiz-adv-x="956" 
d="M813 0h-528q-179 0 -191 1t-24 10q-17 14 -17 46q0 171 77 351t168 299t168 213t77 108q0 41 -98 41q-97 0 -171 -27t-75 -26q-29 0 -58 116t-29 139t13 35q12 12 55 5h503q169 0 188 -2t21 -11q3 -8 7 -16t4 -35q0 -199 -22 -241q-23 -42 -145 -188q-318 -378 -318 -531
q0 -29 17 -37t95 -8t145 16t93 32t35 15q25 0 57 -120t33 -156q0 -29 -80 -29z" />
    <glyph glyph-name="braceleft" unicode="{" horiz-adv-x="819" 
d="M768 25q0 -31 -261 -26q-46 1 -50 1h-17q-52 0 -76 2t-61 20t-54 55q-46 97 -46 258q-1 161 -13 257t-31 142q-40 97 -84 109t-44 21q-1 15 31 23q56 14 98 115q41 101 42 332q1 232 47 324q17 36 55 54q49 23 117 23h38q2 0 48 1t82 0q35 -1 107 -3t72 -23
q0 -58 -79 -60t-161 -42q-36 -18 -60 -72t-24 -126t12 -176t13 -164q0 -62 -34 -108q-33 -46 -67 -68t-34 -28t34 -28t68 -66q34 -45 33 -107q0 -61 -12 -165q-13 -104 -13 -175t24 -125t60 -73q82 -40 138 -42q54 -1 78 -15t24 -45z" />
    <glyph glyph-name="bar" unicode="|" horiz-adv-x="698" 
d="M211 1937h272v-2582h-272v2582z" />
    <glyph glyph-name="braceright" unicode="}" horiz-adv-x="819" 
d="M51 1710q0 31 261 26q46 -1 50 -1h17q51 0 76 -2q25 -3 61 -21t54 -54q46 -97 46 -258q0 -290 42 -394t86 -116t44 -24t-32 -20q-56 -14 -97 -114t-42 -333t-47 -322q-17 -36 -55 -54q-49 -23 -117 -23h-38q-2 0 -48 -1t-82 0l-108 3t-71 23q0 58 81 60t159 42
q37 19 61 73t23 124t-13 174t-12 166t34 107q34 46 68 68q34 21 34 27t-34 28t-68 68t-34 107t12 165t12 175q0 72 -23 126q-24 54 -60 73q-78 38 -159 41t-81 61z" />
    <glyph glyph-name="asciitilde" unicode="~" 
d="M382 846q85 0 130 -20t79 -40t49 -26t39 -25q72 -53 129 -53q56 0 97 40t90 122l111 -96q-49 -111 -129 -180t-172 -68q-105 0 -223 78q-60 40 -97 65q-37 24 -86 24q-49 1 -77 -11q-49 -22 -132 -152l-112 98q51 106 135 175t169 69z" />
    <glyph glyph-name="uni00A0" unicode="&#xa0;" horiz-adv-x="593" 
 />
    <glyph glyph-name="exclamdown" unicode="&#xa1;" horiz-adv-x="665" 
d="M446 0h-272q-72 0 -72 39q0 6 41 98q41 91 81 233t40 267t-16 309l-17 184q0 29 144 29q63 0 125 -330q62 -329 61 -543q0 -214 -20 -249q-9 -15 -13 -23t-16 -11t-17 -4t-23 0t-26 1zM331 1735q95 0 163 -66t68 -160q0 -93 -70 -159q-68 -66 -162 -66t-161 66t-67 158
t67 160q67 67 162 67z" />
    <glyph glyph-name="cent" unicode="&#xa2;" 
d="M748 1692q72 0 71 -52q0 -20 -10 -46t-10 -40t10 -14q80 0 155 -61q74 -61 74 -129t-30 -129t-80 -62q-12 0 -39 35q-83 108 -131 106q-45 -461 -45 -523t24 -271q72 0 127 30t80 66q26 36 42 66t21 30t17 -24t12 -99q0 -199 -151 -316q-66 -50 -97 -50q-6 0 -15 -13
q-9 -14 -9 -22t26 -41t25 -47q0 -25 -58 -43t-89 -18t-43 13t-22 61q-11 47 -11 51q-12 38 -61 38q-108 -1 -237 141q-62 69 -104 193t-40 283q0 160 38 293q65 220 215 345q114 93 193 93q20 0 37 58q16 58 26 69q43 29 89 29zM426 860q0 -240 147 -325l-8 276q0 94 19 272
q18 178 20 199q-88 -51 -133 -175t-45 -247z" />
    <glyph glyph-name="sterling" unicode="&#xa3;" 
d="M799 1024q82 0 82 -61q0 -31 -36 -106t-79 -75q-25 0 -78 12t-79 13q-25 -1 -25 -23t22 -84t21 -172q0 -112 -64 -202q73 22 99 22t92 -18t114 -19q82 -3 128 53t54 124t14 126q7 57 19 58q18 0 42 -34t43 -104q20 -70 20 -168t-32 -183t-82 -129q-94 -83 -197 -84
t-217 40t-206 41t-184 -41t-156 -41q-64 -1 -77 13q-14 14 -22 20q-7 6 -10 24t-4 22q-1 5 -1 26l2 18v129q0 74 28 92q15 10 40 11l125 -13q83 -6 119 37t36 154t-32 208t-66 97t-97 -12q-62 -13 -89 -13t-53 18q-25 18 -25 49t30 103t68 72q12 0 35 -11t31 -12q23 0 22 66
q0 6 -11 42t-11 81q0 225 140 363t353 139q109 0 199 -30t141 -73q107 -90 107 -147q0 -28 -92 -94t-117 -66q-24 0 -45 23q-20 23 -38 51t-60 52q-42 22 -106 22t-123 -66q-60 -66 -60 -174q-1 -108 31 -149q32 -40 91 -40z" />
    <glyph glyph-name="currency" unicode="&#xa4;" horiz-adv-x="1222" 
d="M612 1143h-4q-102 0 -171 -90q-69 -89 -69 -227t70 -226q68 -88 173 -88t174 88t69 225t-69 227t-173 91zM180 834q0 190 99 305l-154 164l119 110l135 -168q92 84 234 84t233 -82l137 170l115 -114l-156 -164q102 -115 102 -309t-104 -318l158 -170l-115 -109l-143 170
q-94 -77 -234 -77t-227 80l-137 -173l-119 109l153 168q-96 134 -96 324z" />
    <glyph glyph-name="yen" unicode="&#xa5;" 
d="M915 1661h159q72 0 92 -24t20 -85q0 -150 -50 -288t-110 -222q-60 -82 -110 -150t-50 -93q0 -17 61 -17l93 2q45 0 87 -82t42 -114q1 -32 -19 -39q-20 -6 -82 -6q-62 -1 -133 23q-72 24 -100 24q-143 0 -143 -420q0 -20 11 -68t11 -82q0 -22 -128 -36t-195 -15
q-31 -1 -47 53t-16 126t22 156q23 83 46 128q24 45 23 60q-2 54 -17 76q-16 22 -62 22t-109 -23q-53 -25 -88 -24q-102 0 -103 196q0 31 34 38t80 7h54q80 0 90 12t9 25q0 13 -44 75t-99 143q-54 81 -98 221t-44 252q0 114 23 132t98 17h113q96 0 112 -33q4 -8 4 -20
l-18 -160q0 -135 53 -270t113 -211t93 -76q31 0 101 89t131 227t62 251q0 38 -9 102t-10 66q0 35 47 35z" />
    <glyph glyph-name="brokenbar" unicode="&#xa6;" horiz-adv-x="698" 
d="M211 453h272v-904h-272v904zM211 1745h272v-903h-272v903z" />
    <glyph glyph-name="section" unicode="&#xa7;" horiz-adv-x="1245" 
d="M387 874v-2q0 -59 47 -99t156 -77q184 -70 221 -94q63 35 63 131q0 129 -190 193q-160 53 -217 80q-80 -50 -80 -132zM748 1503q-124 0 -180 -35t-56 -90t62 -94t208 -88q188 -78 274 -171t85 -230q0 -172 -166 -312q43 -33 71 -99t27 -128q0 -127 -74 -222
q-142 -182 -406 -183q-265 -1 -409 94l58 233q49 -34 135 -62t174 -28q89 0 153 38t64 107t-55 103t-231 89q-176 56 -274 149q-97 93 -97 249q0 88 50 171t142 126q-96 102 -96 230q0 193 134 294t338 101t347 -74l-49 -231q-104 63 -229 63z" />
    <glyph glyph-name="dieresis" unicode="&#xa8;" horiz-adv-x="1161" 
d="M346 1450q-78 0 -130 44t-52 120t52 120t130 44t130 -44t52 -120t-52 -120t-130 -44zM815 1450q-78 0 -130 44t-52 120t52 120t130 44t130 -44t52 -120t-52 -120t-130 -44z" />
    <glyph glyph-name="copyright" unicode="&#xa9;" horiz-adv-x="1900" 
d="M950 164q324 0 506 182t182 506t-182 506t-506 182t-506 -182t-182 -506t182 -506t506 -182zM950 -31q-422 1 -652 231t-230 652t230 652t652 230t652 -230t231 -652q-1 -422 -231 -652t-652 -231zM950 324q-214 0 -328 150t-114 360t129 380t356 170q107 0 199 -45
t92 -133q0 -131 -133 -131q-20 0 -24 29q-3 30 -29 58t-99 28q-133 0 -191 -91t-58 -239t78 -222t192 -73q113 0 179 64q46 45 66 80q19 36 21 36q12 0 20 -49t9 -84q0 -132 -109 -210t-256 -78z" />
    <glyph glyph-name="ordfeminine" unicode="&#xaa;" horiz-adv-x="819" 
d="M442 872q-104 0 -181 24t-116 54t-67 85q-28 54 -27 120q0 109 109 192t233 103q84 0 84 43q0 59 -125 59q-70 0 -116 -61q-16 -20 -27 -21q-63 0 -100 35t-37 91t69 104q70 47 164 47l125 2q95 -1 140 -21q96 -44 135 -114q27 -51 26 -539l10 -174q0 -29 -299 -29z
M489 1171v86q0 32 -15 38t-54 7t-83 -36t-44 -75q0 -75 121 -77q75 0 75 57z" />
    <glyph glyph-name="guillemotleft" unicode="&#xab;" horiz-adv-x="1245" 
d="M399 1138q10 14 31 13q21 0 80 -39q60 -39 68 -44q54 -31 53 -58q0 -27 -51 -88l-177 -224q-31 -37 -31 -51t31 -51l177 -223q51 -61 51 -85t-21 -39t-38 -27q-16 -11 -71 -45q-55 -33 -73 -34t-28 13q-11 14 -15 19l-244 368q-39 53 -39 105t39 104l232 350q8 12 12 17
t14 19zM911 1138q10 14 31 13q21 0 80 -39q60 -39 68 -44q54 -31 53 -58q0 -27 -51 -88l-177 -224q-31 -37 -31 -51t31 -51l177 -223q51 -61 51 -85t-21 -39t-38 -27q-16 -11 -71 -45q-55 -33 -73 -34t-28 13q-11 14 -15 19l-244 368q-39 53 -39 105t39 104l232 350
q8 12 12 17t14 19z" />
    <glyph glyph-name="logicalnot" unicode="&#xac;" 
d="M1083 324h-188v471h-791v190h979v-661z" />
    <glyph glyph-name="uni00AD" unicode="&#xad;" horiz-adv-x="512" 
d="M397 514h-303q-2 0 -21 -1q-52 -3 -62 10q-11 13 -11 41t32 120t83 92h303q2 0 21 1q52 3 62 -10q11 -13 11 -41t-32 -120t-83 -92z" />
    <glyph glyph-name="registered" unicode="&#xae;" horiz-adv-x="1900" 
d="M950 164q324 0 506 182t182 506t-182 506t-506 182t-506 -182t-182 -506t182 -506t506 -182zM950 -31q-422 1 -652 231t-230 652t230 652t652 230t652 -230t231 -652q-1 -422 -231 -652t-652 -231zM659 1370h383q184 0 260 -66q75 -67 74 -163q0 -66 -35 -121t-77 -84
q-42 -30 -76 -54q-35 -24 -35 -32t41 -52t91 -102t91 -149q41 -92 41 -185q0 -14 -33 -14h-196q-49 0 -53 14q-17 138 -77 264t-97 126t-87 -37t-51 -80q0 -75 37 -223l12 -50q0 -14 -72 -14h-169q-35 0 -41 21q-29 84 -29 415l12 365q11 139 31 180t55 41zM1135 1116
q0 107 -169 107q-79 1 -118 -51t-39 -203q0 -76 43 -76q51 0 167 74t116 149z" />
    <glyph glyph-name="macron" unicode="&#xaf;" horiz-adv-x="1024" 
d="M674 1450h-344q-2 0 -38 -2t-46 11t-10 40t31 110q32 83 83 83h344q2 0 22 1q72 4 72 -37q0 -40 -32 -123t-82 -83z" />
    <glyph glyph-name="degree" unicode="&#xb0;" horiz-adv-x="847" 
d="M416 1589h-2q-80 1 -129 -69t-49 -182t50 -184t133 -71q83 0 131 69q48 68 48 182t-46 184t-136 71zM414 1714h4q152 0 242 -110t92 -276q0 -165 -98 -266t-238 -101q-141 0 -237 101q-95 101 -95 272t96 276q97 104 234 104z" />
    <glyph glyph-name="plusminus" unicode="&#xb1;" 
d="M1083 -18h-972v188h972v-188zM1073 745h-387v-475h-192v475h-392v193h392v455h192v-455h387v-193z" />
    <glyph glyph-name="twosuperior" unicode="&#xb2;" horiz-adv-x="716" 
d="M274 947q0 -17 25 -17l31 4q30 6 54 6t71 -12t63 -13q94 0 94 78q0 10 -6 30t0 26q6 -1 24 -21t34 -66t16 -100q0 -86 -64 -147t-131 -62q-31 1 -115 17t-117 16q-34 0 -95 -16t-74 -17q-51 0 -51 66q0 117 46 210t111 150q66 57 131 105t111 100t45 106q1 54 -25 80
t-86 27q-60 0 -108 -41t-76 -82q-27 -41 -35 -41t-51 69t-43 79q0 59 91 135t224 76q134 0 224 -71t90 -187t-64 -204q-64 -89 -140 -137q-76 -49 -140 -89t-64 -57z" />
    <glyph glyph-name="threesuperior" unicode="&#xb3;" horiz-adv-x="716" 
d="M406 1432q0 60 -177 12q-78 -22 -91 -21t-35 93q-21 92 -21 118t30 27h511q43 0 43 -35q0 -88 -50 -171t-101 -132q-50 -49 -50 -57t49 -31t86 -55q82 -70 82 -209q0 -140 -94 -240t-252 -100q-86 0 -161 33q-75 34 -107 64t-33 39t65 111t75 103q9 0 31 -22
q68 -68 123 -67q56 1 84 31t27 66q0 158 -213 174q-47 0 -47 24t113 126t113 119z" />
    <glyph glyph-name="acute" unicode="&#xb4;" horiz-adv-x="788" 
d="M540 1829q15 0 39 1q107 4 107 -48q0 -27 -78 -120t-181 -178t-161 -79q-27 -1 -27 13t25 55l156 290q8 17 14 25t10 17t12 13t12 7q5 4 32 4h40z" />
    <glyph glyph-name="mu" unicode="&#xb5;" horiz-adv-x="1138" 
d="M578 334q-133 0 -165 -20t-32 -74q0 -55 39 -211q0 -29 -66 -29h-168q-41 0 -54 8t-26 82q-12 74 -12 244v500q0 477 101 477h188q4 0 18 1t33 -1t25 -11q6 -8 6 -18t-24 -74q-72 -190 -71 -336q1 -147 55 -204q106 -112 254 -11q38 27 62 93q49 130 10 330
q-17 86 -35 142t-20 64q0 25 70 25h190q63 0 75 -196q13 -196 13 -351q0 -365 -32 -419t-58 -60t-55 -6h-68q-40 0 -65 10q-44 18 -30 70q14 53 -25 55q-7 0 -51 -40t-82 -40z" />
    <glyph glyph-name="paragraph" unicode="&#xb6;" horiz-adv-x="1193" 
d="M684 -125h-199v789h-18q-123 0 -249 106q-62 54 -100 156t-38 237q2 267 164 415t483 148q205 0 307 -26v-1825h-200v1643h-150v-1643z" />
    <glyph glyph-name="periodcentered" unicode="&#xb7;" horiz-adv-x="593" 
d="M296 463q-95 1 -162 67q-66 66 -66 159t66 159q67 66 161 66t163 -66q68 -66 68 -160t-67 -160q-68 -65 -163 -65z" />
    <glyph glyph-name="cedilla" unicode="&#xb8;" horiz-adv-x="1024" 
d="M231 -223q0 37 162 151t242 117q47 -3 98 0q52 3 59 -4q7 -9 7 -19t-30 -32q-89 -64 -89 -109q0 -15 39 -33q115 -52 115 -133q0 -80 -86 -137t-186 -81q-100 -23 -179 -23q-78 0 -78 26q0 14 82 52t82 79q0 45 -37 74t-82 37q-119 21 -119 35z" />
    <glyph glyph-name="onesuperior" unicode="&#xb9;" horiz-adv-x="716" 
d="M131 1558q0 16 36 48q35 30 101 58t129 28q106 0 107 -45q0 -6 -18 -116t-19 -227q1 -118 23 -318t22 -249q0 -27 -95 -47t-131 -20t-42 7q-19 22 -19 281l15 459q0 67 -82 111q-27 14 -27 30z" />
    <glyph glyph-name="ordmasculine" unicode="&#xba;" horiz-adv-x="819" 
d="M410 1153q147 0 147 199q0 84 -35 142q-36 58 -112 58t-112 -58t-36 -142t35 -142t113 -57zM410 891q-162 1 -276 109t-114 325q0 166 100 294t290 128t289 -128t100 -294q1 -217 -113 -325t-276 -109z" />
    <glyph glyph-name="guillemotright" unicode="&#xbb;" horiz-adv-x="1245" 
d="M1143 648q0 -52 -39 -105l-223 -338q-9 -12 -26 -37t-37 -25q-19 0 -66 30t-87 55q-51 32 -51 58t52 87l176 223q31 37 30 51q0 14 -30 51l-176 224q-52 62 -52 84t12 32l23 18q11 7 19 12t69 44t74 39q14 0 22 -4t48 -57l223 -338q39 -52 39 -104zM631 648
q0 -52 -39 -105l-223 -338q-9 -12 -26 -37t-37 -25q-19 0 -66 30t-87 55q-51 32 -51 58t52 87l176 223q31 37 30 51q0 14 -30 51l-176 224q-52 62 -52 84t12 32l23 18q11 7 19 12t69 44t74 39q14 0 22 -4t48 -57l223 -338q39 -52 39 -104z" />
    <glyph glyph-name="onequarter" unicode="&#xbc;" horiz-adv-x="1775" 
d="M518 676h-260v768h-6l-141 -70l-54 185l224 114h237v-997zM518 -20h-201l783 1701h200zM1315 403v177q0 106 4 153l-4 4q-59 -106 -62 -110l-166 -221l3 -3h225zM1556 0h-241v215h-406v160l402 624h245v-596h121v-188h-121v-215z" />
    <glyph glyph-name="onehalf" unicode="&#xbd;" horiz-adv-x="1855" 
d="M1063 0v158l154 159q135 133 189 210t54 135t-37 93q-37 36 -119 36t-171 -66l-60 188q49 37 138 66t186 29q149 0 241 -81t93 -214q1 -70 -17 -127q-18 -58 -68 -120t-82 -94t-114 -110l-55 -37v-6h348v-219h-680zM518 676h-260v768h-6l-141 -70l-54 185l224 114h237
v-997zM518 -20h-201l781 1701h200z" />
    <glyph glyph-name="threequarters" unicode="&#xbe;" horiz-adv-x="1898" 
d="M370 1686q166 0 256 -67t91 -181q0 -158 -187 -234v-6q90 -14 154 -82t64 -149q0 -135 -106 -219t-290 -84q-84 0 -169 16t-124 41l43 190q82 -53 178 -53t147 35q50 35 50 92t-60 93t-155 36h-59v172h53q84 0 141 29t58 76q0 98 -146 98q-90 0 -170 -53l-45 184
q110 66 276 66zM643 -20h-203l783 1701h200zM1440 403v177q0 106 4 153l-4 4q-38 -76 -62 -112l-168 -219l2 -3h228zM1679 0h-239v215h-406v160l402 624h243v-596h121v-188h-121v-215z" />
    <glyph glyph-name="questiondown" unicode="&#xbf;" horiz-adv-x="983" 
d="M838 1509q0 -93 -68 -159t-163 -66t-162 67t-67 159t67 159q67 66 161 66t163 -66t69 -160zM713 1079v-147q0 -152 -110 -243q-46 -38 -92 -73q-110 -84 -110 -208q0 -70 37 -123q36 -53 96 -53t97 31q37 32 57 64q20 31 34 31t87 -82q72 -82 72 -100q0 -57 -108 -132
t-236 -75q-187 1 -311 145t-124 337q0 102 42 189t102 143q60 57 118 103q60 46 102 91t42 75t1 42t2 21t7 14t9 9q5 6 46 5h70q50 0 54 -6q16 -21 16 -58z" />
    <glyph glyph-name="Agrave" unicode="&#xc0;" horiz-adv-x="1429" 
d="M424 2172q0 41 35 48t65 5q30 -1 46 -1h31q35 0 41 -4q5 -4 12 -7q8 -3 12 -12t10 -17t14 -25l156 -291q24 -41 24 -54t-26 -14q-56 -6 -160 79t-182 178t-78 115zM774 1384q-82 0 -206 -181t-124 -294q0 -39 39 -39l154 27q155 27 237 27t106 13t24 54q0 97 -86 245
t-144 148zM983 0q-78 0 -78 25q0 18 39 95q119 235 119 400q0 66 -52 96t-128 31q-483 0 -484 -266q0 -118 101 -299q33 -59 32 -68q0 -14 -38 -14h-293q-133 0 -133 451q0 248 64 469q65 221 156 364q91 144 193 250t177 154t105 47q30 0 91 -36q60 -36 150 -130
q90 -93 168 -227t134 -358t56 -488t-19 -349q-19 -86 -32 -104q-12 -18 -23 -31t-37 -14l-39 2h-229z" />
    <glyph glyph-name="Aacute" unicode="&#xc1;" horiz-adv-x="1429" 
d="M923 2224q15 0 65 2t66 -15q15 -17 15 -39t-78 -115t-181 -178t-161 -79q-27 0 -26 15q-1 12 24 53l156 291q8 16 14 24q6 7 10 17q3 10 11 13t13 7t32 4h40zM774 1384q-82 0 -206 -181t-124 -294q0 -39 39 -39l154 27q155 27 237 27t106 13t24 54q0 97 -86 245t-144 148
zM983 0q-78 0 -78 25q0 18 39 95q119 235 119 400q0 66 -52 96t-128 31q-483 0 -484 -266q0 -118 101 -299q33 -59 32 -68q0 -14 -38 -14h-293q-133 0 -133 451q0 248 64 469q65 221 156 364q91 144 193 250t177 154t105 47q30 0 91 -36q60 -36 150 -130q90 -93 168 -227
t134 -358t56 -488t-19 -349q-19 -86 -32 -104q-12 -18 -23 -31t-37 -14l-39 2h-229z" />
    <glyph glyph-name="Acircumflex" unicode="&#xc2;" horiz-adv-x="1429" 
d="M1149 1870q0 -6 -70 -43t-129 -37q-10 0 -43 27l-123 120q-46 47 -66 47t-63 -51l-75 -82q-60 -61 -84 -61t-78 25t-56 47q0 25 46 69l204 219q48 52 68 58t76 6t92 -33q14 -12 53 -53l221 -219q27 -23 27 -39zM774 1384q-82 0 -206 -181t-124 -294q0 -39 39 -39l154 27
q155 27 237 27t106 13t24 54q0 97 -86 245t-144 148zM983 0q-78 0 -78 25q0 18 39 95q119 235 119 400q0 66 -52 96t-128 31q-483 0 -484 -266q0 -118 101 -299q33 -59 32 -68q0 -14 -38 -14h-293q-133 0 -133 451q0 248 64 469q65 221 156 364q91 144 193 250t177 154
t105 47q30 0 91 -36q60 -36 150 -130q90 -93 168 -227t134 -358t56 -488t-19 -349q-19 -86 -32 -104q-12 -18 -23 -31t-37 -14l-39 2h-229z" />
    <glyph glyph-name="Atilde" unicode="&#xc3;" horiz-adv-x="1429" 
d="M555 2173q80 1 203 -49t177 -50q95 1 113 43q7 15 15 28t22 14q49 0 50 -27q1 -31 -21 -81t-52 -84q-30 -33 -90 -59t-143 -26t-213 48t-172 48q-68 0 -82 -55q-4 -18 -6 -18q-61 0 -61 28q-1 82 69 161t191 79zM774 1384q-82 0 -206 -181t-124 -294q0 -39 39 -39l154 27
q155 27 237 27t106 13t24 54q0 97 -86 245t-144 148zM983 0q-78 0 -78 25q0 18 39 95q119 235 119 400q0 66 -52 96t-128 31q-483 0 -484 -266q0 -118 101 -299q33 -59 32 -68q0 -14 -38 -14h-293q-133 0 -133 451q0 248 64 469q65 221 156 364q91 144 193 250t177 154
t105 47q30 0 91 -36q60 -36 150 -130q90 -93 168 -227t134 -358t56 -488t-19 -349q-19 -86 -32 -104q-12 -18 -23 -31t-37 -14l-39 2h-229z" />
    <glyph glyph-name="Adieresis" unicode="&#xc4;" horiz-adv-x="1429" 
d="M522 1845q-78 0 -130 44t-52 120t52 120t130 44t130 -44t52 -120t-52 -120t-130 -44zM991 1845q-78 0 -130 44t-52 120t52 120t130 44t130 -44q53 -44 53 -120t-52 -120t-131 -44zM774 1384q-82 0 -206 -181t-124 -294q0 -39 39 -39l154 27q155 27 237 27t106 13t24 54
q0 97 -86 245t-144 148zM983 0q-78 0 -78 25q0 18 39 95q119 235 119 400q0 66 -52 96t-128 31q-483 0 -484 -266q0 -118 101 -299q33 -59 32 -68q0 -14 -38 -14h-293q-133 0 -133 451q0 248 64 469q65 221 156 364q91 144 193 250t177 154t105 47q30 0 91 -36
q60 -36 150 -130q90 -93 168 -227t134 -358t56 -488t-19 -349q-19 -86 -32 -104q-12 -18 -23 -31t-37 -14l-39 2h-229z" />
    <glyph glyph-name="Aring" unicode="&#xc5;" horiz-adv-x="1429" 
d="M756 1909q48 0 76 33q28 32 28 78t-32 77t-74 31t-73 -32q-30 -32 -30 -77t29 -77t76 -33zM755 2255q109 0 181 -67t72 -167q0 -99 -74 -169t-179 -70t-178 70t-73 167q0 98 71 167q72 69 180 69zM774 1384q-82 0 -206 -181t-124 -294q0 -39 39 -39l154 27q155 27 237 27
t106 13t24 54q0 97 -86 245t-144 148zM983 0q-78 0 -78 25q0 18 39 95q119 235 119 400q0 66 -52 96t-128 31q-483 0 -484 -266q0 -118 101 -299q33 -59 32 -68q0 -14 -38 -14h-293q-133 0 -133 451q0 248 64 469q65 221 156 364q91 144 193 250t177 154t105 47q30 0 91 -36
q60 -36 150 -130q90 -93 168 -227t134 -358t56 -488t-19 -349q-19 -86 -32 -104q-12 -18 -23 -31t-37 -14l-39 2h-229z" />
    <glyph glyph-name="AE" unicode="&#xc6;" horiz-adv-x="2160" 
d="M2142 31q0 -38 -59 -31h-1100q-78 0 -78 25q0 17 33 81t66 175t32 239q0 72 -39 100t-114 27q-483 0 -484 -266q0 -118 101 -299q33 -59 32 -68q1 -14 -38 -14h-293q-133 0 -133 451q0 248 64 469q65 221 156 364q91 144 193 250t177 154t108 47q51 0 176 -111t162 -174
q23 106 34 154q10 48 32 72q22 26 34 27t58 1h757q98 0 99 -35q0 -15 -70 -159t-88 -144q-10 0 -44 24t-100 48t-170 24q-106 0 -209 -72t-103 -199q0 -126 63 -126q45 0 187 48t237 48q29 0 61 -10t31 -33q1 -10 -61 -173t-78 -163q-2 0 -67 20t-112 21q-94 -1 -177 -71
t-83 -202t69 -210t204 -78t297 102q53 34 69 33q20 0 94 -172t74 -194zM774 1384q-82 0 -206 -181t-124 -294q0 -39 39 -39l154 27q155 27 237 27t106 13t24 54q0 101 -86 247t-144 146z" />
    <glyph glyph-name="Ccedilla" unicode="&#xc7;" horiz-adv-x="1320" 
d="M381 -248q0 26 90 98t182 123q-147 15 -265 93t-190 194q-148 240 -147 545q0 354 187 631q90 135 235 217t311 82t307 -66q71 -33 115 -93t45 -143q0 -83 -56 -133t-155 -49q-28 0 -36 30t-13 67q-4 36 -49 66t-133 30q-141 0 -241 -89q-184 -163 -185 -472
q0 -139 44 -250q74 -188 255 -267q74 -32 156 -32t155 31q145 62 201 237q10 31 14 31q18 0 32 -76t13 -108q-1 -158 -75 -266t-191 -160q-158 -104 -158 -166q0 -15 38 -33q116 -53 116 -133t-86 -137q-158 -105 -369 -105q-74 0 -73 27q0 14 82 52t81 79q0 45 -36 74
q-37 29 -82 37q-119 20 -119 34z" />
    <glyph glyph-name="Egrave" unicode="&#xc8;" horiz-adv-x="1222" 
d="M442 2177q0 52 108 48q24 -1 39 -1h31q34 0 40 -4t13 -7t11 -12t10 -17t15 -25l155 -291q25 -41 25 -54t-27 -14q-56 -6 -160 79t-182 178t-78 120zM1204 31q0 -38 -59 -31h-957q-59 -2 -71 40q-13 42 -13 194t-1 314t65 659t106 497h807q98 0 99 -35q0 -15 -70 -159
t-88 -144q-10 0 -44 24t-100 48t-168 24q-104 0 -190 -72t-86 -198q0 -127 66 -127q18 0 150 48t233 48q29 0 61 -10t31 -33q1 -10 -61 -173t-78 -163q-2 0 -67 20t-112 21q-94 -1 -175 -71t-81 -202t67 -210t202 -78t297 102q53 34 69 33q20 0 94 -172t74 -194z" />
    <glyph glyph-name="Eacute" unicode="&#xc9;" horiz-adv-x="1222" 
d="M880 2224q15 0 65 2t66 -15q15 -17 15 -39t-78 -115t-181 -178t-161 -79q-27 0 -26 15q-1 12 24 53l156 291q8 16 14 24q6 7 10 17t12 13t12 7q5 4 32 4h40zM1204 31q0 -38 -59 -31h-957q-59 -2 -71 40q-13 42 -13 194t-1 314t65 659t106 497h807q98 0 99 -35
q0 -15 -70 -159t-88 -144q-10 0 -44 24t-100 48t-168 24q-104 0 -190 -72t-86 -198q0 -127 66 -127q18 0 150 48t233 48q29 0 61 -10t31 -33q1 -10 -61 -173t-78 -163q-2 0 -67 20t-112 21q-94 -1 -175 -71t-81 -202t67 -210t202 -78t297 102q53 34 69 33q20 0 94 -172
t74 -194z" />
    <glyph glyph-name="Ecircumflex" unicode="&#xca;" horiz-adv-x="1222" 
d="M656 2005q-20 0 -62 -51l-76 -82q-60 -62 -84 -62t-78 25t-55 49q0 24 45 68l205 219q49 51 69 57t74 6q55 0 81 -22t65 -64l221 -219q27 -23 26 -39q0 -6 -69 -42t-129 -38q-10 0 -43 27l-123 121q-47 47 -67 47zM1204 31q0 -38 -59 -31h-957q-59 -2 -71 40
q-13 42 -13 194t-1 314t65 659t106 497h807q98 0 99 -35q0 -15 -70 -159t-88 -144q-10 0 -44 24t-100 48t-168 24q-104 0 -190 -72t-86 -198q0 -127 66 -127q18 0 150 48t233 48q29 0 61 -10t31 -33q1 -10 -61 -173t-78 -163q-2 0 -67 20t-112 21q-94 -1 -175 -71t-81 -202
t67 -210t202 -78t297 102q53 34 69 33q20 0 94 -172t74 -194z" />
    <glyph glyph-name="Edieresis" unicode="&#xcb;" horiz-adv-x="1222" 
d="M377 1845q-78 0 -130 44t-52 120t52 120t130 44t130 -44t52 -120t-52 -120t-130 -44zM846 1845q-78 0 -130 44t-52 120t52 120t130 44t130 -44t52 -120t-52 -120t-130 -44zM1204 31q0 -38 -59 -31h-957q-59 -2 -71 40q-13 42 -13 194t-1 314t65 659t106 497h807
q98 0 99 -35q0 -15 -70 -159t-88 -144q-10 0 -44 24t-100 48t-168 24q-104 0 -190 -72t-86 -198q0 -127 66 -127q18 0 150 48t233 48q29 0 61 -10t31 -33q1 -10 -61 -173t-78 -163q-2 0 -67 20t-112 21q-94 -1 -175 -71t-81 -202t67 -210t202 -78t297 102q53 34 69 33
q20 0 94 -172t74 -194z" />
    <glyph glyph-name="Igrave" unicode="&#xcc;" horiz-adv-x="669" 
d="M43 2172q0 41 35 48t66 5q31 -1 46 -1h30q35 0 41 -4q5 -4 12 -7t11 -12t11 -17q6 -8 14 -25l156 -291q25 -41 25 -54t-27 -14q-57 -6 -161 79t-181 178q-78 93 -78 115zM517 1704q50 0 50 -33q0 -4 -11 -47q-97 -379 -97 -711q0 -453 92 -838q10 -46 10 -52
q0 -23 -31 -23h-233q-84 0 -95 4t-28 41q-47 109 -47 618q0 510 30 747q29 238 53 266t54 28h253z" />
    <glyph glyph-name="Iacute" unicode="&#xcd;" horiz-adv-x="669" 
d="M522 2224q14 0 38 1q78 3 98 -20q10 -11 10 -33t-78 -115t-181 -178t-161 -79q-27 0 -27 14t25 54l155 291q8 16 15 24q6 7 10 17t11 13t13 7t32 4h40zM517 1704q50 0 50 -33q0 -4 -11 -47q-97 -379 -97 -711q0 -453 92 -838q10 -46 10 -52q0 -23 -31 -23h-233
q-84 0 -95 4t-28 41q-47 109 -47 618q0 510 30 747q29 238 53 266t54 28h253z" />
    <glyph glyph-name="Icircumflex" unicode="&#xce;" horiz-adv-x="669" 
d="M768 1890q0 -6 -70 -42t-129 -38q-10 0 -43 27l-123 121q-47 47 -67 47t-62 -51l-75 -82q-61 -62 -85 -62t-78 25t-54 49t45 68l204 219q49 51 69 57t74 6q55 0 81 -22t65 -64l221 -219q27 -23 27 -39zM517 1704q50 0 50 -33q0 -4 -11 -47q-97 -379 -97 -711
q0 -453 92 -838q10 -46 10 -52q0 -23 -31 -23h-233q-84 0 -95 4t-28 41q-47 109 -47 618q0 510 30 747q29 238 53 266t54 28h253z" />
    <glyph glyph-name="Idieresis" unicode="&#xcf;" horiz-adv-x="669" 
d="M100 1845q-78 0 -130 44t-52 120t52 120t130 44t130 -44t52 -120t-52 -120t-130 -44zM569 1845q-78 0 -130 44t-52 120t52 120t130 44t130 -44q53 -44 53 -120t-52 -120t-131 -44zM517 1704q50 0 50 -33q0 -4 -11 -47q-97 -379 -97 -711q0 -453 92 -838q10 -46 10 -52
q0 -23 -31 -23h-233q-84 0 -95 4t-28 41q-47 109 -47 618q0 510 30 747q29 238 53 266t54 28h253z" />
    <glyph glyph-name="Eth" unicode="&#xd0;" horiz-adv-x="1372" 
d="M422 1069v-98h248q39 0 61 -47l45 -103q12 -25 12 -41q0 -31 -45 -30h-321q0 -347 114 -442q36 -30 66 -38t74 -8q92 0 195 97q118 113 118 399q0 154 -42 302q-42 146 -105 230t-129 128t-119 44q-76 0 -124 -108t-48 -285zM-25 784v152q0 35 31 35h98q14 640 98 719
q15 14 36 14h354q181 0 369 -151q100 -81 179 -199t130 -300q51 -183 51 -386t-55 -344q-54 -140 -188 -232t-333 -92h-528q-74 0 -94 143t-21 586v21h-96q-31 -1 -31 34z" />
    <glyph glyph-name="Ntilde" unicode="&#xd1;" horiz-adv-x="1452" 
d="M567 2173q80 1 203 -49q183 -74 257 -36q26 12 33 28t15 29t23 14q49 0 49 -27q1 -35 -21 -83t-52 -82q-30 -33 -90 -59t-143 -26t-213 48t-171 48t-59 -18t-23 -36q-4 -18 -6 -19q-61 0 -62 28q-1 82 69 161t191 79zM1004 1704h208q37 0 60 -30q22 -30 50 -264t28 -563
t-8 -474t-15 -218q-8 -73 -25 -110q-18 -37 -28 -41t-22 -4h-230q-41 0 -57 16q-15 16 -29 72t-32 131t-74 227t-122 289t-159 288q-92 151 -132 151t-40 -152l2 -113q0 -423 63 -754q27 -139 20 -146q-6 -7 -14 -8t-14 -2t-15 0t-60 1h-111q-59 0 -71 4q-11 4 -27 41
q-45 105 -47 616q-1 512 29 749q30 238 54 266t54 28h166q145 0 616 -873q23 -37 35 -36q16 0 16 142q-1 141 -27 323t-52 296t-25 125q0 23 35 23z" />
    <glyph glyph-name="Ograve" unicode="&#xd2;" horiz-adv-x="1458" 
d="M377 2172q0 41 35 47q35 7 65 6q31 -1 47 -1h30q35 0 41 -4q5 -4 12 -7t11 -12t10 -17t15 -25l156 -291q25 -41 25 -54t-27 -14q-57 -6 -161 79t-181 178q-78 93 -78 115zM729 334q346 0 346 332q0 315 -114 526q-115 211 -232 211t-231 -211t-115 -526q0 -332 346 -332z
M831 -31h-204q-199 0 -332 91q-133 90 -189 232t-55 368q0 226 88 481q88 256 247 425t343 169t343 -169t247 -425t88 -481q0 -224 -55 -366q-54 -142 -188 -234t-333 -91z" />
    <glyph glyph-name="Oacute" unicode="&#xd3;" horiz-adv-x="1458" 
d="M876 2224q15 0 65 2t66 -15q15 -17 15 -39t-78 -115t-181 -178t-161 -79q-27 0 -27 14t25 54l156 291q8 16 14 24q6 7 10 17t12 13t12 7q5 4 32 4h40zM729 334q346 0 346 332q0 315 -114 526q-115 211 -232 211t-231 -211t-115 -526q0 -332 346 -332zM831 -31h-204
q-199 0 -332 91q-133 90 -189 232t-55 368q0 226 88 481q88 256 247 425t343 169t343 -169t247 -425t88 -481q0 -224 -55 -366q-54 -142 -188 -234t-333 -91z" />
    <glyph glyph-name="Ocircumflex" unicode="&#xd4;" horiz-adv-x="1458" 
d="M732 2005q-20 0 -62 -51l-76 -82q-60 -62 -84 -62t-78 25t-55 49q0 24 45 68l205 219q49 51 68 57t74 6t81 -22t65 -64l222 -219q27 -23 26 -39q0 -6 -70 -42t-128 -38q-10 0 -43 27l-123 121q-47 47 -67 47zM729 334q346 0 346 332q0 315 -114 526q-115 211 -232 211
t-231 -211t-115 -526q0 -332 346 -332zM831 -31h-204q-199 0 -332 91q-133 90 -189 232t-55 368q0 226 88 481q88 256 247 425t343 169t343 -169t247 -425t88 -481q0 -224 -55 -366q-54 -142 -188 -234t-333 -91z" />
    <glyph glyph-name="Otilde" unicode="&#xd5;" horiz-adv-x="1458" 
d="M569 2173q80 1 203 -49q183 -74 257 -36q26 12 33 28t15 29t23 14q49 0 49 -27q1 -35 -21 -83t-52 -82q-30 -33 -90 -59t-143 -26t-213 48t-171 48t-59 -18t-23 -36q-4 -18 -6 -19q-61 0 -62 28q-1 82 69 161t191 79zM729 334q346 0 346 332q0 315 -114 526
q-115 211 -232 211t-231 -211t-115 -526q0 -332 346 -332zM831 -31h-204q-199 0 -332 91q-133 90 -189 232t-55 368q0 226 88 481q88 256 247 425t343 169t343 -169t247 -425t88 -481q0 -224 -55 -366q-54 -142 -188 -234t-333 -91z" />
    <glyph glyph-name="Odieresis" unicode="&#xd6;" horiz-adv-x="1458" 
d="M516 1845q-78 0 -130 44t-52 120t52 120t130 44t130 -44t52 -120t-52 -120t-130 -44zM985 1845q-78 0 -130 44t-52 120t52 120t130 44t130 -44t52 -120t-52 -120t-130 -44zM729 334q346 0 346 332q0 315 -114 526q-115 211 -232 211t-231 -211t-115 -526q0 -332 346 -332
zM831 -31h-204q-199 0 -332 91q-133 90 -189 232t-55 368q0 226 88 481q88 256 247 425t343 169t343 -169t247 -425t88 -481q0 -224 -55 -366q-54 -142 -188 -234t-333 -91z" />
    <glyph glyph-name="multiply" unicode="&#xd7;" 
d="M1098 207l-140 -123l-372 432l-371 -430l-139 121l395 444l-385 443l137 127l377 -430l365 432l135 -125l-391 -445z" />
    <glyph glyph-name="Oslash" unicode="&#xd8;" horiz-adv-x="1458" 
d="M729 1403q-117 0 -233 -212t-113 -525q0 -35 14 -154l559 700q-43 76 -103 134t-124 57zM729 334q346 0 346 332q0 205 -55 393l-533 -664q78 -61 242 -61zM-33 -40q0 28 29 71l149 186q-94 180 -94 424t88 500t247 425t343 169q244 0 432 -271l135 166q2 2 12 16
q42 54 76 54t56 -20t20 -47q0 -28 -43 -81l-178 -223q168 -326 168 -708q0 -185 -55 -327q-54 -142 -188 -234t-333 -91h-204q-209 0 -385 125l-125 -151q-63 -83 -125 -31q-24 20 -25 48z" />
    <glyph glyph-name="Ugrave" unicode="&#xd9;" horiz-adv-x="1378" 
d="M336 2172q0 41 35 48t65 5q30 -1 46 -1h31q35 0 41 -4q5 -4 12 -7q8 -3 12 -12t10 -17t14 -25l156 -291q24 -41 24 -54t-26 -14q-56 -6 -160 79t-182 178t-78 115zM989 1704h201q16 0 28 -8t31 -51q62 -148 62 -711q0 -965 -623 -965q-295 -1 -458 229t-162 681
q0 299 22 499q35 323 82 326h285q45 0 45 -27q0 -8 -26 -96t-52 -259t-25 -380q0 -316 89 -462t200 -146q41 0 74 6t83 40t84 92t58 174q25 116 25 271t-14 325t-40 267q-26 96 -36 128t-11 40q0 27 78 27z" />
    <glyph glyph-name="Uacute" unicode="&#xda;" horiz-adv-x="1378" 
d="M896 2224q14 0 39 1q79 3 98 -20q9 -11 9 -33t-78 -115t-180 -178q-104 -85 -161 -79q-27 0 -27 14t25 54l155 291q8 16 15 24q6 7 10 17t11 13t12 7t32 4h40zM989 1704h201q16 0 28 -8t31 -51q62 -148 62 -711q0 -965 -623 -965q-295 -1 -458 229t-162 681q0 299 22 499
q35 323 82 326h285q45 0 45 -27q0 -8 -26 -96t-52 -259t-25 -380q0 -316 89 -462t200 -146q41 0 74 6t83 40t84 92t58 174q25 116 25 271t-14 325t-40 267q-26 96 -36 128t-11 40q0 27 78 27z" />
    <glyph glyph-name="Ucircumflex" unicode="&#xdb;" horiz-adv-x="1378" 
d="M652 2005q-20 0 -62 -51l-76 -82q-60 -62 -84 -62t-78 25t-55 49q0 24 45 68l205 219q49 51 68 57t74 6t82 -22q26 -22 65 -64l221 -219q27 -23 26 -39q0 -6 -69 -42t-129 -38q-10 0 -43 27l-123 121q-47 47 -67 47zM989 1704h201q16 0 28 -8t31 -51q62 -148 62 -711
q0 -965 -623 -965q-295 -1 -458 229t-162 681q0 299 22 499q35 323 82 326h285q45 0 45 -27q0 -8 -26 -96t-52 -259t-25 -380q0 -316 89 -462t200 -146q41 0 74 6t83 40t84 92t58 174q25 116 25 271t-14 325t-40 267q-26 96 -36 128t-11 40q0 27 78 27z" />
    <glyph glyph-name="Udieresis" unicode="&#xdc;" horiz-adv-x="1378" 
d="M455 1845q-78 0 -130 44t-53 120q0 76 52 120t131 44q78 0 130 -44t52 -120t-52 -120t-130 -44zM924 1845q-78 0 -130 44t-53 120q1 76 53 120t130 44t130 -44t52 -120t-52 -120t-130 -44zM989 1704h201q16 0 28 -8t31 -51q62 -148 62 -711q0 -965 -623 -965
q-295 -1 -458 229t-162 681q0 299 22 499q35 323 82 326h285q45 0 45 -27q0 -8 -26 -96t-52 -259t-25 -380q0 -316 89 -462t200 -146q41 0 74 6t83 40t84 92t58 174q25 116 25 271t-14 325t-40 267q-26 96 -36 128t-11 40q0 27 78 27z" />
    <glyph glyph-name="Yacute" unicode="&#xdd;" horiz-adv-x="1318" 
d="M909 2224q15 0 65 2t66 -15q15 -17 15 -39t-78 -115t-181 -178t-161 -79q-27 0 -27 14t25 54l155 291q8 16 15 24q6 7 10 17t11 13t13 7t32 4h40zM999 1704h171q76 0 96 -24t20 -85q0 -149 -40 -283t-100 -228t-130 -200t-130 -200t-100 -228t-41 -286l13 -131
q0 -39 -94 -39h-238q-64 0 -64 112q-1 190 103 403q35 73 35 93t-48 74q-167 189 -245 307q-78 117 -126 262t-48 275q1 130 23 154t98 24h163q96 0 113 -33q4 -8 4 -20l-18 -160q0 -135 53 -270t115 -211t93 -76t101 89t131 227t62 251q0 39 -9 103t-10 65q0 35 47 35z" />
    <glyph glyph-name="Thorn" unicode="&#xde;" horiz-adv-x="1277" 
d="M549 588q27 0 126 68t194 177q95 108 96 187q0 176 -213 176q-146 0 -204 -51t-58 -136t2 -130l12 -209q4 -46 11 -64t34 -18zM1276 1086q0 -172 -98 -302q-98 -131 -299 -278l-289 -213q-31 -20 -31 -51t8 -64l27 -104q8 -41 8 -51q0 -23 -55 -23h-318q-33 0 -39 43
q-32 223 -32 657v293q0 711 96 711h289q29 0 28 -21q0 -8 -4 -32l-37 -197q66 -4 101 -4l295 8q146 0 248 -100t102 -272z" />
    <glyph glyph-name="germandbls" unicode="&#xdf;" horiz-adv-x="1140" 
d="M102 831q0 361 25 517t82 245q117 184 332 185q145 0 253 -100t107 -257q0 -102 -37 -171q-36 -70 -72 -98t-36 -33t36 -27t87 -70q51 -47 103 -116q52 -70 88 -190t36 -259q0 -368 -248 -464q-61 -24 -131 -24q-71 0 -145 43t-74 76q0 20 67 140q68 120 89 120
q8 0 32 -15t41 -16q70 0 70 142q0 205 -86 377t-152 172q-14 0 -40 -20t-29 -19q-31 0 -31 97t15 124q16 27 60 37t74 54t29 97q0 53 -26 88q-27 35 -66 35t-56 -5t-43 -36t-40 -91q-37 -159 -37 -467q0 -309 57 -714q18 -136 18 -152t-14 -26t-81 -10t-131 -1t-81 28
q-41 70 -45 579v225z" />
    <glyph glyph-name="agrave" unicode="&#xe0;" horiz-adv-x="1064" 
d="M349 1830q23 -1 39 -1h31q34 0 40 -4t13 -7q7 -2 11 -12q5 -10 11 -18t14 -25l156 -290q24 -41 24 -55t-26 -13q-56 -6 -160 79t-183 178q-78 93 -77 120q0 52 107 48zM596 0q-528 0 -528 377q0 182 147 312t336 163q37 6 55 12t34 24t17 52q0 74 -61 117t-135 43
t-119 -28t-57 -60q-11 -32 -23 -61q-12 -28 -26 -27q-51 0 -95 51q-43 51 -43 117q0 110 106 180t253 69q346 0 450 -284q47 -131 47 -797l17 -213q0 -47 -375 -47zM678 403v146q0 38 -11 61q-19 41 -75 41q-94 1 -171 -67t-77 -155t62 -137t148 -50q88 0 106 43t18 118z
" />
    <glyph glyph-name="aacute" unicode="&#xe1;" horiz-adv-x="1064" 
d="M741 1829q15 0 39 1q108 5 107 -48q0 -27 -78 -120t-181 -178t-161 -79q-27 -1 -27 13t25 55l156 290q8 17 14 25t10 17t11 13t13 7q6 4 32 4h40zM596 0q-528 0 -528 377q0 182 147 312t336 163q37 6 55 12t34 24t17 52q0 74 -61 117t-135 43t-119 -28t-57 -60
q-11 -32 -23 -61q-12 -28 -26 -27q-51 0 -95 51q-43 51 -43 117q0 110 106 180t253 69q346 0 450 -284q47 -131 47 -797l17 -213q0 -47 -375 -47zM678 403v146q0 38 -11 61q-19 41 -75 41q-94 1 -171 -67t-77 -155t62 -137t148 -50q88 0 106 43t18 118z" />
    <glyph glyph-name="acircumflex" unicode="&#xe2;" horiz-adv-x="1064" 
d="M474 1610q-20 0 -62 -51l-76 -82q-60 -61 -84 -61t-78 24t-55 48q0 24 45 68l205 220q49 51 68 57t75 6t92 -33q14 -12 53 -53l222 -219q27 -23 26 -39q0 -6 -68 -42t-130 -38q-10 0 -43 27l-123 121q-47 47 -67 47zM596 0q-528 0 -528 377q0 182 147 312t336 163
q37 6 55 12t34 24t17 52q0 74 -61 117t-135 43t-119 -28t-57 -60q-11 -32 -23 -61q-12 -28 -26 -27q-51 0 -95 51q-43 51 -43 117q0 110 106 180t253 69q346 0 450 -284q47 -131 47 -797l17 -213q0 -47 -375 -47zM678 403v146q0 38 -11 61q-19 41 -75 41q-94 1 -171 -67
t-77 -155t62 -137t148 -50q88 0 106 43t18 118z" />
    <glyph glyph-name="atilde" unicode="&#xe3;" horiz-adv-x="1064" 
d="M373 1778q81 0 203 -50t176 -49q96 0 113 42q7 15 15 29t23 13q49 0 49 -26q0 -34 -21 -82q-21 -49 -51 -83t-90 -60q-135 -58 -362 24q-125 47 -166 47q-68 0 -82 -55q-4 -18 -6 -19q-61 0 -61 29q0 82 69 161q70 79 191 79zM596 0q-528 0 -528 377q0 182 147 312
t336 163q37 6 55 12t34 24t17 52q0 74 -61 117t-135 43t-119 -28t-57 -60q-11 -32 -23 -61q-12 -28 -26 -27q-51 0 -95 51q-43 51 -43 117q0 110 106 180t253 69q346 0 450 -284q47 -131 47 -797l17 -213q0 -47 -375 -47zM678 403v146q0 38 -11 61q-19 41 -75 41
q-94 1 -171 -67t-77 -155t62 -137t148 -50q88 0 106 43t18 118z" />
    <glyph glyph-name="adieresis" unicode="&#xe4;" horiz-adv-x="1064" 
d="M299 1450q-78 0 -130 44t-52 120t52 120t130 44t130 -44t52 -120t-52 -120t-130 -44zM768 1450q-78 0 -130 44t-52 120t52 120t130 44t130 -44t52 -120t-52 -120t-130 -44zM596 0q-528 0 -528 377q0 182 147 312t336 163q37 6 55 12t34 24t17 52q0 74 -61 117t-135 43
t-119 -28t-57 -60q-11 -32 -23 -61q-12 -28 -26 -27q-51 0 -95 51q-43 51 -43 117q0 110 106 180t253 69q346 0 450 -284q47 -131 47 -797l17 -213q0 -47 -375 -47zM678 403v146q0 38 -11 61q-19 41 -75 41q-94 1 -171 -67t-77 -155t62 -137t148 -50q88 0 106 43t18 118z
" />
    <glyph glyph-name="aring" unicode="&#xe5;" horiz-adv-x="1064" 
d="M512 1513q47 0 76 33q28 33 28 79t-31 77q-32 31 -75 31t-73 -32q-29 -32 -29 -77t28 -78t76 -33zM511 1386q-105 0 -178 70t-73 168t72 167t180 69t180 -67t72 -167t-74 -170t-179 -70zM596 0q-528 0 -528 377q0 182 147 312t336 163q37 6 55 12t34 24t17 52
q0 74 -61 117t-135 43t-119 -28t-57 -60q-11 -32 -23 -61q-12 -28 -26 -27q-51 0 -95 51q-43 51 -43 117q0 110 106 180t253 69q346 0 450 -284q47 -131 47 -797l17 -213q0 -47 -375 -47zM678 403v146q0 38 -11 61q-19 41 -75 41q-94 1 -171 -67t-77 -155t62 -137t148 -50
q88 0 106 43t18 118z" />
    <glyph glyph-name="ae" unicode="&#xe6;" horiz-adv-x="1681" 
d="M173 98q-105 98 -105 280q0 181 147 311t336 163q37 6 55 12t34 24t17 52q0 74 -61 117t-135 43t-119 -28t-57 -60q-11 -32 -23 -61q-12 -28 -26 -27q-51 0 -95 51q-43 51 -43 117q0 110 106 180t253 69q252 0 387 -167q145 168 354 167q178 0 297 -97t119 -271
q0 -123 -68 -206t-165 -122t-194 -69t-165 -68q-68 -40 -68 -102t86 -111t176 -49t160 26t112 75q42 48 63 101q20 54 26 54q21 0 29 -46t8 -77q0 -188 -128 -299t-302 -111t-293 94q-2 -2 -7 -13t-21 -22q-42 -28 -314 -28q-271 0 -376 98zM678 403v146q0 38 -11 61
q-19 41 -75 41q-94 1 -171 -67t-77 -155t62 -137t148 -50q88 0 106 43t18 118zM1188 1100q-115 0 -189 -98t-73 -199q0 -45 37 -45q53 0 225 60t172 128t-54 111q-55 43 -118 43z" />
    <glyph glyph-name="ccedilla" unicode="&#xe7;" horiz-adv-x="999" 
d="M199 -203q0 20 65 79q66 58 146 108q-180 47 -274 219q-93 172 -93 387q0 284 138 507q69 109 184 177t253 68t226 -63q88 -62 88 -151q0 -55 -35 -117t-86 -63q-15 0 -33 38t-59 76t-126 38t-154 -80q-120 -139 -120 -371q0 -158 75 -261t224 -103t234 131q20 31 32 51
q11 20 16 20q11 0 21 -41q9 -41 9 -79q0 -233 -172 -338q-4 -4 -37 -30q-72 -57 -74 -97q0 -16 39 -34q115 -52 115 -132t-86 -137q-87 -57 -187 -81t-178 -24t-78 27q0 14 82 52t82 81t-37 72q-37 28 -82 36q-118 20 -118 35z" />
    <glyph glyph-name="egrave" unicode="&#xe8;" horiz-adv-x="1075" 
d="M307 1782q0 52 108 48q24 -1 39 -1h31q34 0 40 -4q5 -4 13 -7q8 -2 11 -12q4 -10 10 -18t14 -25l156 -290q25 -41 25 -55t-27 -13q-57 -6 -161 79t-181 178q-78 93 -78 120zM582 1100q-115 0 -189 -98t-74 -199q0 -45 37 -45q54 0 226 60t172 128t-54 111t-118 43z
M971 502q33 0 37 -123q0 -188 -128 -299t-319 -111q-258 -1 -388 181t-130 450q0 350 163 546t386 195q178 0 297 -97t119 -271q0 -123 -68 -206t-165 -122t-194 -69t-165 -68q-68 -40 -68 -102t86 -111t176 -49t160 26t115 78q45 51 62 101q17 51 24 51z" />
    <glyph glyph-name="eacute" unicode="&#xe9;" horiz-adv-x="1075" 
d="M745 1829q15 0 39 1q108 5 107 -48q0 -27 -78 -120t-181 -178t-161 -79q-27 -1 -27 13t25 55l156 290q8 17 14 25t10 17t11 13t13 7q6 4 32 4h40zM582 1100q-115 0 -189 -98t-74 -199q0 -45 37 -45q54 0 226 60t172 128t-54 111t-118 43zM971 502q33 0 37 -123
q0 -188 -128 -299t-319 -111q-258 -1 -388 181t-130 450q0 350 163 546t386 195q178 0 297 -97t119 -271q0 -123 -68 -206t-165 -122t-194 -69t-165 -68q-68 -40 -68 -102t86 -111t176 -49t160 26t115 78q45 51 62 101q17 51 24 51z" />
    <glyph glyph-name="ecircumflex" unicode="&#xea;" horiz-adv-x="1075" 
d="M932 1495q0 -6 -68 -42t-131 -38q-10 0 -43 27l-123 121q-47 47 -67 47t-62 -51l-76 -82q-60 -61 -84 -61t-78 24q-54 25 -55 47q0 25 45 69l205 220q49 51 69 57t75 6q56 0 92 -33q14 -12 53 -53l221 -219q27 -23 27 -39zM582 1100q-115 0 -189 -98t-74 -199
q0 -45 37 -45q54 0 226 60t172 128t-54 111t-118 43zM971 502q33 0 37 -123q0 -188 -128 -299t-319 -111q-258 -1 -388 181t-130 450q0 350 163 546t386 195q178 0 297 -97t119 -271q0 -123 -68 -206t-165 -122t-194 -69t-165 -68q-68 -40 -68 -102t86 -111t176 -49t160 26
t115 78q45 51 62 101q17 51 24 51z" />
    <glyph glyph-name="edieresis" unicode="&#xeb;" horiz-adv-x="1075" 
d="M303 1450q-78 0 -130 44t-52 120t52 120t130 44t130 -44t52 -120t-52 -120t-130 -44zM772 1450q-78 0 -130 44t-52 120t52 120t130 44t130 -44t52 -120t-52 -120t-130 -44zM582 1100q-115 0 -189 -98t-74 -199q0 -45 37 -45q54 0 226 60t172 128t-54 111t-118 43z
M971 502q33 0 37 -123q0 -188 -128 -299t-319 -111q-258 -1 -388 181t-130 450q0 350 163 546t386 195q178 0 297 -97t119 -271q0 -123 -68 -206t-165 -122t-194 -69t-165 -68q-68 -40 -68 -102t86 -111t176 -49t160 26t115 78q45 51 62 101q17 51 24 51z" />
    <glyph glyph-name="igrave" unicode="&#xec;" horiz-adv-x="544" 
d="M89 1830q23 -1 39 -1h31q34 0 40 -4t13 -7q7 -2 11 -12q5 -10 11 -18t14 -25l155 -290q25 -41 25 -55t-27 -13q-57 -6 -160 79t-182 178q-78 93 -77 120q0 52 107 48zM94 678q0 254 4 341t6 134t11 77q8 30 10 47t14 25q11 8 15 10q4 1 20 0t21 -1h112q61 0 75 -5
q14 -4 13 -24q0 -20 -12 -133t-12 -251q0 -428 71 -801q8 -42 9 -54t-15 -30q-15 -17 -52 -15q-36 2 -78 2t-104 -1t-77 24q-29 49 -31 415v240z" />
    <glyph glyph-name="iacute" unicode="&#xed;" horiz-adv-x="544" 
d="M419 1829q15 0 39 1q107 4 107 -48q0 -27 -78 -120t-181 -178t-161 -79q-27 -1 -27 13t25 55l156 290q8 17 14 25t11 17q4 9 11 13t12 7q5 4 32 4h40zM94 678q0 254 4 341t6 134t11 77q8 30 10 47t14 25q11 8 15 10q4 1 20 0t21 -1h112q61 0 75 -5q14 -4 13 -24
q0 -20 -12 -133t-12 -251q0 -428 71 -801q8 -42 9 -54t-15 -30q-15 -17 -52 -15q-36 2 -78 2t-104 -1t-77 24q-29 49 -31 415v240z" />
    <glyph glyph-name="icircumflex" unicode="&#xee;" horiz-adv-x="544" 
d="M666 1495q0 -6 -68 -42t-131 -38q-10 0 -43 27l-123 121q-47 47 -67 47t-62 -51l-76 -82q-60 -61 -84 -61t-78 24t-55 48q0 24 45 68l205 220q49 51 69 57t75 6q56 0 92 -33q14 -12 53 -53l221 -219q27 -23 27 -39zM94 678q0 254 4 341t6 134t11 77q8 30 10 47t14 25
q11 8 15 10q4 1 20 0t21 -1h112q61 0 75 -5q14 -4 13 -24q0 -20 -12 -133t-12 -251q0 -428 71 -801q8 -42 9 -54t-15 -30q-15 -17 -52 -15q-36 2 -78 2t-104 -1t-77 24q-29 49 -31 415v240z" />
    <glyph glyph-name="idieresis" unicode="&#xef;" horiz-adv-x="544" 
d="M39 1450q-78 0 -130 44t-52 120t52 120t130 44t130 -44t52 -120t-52 -120t-130 -44zM508 1450q-78 0 -130 44t-52 120t52 120t130 44t130 -44t52 -120t-52 -120t-130 -44zM94 678q0 254 4 341t6 134t11 77q8 30 10 47t14 25q11 8 15 10q4 1 20 0t21 -1h112q61 0 75 -5
q14 -4 13 -24q0 -20 -12 -133t-12 -251q0 -428 71 -801q8 -42 9 -54t-15 -30q-15 -17 -52 -15q-36 2 -78 2t-104 -1t-77 24q-29 49 -31 415v240z" />
    <glyph glyph-name="eth" unicode="&#xf0;" horiz-adv-x="1114" 
d="M252 1632q-10 0 -10 7t6 12l176 127q20 12 40 12t108 -35t141 -69l233 104l86 -100l-217 -93q256 -258 256 -768q0 -440 -143 -650t-371 -210q-189 0 -345 162q-77 80 -123 217t-46 309q0 317 131 501t334 183q123 0 213 -75h4q-51 133 -162 225l-241 -105l-86 97l206 88
q-111 61 -190 61zM297 708q0 -68 12 -132q30 -160 121 -227q53 -38 127 -38t127 38q53 39 81 101q52 116 52 260t-53 254q-29 60 -82 98t-125 38t-125 -38t-82 -98t-41 -124t-12 -132z" />
    <glyph glyph-name="ntilde" unicode="&#xf1;" horiz-adv-x="1130" 
d="M385 1778q80 0 203 -50t177 -49q54 -1 80 13t33 29t15 29t22 13q49 0 50 -26q1 -35 -21 -83t-52 -82t-90 -60t-143 -26t-213 49q-130 48 -172 48q-41 0 -59 -18q-18 -19 -22 -37t-7 -19q-61 0 -61 29q-1 82 69 161t191 79zM469 1339q0 -9 -9 -33t-9 -40q0 -39 30 -39
q6 0 94 42t166 42q29 0 55 -4t74 -34t80 -83q86 -140 86 -462q-2 -583 -52 -680q-20 -38 -32 -43t-76 -5h-122q-69 0 -84 6t-15 18t12 50q93 313 93 667q0 237 -70 299q-33 29 -76 29q-44 0 -78 -16q-103 -48 -141 -199q-56 -221 21 -726q14 -97 14 -101q0 -27 -74 -27
t-142 -1q-67 -1 -82 18q-38 48 -38 488t21 617t62 219q42 42 120 35h115q58 0 57 -37z" />
    <glyph glyph-name="ograve" unicode="&#xf2;" horiz-adv-x="1114" 
d="M328 1782q0 52 107 48q23 -1 39 -1h31q34 0 40 -4t13 -7q7 -2 11 -12q5 -10 11 -18t14 -25l156 -290q24 -41 24 -55t-26 -13q-56 -6 -160 79t-182 178t-78 120zM557 311q74 0 127 38q53 39 81 101q52 116 52 260t-53 254q-29 60 -82 98t-125 38t-125 -38t-82 -98
q-53 -110 -53 -254q0 -145 52 -260q28 -62 81 -100t127 -39zM557 -31q-92 0 -180 41t-165 121t-123 217t-46 310t52 324t172 255t290 104t290 -104q224 -194 224 -580q0 -172 -46 -309t-123 -217t-165 -121t-180 -41z" />
    <glyph glyph-name="oacute" unicode="&#xf3;" horiz-adv-x="1114" 
d="M704 1829q14 0 38 1q108 5 108 -48q0 -27 -78 -120t-181 -178t-161 -79q-27 -1 -27 13t25 55l156 290q8 17 14 25t10 17t12 13t12 7q5 4 32 4h40zM557 311q74 0 127 38q53 39 81 101q52 116 52 260t-53 254q-29 60 -82 98t-125 38t-125 -38t-82 -98q-53 -110 -53 -254
q0 -145 52 -260q28 -62 81 -100t127 -39zM557 -31q-92 0 -180 41t-165 121t-123 217t-46 310t52 324t172 255t290 104t290 -104q224 -194 224 -580q0 -172 -46 -309t-123 -217t-165 -121t-180 -41z" />
    <glyph glyph-name="ocircumflex" unicode="&#xf4;" horiz-adv-x="1114" 
d="M519 1610q-20 0 -62 -51l-76 -82q-61 -61 -85 -61t-78 24t-54 48t45 68l205 220q49 51 68 57t75 6t92 -33q14 -12 53 -53l222 -219q27 -23 26 -39q0 -6 -68 -42t-130 -38q-10 0 -43 27l-123 121q-47 47 -67 47zM557 311q74 0 127 38q53 39 81 101q52 116 52 260t-53 254
q-29 60 -82 98t-125 38t-125 -38t-82 -98q-53 -110 -53 -254q0 -145 52 -260q28 -62 81 -100t127 -39zM557 -31q-92 0 -180 41t-165 121t-123 217t-46 310t52 324t172 255t290 104t290 -104q224 -194 224 -580q0 -172 -46 -309t-123 -217t-165 -121t-180 -41z" />
    <glyph glyph-name="otilde" unicode="&#xf5;" horiz-adv-x="1114" 
d="M397 1778q80 0 203 -50q124 -50 178 -49q54 -1 80 13t32 29q7 15 15 29t23 13q49 0 49 -26q1 -35 -21 -83t-52 -82t-90 -60t-143 -26t-213 49q-130 48 -171 48t-59 -18q-18 -19 -23 -37q-4 -18 -6 -19q-61 0 -62 29q-1 82 69 161t191 79zM557 311q74 0 127 38
q53 39 81 101q52 116 52 260t-53 254q-29 60 -82 98t-125 38t-125 -38t-82 -98q-53 -110 -53 -254q0 -145 52 -260q28 -62 81 -100t127 -39zM557 -31q-92 0 -180 41t-165 121t-123 217t-46 310t52 324t172 255t290 104t290 -104q224 -194 224 -580q0 -172 -46 -309
t-123 -217t-165 -121t-180 -41z" />
    <glyph glyph-name="odieresis" unicode="&#xf6;" horiz-adv-x="1114" 
d="M324 1450q-78 0 -130 44t-53 120q1 76 53 120t130 44t130 -44t52 -120t-52 -120t-130 -44zM793 1450q-78 0 -130 44t-53 120q0 76 52 120t131 44q78 0 130 -44t52 -120t-52 -120t-130 -44zM557 311q74 0 127 38q53 39 81 101q52 116 52 260t-53 254q-29 60 -82 98
t-125 38t-125 -38t-82 -98q-53 -110 -53 -254q0 -145 52 -260q28 -62 81 -100t127 -39zM557 -31q-92 0 -180 41t-165 121t-123 217t-46 310t52 324t172 255t290 104t290 -104q224 -194 224 -580q0 -172 -46 -309t-123 -217t-165 -121t-180 -41z" />
    <glyph glyph-name="divide" unicode="&#xf7;" 
d="M598 401h2q51 0 94 -46t43 -108q0 -61 -43 -111t-99 -50t-98 48t-42 113t41 109t102 45zM1083 578h-979v192h979v-192zM600 946h-4q-51 0 -94 47t-43 109t44 111t99 49t96 -48t41 -112t-41 -110t-98 -46z" />
    <glyph glyph-name="oslash" unicode="&#xf8;" horiz-adv-x="1114" 
d="M557 1100q-72 0 -125 -38t-82 -98q-53 -110 -53 -250q0 -141 41 -239l407 512q-61 113 -188 113zM559 311q72 0 125 38q53 39 81 101q52 116 52 259q0 65 -12 120l-379 -473q61 -45 133 -45zM1051 1341q74 0 73 -69q0 -39 -47 -92l-94 -121q88 -180 88 -377
q0 -375 -162 -544t-352 -169t-328 144l-75 -95q-5 -5 -23 -27t-48 -22q-31 -1 -55 19t-24 50t39 73l98 120q-98 164 -98 426q0 386 224 580q120 104 290 104q217 1 344 -157l60 82l14 18q14 18 21 28q8 10 24 19q16 10 31 10z" />
    <glyph glyph-name="ugrave" unicode="&#xf9;" horiz-adv-x="1138" 
d="M386 1830q24 -1 40 -1h30q34 0 40 -4t13 -7q7 -2 11 -12t10 -18t15 -25l155 -290q25 -41 25 -55t-27 -13q-57 -6 -160 79t-182 178q-78 93 -77 120q0 52 107 48zM766 1311h190q88 0 88 -625q0 -462 -26 -563q-10 -39 -14 -66t-20 -44t-22 -26q-14 -18 -52 -18h-89
q-51 -1 -78 17t-20 41q15 57 -47 57q-12 0 -103 -68q-79 -47 -151 -47t-125 28q-53 27 -101 97q-102 148 -102 568q0 104 14 283q28 366 87 366h188q4 0 18 1t33 -1t25 -11q6 -8 6 -15t-24 -85q-23 -78 -47 -224t-23 -319q0 -426 174 -426q223 0 223 461q0 212 -53 488
q-18 98 -19 106q0 25 70 25z" />
    <glyph glyph-name="uacute" unicode="&#xfa;" horiz-adv-x="1138" 
d="M778 1829q14 0 38 1q79 3 98 -21q10 -11 10 -33t-78 -114q-78 -93 -181 -178t-161 -79q-27 -1 -27 13t25 55l155 290q9 17 15 25t10 17t11 13t13 7q6 4 32 4h40zM766 1311h190q88 0 88 -625q0 -462 -26 -563q-10 -39 -14 -66t-20 -44t-22 -26q-14 -18 -52 -18h-89
q-51 -1 -78 17t-20 41q15 57 -47 57q-12 0 -103 -68q-79 -47 -151 -47t-125 28q-53 27 -101 97q-102 148 -102 568q0 104 14 283q28 366 87 366h188q4 0 18 1t33 -1t25 -11q6 -8 6 -15t-24 -85q-23 -78 -47 -224t-23 -319q0 -426 174 -426q223 0 223 461q0 212 -53 488
q-18 98 -19 106q0 25 70 25z" />
    <glyph glyph-name="ucircumflex" unicode="&#xfb;" horiz-adv-x="1138" 
d="M963 1495q0 -6 -68 -42t-131 -38q-10 0 -43 27l-123 121q-46 47 -66 47t-63 -51l-76 -82q-61 -61 -85 -61t-78 24t-54 48t45 68l205 220q48 51 68 57t76 6t92 -33q14 -12 53 -53l221 -219q27 -23 27 -39zM766 1311h190q88 0 88 -625q0 -462 -26 -563q-10 -39 -14 -66
t-20 -44t-22 -26q-14 -18 -52 -18h-89q-51 -1 -78 17t-20 41q15 57 -47 57q-12 0 -103 -68q-79 -47 -151 -47t-125 28q-53 27 -101 97q-102 148 -102 568q0 104 14 283q28 366 87 366h188q4 0 18 1t33 -1t25 -11q6 -8 6 -15t-24 -85q-23 -78 -47 -224t-23 -319
q0 -426 174 -426q223 0 223 461q0 212 -53 488q-18 98 -19 106q0 25 70 25z" />
    <glyph glyph-name="udieresis" unicode="&#xfc;" horiz-adv-x="1138" 
d="M336 1450q-78 0 -130 44t-52 120t52 120t130 44t130 -44t52 -120t-52 -120t-130 -44zM805 1450q-78 0 -130 44t-52 120t52 120t130 44t130 -44t52 -120t-52 -120t-130 -44zM766 1311h190q88 0 88 -625q0 -462 -26 -563q-10 -39 -14 -66t-20 -44t-22 -26q-14 -18 -52 -18
h-89q-51 -1 -78 17t-20 41q15 57 -47 57q-12 0 -103 -68q-79 -47 -151 -47t-125 28q-53 27 -101 97q-102 148 -102 568q0 104 14 283q28 366 87 366h188q4 0 18 1t33 -1t25 -11q6 -8 6 -15t-24 -85q-23 -78 -47 -224t-23 -319q0 -426 174 -426q223 0 223 461q0 212 -53 488
q-18 98 -19 106q0 25 70 25z" />
    <glyph glyph-name="yacute" unicode="&#xfd;" horiz-adv-x="1050" 
d="M774 1829q14 0 38 1q80 3 98 -21q10 -11 10 -33t-78 -114q-78 -93 -182 -178t-160 -79q-27 -1 -27 13t25 55l155 290q9 17 15 25t10 17t11 13t12 7q5 4 32 4h41zM965 1311q32 0 32 -81v-79q7 -219 -69 -437t-202 -380t-292 -263t-332 -102q-33 1 -41 19t-8 59v180
q0 84 60 84q106 0 179 22q118 36 118 81q0 20 -37 59q-128 135 -187 226q-133 206 -133 515q0 72 9 84t88 12t176 1q45 0 45 -37q1 -10 -9 -64t-10 -114t32 -149q51 -143 155 -252q39 -40 55 -40q57 -1 97 135t40 232t-11 173t-11 85q0 31 49 31h207z" />
    <glyph glyph-name="thorn" unicode="&#xfe;" horiz-adv-x="1075" 
d="M393 432q-12 0 -12 -92q-1 -92 19 -199q20 -106 20 -112q0 -29 -47 -29h-209q-27 0 -41 23q-29 48 -29 311v678q0 441 44 643q19 92 42 92h207q63 0 64 -43q0 -4 -31 -127t-31 -213q0 -29 23 -29q8 0 45 4l47 2q276 1 410 -119t135 -313q1 -115 -51 -235
q-95 -220 -280 -349q-81 -56 -140 -57q-35 0 -109 88q-8 8 -18 22t-18 21q-7 9 -17 21q-11 12 -23 12zM371 720q0 -83 3 -110q4 -28 26 -54t65 -26q133 0 231 106t98 222q0 114 -69 178q-70 64 -168 64q-41 0 -63 -4t-49 -26q-74 -58 -74 -350z" />
    <glyph glyph-name="ydieresis" unicode="&#xff;" horiz-adv-x="1050" 
d="M291 1450q-78 0 -130 44t-52 120t52 120t130 44t130 -44t52 -120t-52 -120t-130 -44zM760 1450q-78 0 -130 44t-52 120t52 120t130 44t130 -44t52 -120t-52 -120t-130 -44zM965 1311q32 0 32 -81v-79q7 -219 -69 -437t-202 -380t-292 -263t-332 -102q-33 1 -41 19t-8 59
v180q0 84 60 84q106 0 179 22q118 36 118 81q0 20 -37 59q-128 135 -187 226q-133 206 -133 515q0 72 9 84t88 12t176 1q45 0 45 -37q1 -10 -9 -64t-10 -114t32 -149q51 -143 155 -252q39 -40 55 -40q57 -1 97 135t40 232t-11 173t-11 85q0 31 49 31h207z" />
    <glyph glyph-name="dotlessi" unicode="&#x131;" horiz-adv-x="544" 
d="M94 678q0 254 4 341t6 134t11 77q8 30 10 47t14 25q11 8 15 10q4 1 20 0t21 -1h112q61 0 75 -5q14 -4 13 -24q0 -20 -12 -133t-12 -251q0 -428 71 -801q8 -42 9 -54t-15 -30q-15 -17 -52 -15q-36 2 -78 2t-104 -1t-77 24q-29 49 -31 415v240z" />
    <glyph glyph-name="Lslash" unicode="&#x141;" horiz-adv-x="1128" 
d="M61 809q-16 0 -48 -26q-32 -25 -57 -25t-35 10q-9 10 -9 16v25q0 57 31 146t95 89t100 54q34 54 34 131q0 79 39 277t63 198h326q39 0 39 -21q0 -43 -68 -199t-67 -204q0 -41 69 -41q37 0 105 36t100 36q41 0 41 -41q0 -33 -46 -131t-85 -99q-87 0 -188 -52
q-35 -17 -41 -17q-57 0 -58 -359q0 -194 68 -272t159 -78t168 43t127 87t68 44q25 0 72 -189t47 -215t-25 -30t-43 -3t-20 1h-834q-59 -2 -71 40q-13 42 -13 194t-2 249l11 273q0 53 -52 53z" />
    <glyph glyph-name="lslash" unicode="&#x142;" horiz-adv-x="526" 
d="M467 25q0 -31 -59 -26q-13 1 -17 1h-215q-63 0 -63 733q2 170 -3 210t-28 40q-8 0 -43 -26t-57 -25q-43 0 -43 62q-1 62 29 106q30 45 69 45q73 4 86 135q0 156 17 312t57 155h221q57 0 57 -39q0 -8 -31 -171q-30 -163 -30 -185t11 -41q11 -21 23 -21t45 26q34 26 48 26
q27 -1 30 -16q4 -15 3 -29q-1 -13 -1 -43t-19 -54q-19 -25 -46 -35q-28 -10 -54 -27q-64 -41 -64 -223q-2 -400 49 -735q11 -72 19 -112t9 -43z" />
    <glyph glyph-name="OE" unicode="&#x152;" horiz-adv-x="2205" 
d="M1217 0q-115 0 -115 45q-101 -76 -271 -76h-204q-199 0 -332 91q-133 90 -189 232t-55 368q0 226 88 481q88 256 247 425t343 169q127 0 221 -66t203 -192q20 94 32 137q11 44 31 66t33 23q12 1 58 1h757q98 0 99 -35q0 -15 -70 -159t-88 -144q-10 0 -44 24
q-33 24 -99 48t-172 24t-208 -72q-104 -72 -104 -199q0 -126 64 -126q45 0 187 48t237 48q28 0 60 -10t32 -33q0 -10 -62 -173t-77 -163q-2 0 -67 20t-112 21q-96 -1 -181 -71t-85 -202t71 -210t209 -78q137 0 296 102q53 34 69 33q21 0 95 -172t73 -194q0 -38 -59 -31h-911
zM729 334q346 0 346 332q0 315 -114 526q-115 211 -232 211t-231 -211t-115 -526q0 -332 346 -332z" />
    <glyph glyph-name="oe" unicode="&#x153;" horiz-adv-x="1826" 
d="M43 658q0 173 52 324t172 255t290 104q244 0 389 -208q158 209 397 208q178 0 297 -97t119 -271q1 -123 -67 -206t-165 -122t-195 -69t-165 -68q-67 -40 -67 -102t86 -111t176 -49t160 26t112 75q42 48 62 101q20 54 26 54q20 0 28 -46t9 -77q0 -188 -128 -299t-318 -111
q-236 0 -393 189q-54 -82 -156 -135t-200 -53t-187 40q-88 41 -165 121t-123 217t-46 310zM557 311q74 0 127 38q53 39 81 101q52 116 52 260t-53 254q-29 60 -82 98t-125 38t-125 -38t-82 -98q-53 -110 -53 -254q0 -145 52 -260q28 -62 81 -100t127 -39zM1333 1100
q-115 0 -189 -98t-73 -199q0 -45 37 -45q53 0 225 60t172 128t-54 111q-55 43 -118 43z" />
    <glyph glyph-name="Scaron" unicode="&#x160;" horiz-adv-x="1323" 
d="M700 2009q20 0 62 51l76 82q60 62 84 62t78 -25t55 -47q0 -25 -45 -70l-205 -219q-49 -51 -69 -57t-58 -6q-39 0 -67 10t-42 22t-53 54l-221 219q-27 23 -27 39q0 6 70 42t129 38q10 0 43 -27l123 -121q47 -47 67 -47zM999 1274q-16 0 -46 29q-31 29 -65 63t-97 64
q-63 28 -143 28t-154 -44q-72 -44 -72 -120t47 -116q19 -16 31 -28t39 -24q27 -14 39 -21t43 -19t39 -15q8 -4 41 -14q323 -101 439 -244t116 -326t-139 -341q-69 -79 -189 -128t-275 -49q-237 0 -411 126t-174 356q0 79 28 147t56 98q29 30 39 31q10 0 18 -43
q22 -121 88 -225q39 -61 126 -105t210 -43q123 0 207 51t84 150t-110 161q-81 45 -201 83q-121 39 -215 89t-147 99q-52 50 -82 110t-38 108t-8 114q0 141 109 290q56 75 166 122t252 47t265 -43q123 -42 185 -92t63 -90q0 -40 -61 -138q-62 -98 -103 -98z" />
    <glyph glyph-name="scaron" unicode="&#x161;" horiz-adv-x="1058" 
d="M568 1614q20 0 63 51l76 82q61 61 85 61t77 -24q54 -24 55 -47q0 -25 -45 -70l-205 -219q-48 -51 -68 -57q-20 -7 -59 -7t-67 10t-42 23q-14 12 -53 53l-221 220q-27 23 -27 39q0 7 71 43t128 36q10 1 43 -26l123 -121q46 -47 66 -47zM979 387q0 -193 -136 -305
q-137 -112 -321 -113q-184 1 -313 99t-129 268q0 96 42 185q15 34 23 34q3 0 13 -32t34 -77t59 -91q37 -45 101 -77t141 -32t132 38t55 102t-57 106t-139 76q-82 32 -162 73t-138 122q-57 81 -57 193q0 180 123 282t299 103q90 0 190 -31t180 -116q28 -31 27 -47
q0 -33 -64 -119t-98 -86q-16 0 -35 25t-39 55t-68 54t-108 24t-106 -24q-47 -24 -47 -74q0 -88 211 -185q88 -41 176 -91t150 -137t61 -202z" />
    <glyph glyph-name="Ydieresis" unicode="&#x178;" horiz-adv-x="1318" 
d="M426 1845q-78 0 -130 44t-52 120t52 120t130 44t130 -44t52 -120t-52 -120t-130 -44zM895 1845q-78 0 -130 44t-52 120t52 120t130 44t130 -44t52 -120t-52 -120t-130 -44zM999 1704h171q76 0 96 -24t20 -85q0 -149 -40 -283t-100 -228t-130 -200t-130 -200t-100 -228
t-41 -286l13 -131q0 -39 -94 -39h-238q-64 0 -64 112q-1 190 103 403q35 73 35 93t-48 74q-167 189 -245 307q-78 117 -126 262t-48 275q1 130 23 154t98 24h163q96 0 113 -33q4 -8 4 -20l-18 -160q0 -135 53 -270t115 -211t93 -76t101 89t131 227t62 251q0 39 -9 103
t-10 65q0 35 47 35z" />
    <glyph glyph-name="Zcaron" unicode="&#x17d;" horiz-adv-x="1269" 
d="M673 2009q20 0 62 51l76 82q61 62 85 62t78 -25t54 -49t-45 -68l-205 -219q-49 -51 -68 -57q-18 -6 -58 -6t-68 10t-41 22q-14 12 -54 54l-221 219q-27 23 -26 39q0 6 70 42t128 38q10 0 43 -27l123 -121q47 -47 67 -47zM133 1686q0 24 68 19q12 -1 14 -1h942
q31 0 55 -16t25 -50q0 -82 -117 -263t-256 -358t-256 -361t-116 -269q0 -61 60 -93t136 -32t138 24t96 52t64 50q30 24 42 24q24 0 92 -182t68 -199q0 -31 -92 -31h-739q-249 0 -265 1t-21 5t-21 14t-17 66q0 133 69 302q70 169 168 321q98 153 196 287t169 238
q70 104 70 140q0 88 -127 88q-74 0 -132 -18t-88 -40q-28 -22 -52 -40t-34 -18q-33 0 -86 154t-53 186z" />
    <glyph glyph-name="zcaron" unicode="&#x17e;" horiz-adv-x="956" 
d="M518 1614q20 0 62 51l75 82q61 61 85 61t78 -24t54 -48t-45 -69l-204 -219q-49 -51 -69 -57q-20 -7 -58 -7q-39 0 -67 10t-42 23q-14 12 -53 53l-221 220q-27 23 -27 39q0 7 71 43t128 36q10 1 43 -26l123 -121q47 -47 67 -47zM813 0h-528q-179 0 -191 1t-24 10
q-17 14 -17 46q0 171 77 351t168 299t168 213t77 108q0 41 -98 41q-97 0 -171 -27t-75 -26q-29 0 -58 116t-29 139t13 35q12 12 55 5h503q169 0 188 -2t21 -11q3 -8 7 -16t4 -35q0 -199 -22 -241q-23 -42 -145 -188q-318 -378 -318 -531q0 -29 17 -37t95 -8t145 16t93 32
t35 15q25 0 57 -120t33 -156q0 -29 -80 -29z" />
    <glyph glyph-name="florin" unicode="&#x192;" 
d="M850 1239q6 0 57 15q116 34 146 -5q16 -20 16 -54q0 -33 -28 -105t-56 -72q-18 0 -57 13t-68 13q-70 0 -87 -65q-11 -43 -11 -121q0 -467 -109 -678t-268 -211q-293 0 -293 76q0 49 39 174t88 125q12 0 35 -16q68 -47 126 30t81 241q24 163 24 236q0 71 1 91t0 29t-2 25
t-9 36q-8 19 -24 23q-17 5 -34 5t-57 -16t-61 -16q-20 0 -24 13q-3 13 -3 44q0 80 59 134q38 36 84 36q47 0 71 27q24 26 33 56t21 83q11 53 17 74q29 92 110 152t162 61q203 0 244 -23q23 -12 23 -38t-39 -120t-62 -94l-100 13q-39 0 -68 -48t-29 -81q0 -62 52 -62z" />
    <glyph glyph-name="circumflex" unicode="&#x2c6;" horiz-adv-x="1126" 
d="M525 1610q-20 0 -62 -51l-76 -82q-61 -61 -85 -61t-78 24t-54 48t45 68l205 220q49 51 68 57t75 6t92 -33q15 -12 54 -53l221 -219q27 -23 26 -39q0 -6 -67 -42t-131 -38q-10 0 -43 27l-123 121q-47 47 -67 47z" />
    <glyph glyph-name="caron" unicode="&#x2c7;" horiz-adv-x="1126" 
d="M602 1552q20 0 62 52l75 82q61 61 85 61t78 -25q54 -24 54 -48t-45 -68l-204 -220q-49 -51 -69 -57t-75 -6q-56 0 -92 33q-14 12 -53 53l-221 219q-27 23 -27 39q0 6 70 43t129 37q10 0 43 -27l123 -121q47 -47 67 -47z" />
    <glyph glyph-name="uni02C9" unicode="&#x2c9;" horiz-adv-x="1024" 
d="M674 1450h-344q-2 0 -38 -2t-46 11t-10 40t31 110q32 83 83 83h344q2 0 22 1q72 4 72 -37q0 -40 -32 -123t-82 -83z" />
    <glyph glyph-name="breve" unicode="&#x2d8;" horiz-adv-x="819" 
d="M706 1778q38 0 45 -14t7 -70q0 -55 -92 -136t-246 -81q-156 1 -257 73t-102 152q0 37 35 56t88 20q98 0 148 -53t132 -53q83 0 143 52q61 54 99 54z" />
    <glyph glyph-name="dotaccent" unicode="&#x2d9;" horiz-adv-x="1024" 
d="M512 1450q-78 0 -130 44t-52 120t52 120t130 44t130 -44t52 -120t-52 -120t-130 -44z" />
    <glyph glyph-name="ring" unicode="&#x2da;" horiz-adv-x="819" 
d="M410 1513q48 0 76 33t28 79t-32 77t-74 31t-73 -32q-30 -32 -30 -77t29 -78t76 -33zM409 1386q-105 0 -179 70q-72 70 -72 168t71 167q72 69 180 69q109 0 181 -67t72 -167t-74 -170t-179 -70z" />
    <glyph glyph-name="ogonek" unicode="&#x2db;" horiz-adv-x="819" 
d="M90 -242q0 122 115 184t307 62v-14q-23 -8 -40 -38t-17 -80t49 -82t108 -36q58 -4 108 -5t50 -5q0 -50 -124 -95q-124 -46 -292 -46q-102 0 -183 49t-81 106z" />
    <glyph glyph-name="tilde" unicode="&#x2dc;" horiz-adv-x="839" 
d="M260 1778q80 0 203 -50t177 -49q54 -1 80 13t33 29t15 29t23 13q49 0 49 -26q0 -35 -22 -83t-51 -82q-30 -34 -90 -60t-143 -26q-84 0 -214 49q-130 48 -171 48t-59 -18q-18 -19 -22 -37t-7 -19q-61 0 -61 29q0 82 70 161t190 79z" />
    <glyph glyph-name="hungarumlaut" unicode="&#x2dd;" horiz-adv-x="1161" 
d="M428 1829q14 0 38 1q107 4 107 -48q1 -27 -77 -120t-182 -178t-160 -79q-27 -1 -27 13t25 55l155 290q9 17 15 25t10 17t11 13t12 7q5 4 32 4h41zM888 1829q15 0 39 1q107 4 107 -48q0 -27 -78 -120t-181 -178t-161 -79q-27 -1 -27 13t25 55l156 290q8 17 14 25t11 17
q4 9 11 13t12 7q5 4 32 4h40z" />
    <glyph glyph-name="uni03A9" unicode="&#x3a9;" horiz-adv-x="1478" 
d="M342 268v6q-244 285 -244 656q0 311 180 533t465 223q154 0 278 -69q221 -123 310 -415q39 -125 39 -250q0 -205 -71 -383t-175 -295v-6h279v-268h-572v195q92 69 154 239t62 420t-79 401q-78 150 -226 150t-234 -151q-86 -152 -86 -396t63 -421t154 -242v-195h-571v268
h274z" />
    <glyph glyph-name="uni03BC" unicode="&#x3bc;" horiz-adv-x="1138" 
d="M578 334q-133 0 -165 -20t-32 -74q0 -55 39 -211q0 -29 -66 -29h-168q-41 0 -54 8t-26 82q-12 74 -12 244v500q0 477 101 477h188q4 0 18 1t33 -1t25 -11q6 -8 6 -18t-24 -74q-72 -190 -71 -336q1 -147 55 -204q106 -112 254 -11q38 27 62 93q49 130 10 330
q-17 86 -35 142t-20 64q0 25 70 25h190q63 0 75 -196q13 -196 13 -351q0 -365 -32 -419t-58 -60t-55 -6h-68q-40 0 -65 10q-44 18 -30 70q14 53 -25 55q-7 0 -51 -40t-82 -40z" />
    <glyph glyph-name="pi" unicode="&#x3c0;" horiz-adv-x="1318" 
d="M1128 969v-633q0 -213 27 -336h-305q-39 78 -39 330v639h-260q-10 -213 -46 -498t-89 -471h-305q51 215 88 500t41 469q-121 0 -197 -21l-35 221q102 84 371 84h913l-20 -284h-144z" />
    <glyph glyph-name="endash" unicode="&#x2013;" horiz-adv-x="1024" 
d="M961 526h-918q-2 0 -21 -1q-73 -4 -73 37q0 40 32 123t82 83h918q2 0 38 2t46 -11t10 -40q1 -27 -31 -110t-83 -83z" />
    <glyph glyph-name="emdash" unicode="&#x2014;" horiz-adv-x="2048" 
d="M1985 526h-1942q-2 0 -21 -1q-73 -4 -73 37q0 40 32 123t82 83h1942q2 0 38 2t46 -11t10 -40q1 -27 -31 -110t-83 -83z" />
    <glyph glyph-name="quoteleft" unicode="&#x2018;" horiz-adv-x="696" 
d="M305 1169q-82 0 -142 74q-61 75 -61 171t70 176t151 113q81 32 123 32q42 -1 41 -7q0 -6 -13 -28q-40 -66 -40 -128t25 -102t55 -51q30 -12 56 -20q24 -8 24 -17t-41 -36l-170 -138q-53 -39 -78 -39z" />
    <glyph glyph-name="quoteright" unicode="&#x2019;" horiz-adv-x="696" 
d="M391 1735q83 0 143 -74q60 -75 60 -171t-70 -176t-150 -113q-80 -32 -123 -32q-42 1 -42 7t13 28q40 66 40 128t-24 102q-25 39 -56 51q-32 12 -56 20t-24 15q0 12 41 39l170 137q53 39 78 39z" />
    <glyph glyph-name="quotesinglbase" unicode="&#x201a;" horiz-adv-x="696" 
d="M391 434q83 0 143 -74t60 -170t-70 -177t-150 -113t-149 -31q-16 0 -16 10q0 2 13 24q40 68 40 129q0 62 -24 101q-25 39 -56 51q-32 12 -56 20t-24 15q0 12 41 39l170 137q53 39 78 39z" />
    <glyph glyph-name="quotedblleft" unicode="&#x201c;" horiz-adv-x="1259" 
d="M305 1169q-82 0 -142 74q-61 75 -61 171t70 176t151 113q81 32 123 32q42 -1 41 -7q0 -6 -13 -28q-40 -66 -40 -128t25 -102t55 -51q30 -12 56 -20q24 -8 24 -17t-41 -36l-170 -138q-53 -39 -78 -39zM868 1169q-82 0 -142 74q-60 75 -60 171t70 176t150 113q80 32 122 32
q42 -1 42 -7t-12 -28q-39 -61 -40 -125q-1 -65 24 -105q26 -40 56 -51q30 -12 55 -20t24 -15q0 -11 -41 -38l-170 -138q-53 -39 -78 -39z" />
    <glyph glyph-name="quotedblright" unicode="&#x201d;" horiz-adv-x="1259" 
d="M954 1735q82 0 142 -74q60 -75 61 -171q0 -96 -70 -176q-71 -80 -151 -113q-80 -32 -122 -32q-42 1 -42 7t13 28q40 66 40 128t-24 102q-25 39 -56 51t-55 20t-24 15q0 12 41 39l170 137q53 39 77 39zM391 1735q83 0 143 -74q60 -75 60 -171t-70 -176t-150 -113
q-80 -32 -123 -32q-42 1 -42 7t13 28q40 66 40 128t-24 102q-25 39 -56 51q-32 12 -56 20t-24 15q0 12 41 39l170 137q53 39 78 39z" />
    <glyph glyph-name="quotedblbase" unicode="&#x201e;" horiz-adv-x="1259" 
d="M954 434q82 0 142 -74t61 -170q0 -96 -70 -177q-71 -81 -151 -113t-148 -31q-16 0 -16 10q0 2 13 24q40 68 40 129q0 62 -24 101q-25 39 -56 51t-55 20t-24 15q0 12 41 39l170 137q53 39 77 39zM391 434q83 0 143 -74t60 -170t-70 -177t-150 -113t-149 -31q-16 0 -16 10
q0 2 13 24q40 68 40 129q0 62 -24 101q-25 39 -56 51q-32 12 -56 20t-24 15q0 12 41 39l170 137q53 39 78 39z" />
    <glyph glyph-name="dagger" unicode="&#x2020;" horiz-adv-x="1191" 
d="M436 1722h316l-25 -503l377 20v-299l-377 21l25 -1086h-316l23 1086l-375 -21v299l375 -20z" />
    <glyph glyph-name="daggerdbl" unicode="&#x2021;" horiz-adv-x="1191" 
d="M442 1722h295l-18 -473l387 21v-289l-387 23v-414l387 22v-286l-387 20l18 -471h-295l15 471l-373 -20v286l375 -22v414l-375 -23v289l375 -21z" />
    <glyph glyph-name="bullet" unicode="&#x2022;" horiz-adv-x="819" 
d="M410 410q-176 0 -293 116t-117 293q0 176 117 293t293 117t292 -117t117 -293q-1 -177 -117 -293t-292 -116z" />
    <glyph glyph-name="ellipsis" unicode="&#x2026;" horiz-adv-x="2048" 
d="M1705 -31q-95 0 -162 67t-67 160q0 92 68 158q66 66 160 66t163 -66t69 -160t-68 -159q-68 -66 -163 -66zM1023 -31q-95 0 -162 67t-67 160q0 92 68 158q66 66 160 66t163 -66t69 -160t-68 -159q-68 -66 -163 -66zM341 -31q-95 0 -162 67t-67 160q0 92 68 158
q66 66 160 66t163 -66t69 -160t-68 -159q-68 -66 -163 -66z" />
    <glyph glyph-name="perthousand" unicode="&#x2030;" horiz-adv-x="2648" 
d="M578 -20h-170l815 1701h170zM422 1491h-2q-129 1 -129 -319t133 -320q125 0 125 320t-127 319zM428 1686h4q154 0 252 -130t98 -378q0 -246 -102 -382t-259 -136t-260 134q-103 136 -103 376t104 378q106 138 266 138zM1397 815q-129 0 -129 -318t131 -319q127 0 127 320
q0 162 -30 240t-99 77zM1403 1010h2q154 0 253 -130t99 -376t-102 -382t-259 -136t-259 134q-103 134 -103 374t104 378t265 138zM2228 817h-2q-129 -1 -129 -321t129 -320t129 320t-127 321zM2232 1010h4q152 0 252 -130t100 -376t-102 -382q-104 -136 -261 -136t-258 134
t-101 374t103 378t263 138z" />
    <glyph glyph-name="guilsinglleft" unicode="&#x2039;" horiz-adv-x="733" 
d="M399 1138q10 14 31 13q21 0 80 -39q60 -39 68 -44q54 -31 53 -58q0 -27 -51 -88l-177 -224q-31 -37 -31 -51t31 -51l177 -223q51 -61 51 -85t-21 -39t-38 -27q-16 -11 -71 -45q-55 -33 -73 -34t-28 13q-11 14 -15 19l-244 368q-39 53 -39 105t39 104l232 350q8 12 12 17
t14 19z" />
    <glyph glyph-name="guilsinglright" unicode="&#x203a;" horiz-adv-x="733" 
d="M631 648q0 -52 -39 -105l-223 -338q-9 -12 -26 -37t-37 -25q-19 0 -66 30t-87 55q-51 32 -51 58t52 87l176 223q31 37 30 51q0 14 -30 51l-176 224q-52 62 -52 84t12 32l23 18q11 7 19 12t69 44t74 39q14 0 22 -4t48 -57l223 -338q39 -52 39 -104z" />
    <glyph glyph-name="fraction" unicode="&#x2044;" horiz-adv-x="473" 
d="M-51 -20h-201l778 1703h201z" />
    <glyph glyph-name="Euro" unicode="&#x20ac;" 
d="M834 254q168 0 258 82v-299q-88 -66 -320 -66q-477 0 -557 570h-176l67 219h87q-8 75 0 137h-154l67 219h105q80 573 561 574q211 0 320 -74v-301q-84 88 -261 88q-244 0 -282 -287h477l-70 -219h-430l-2 -63l2 -74h385l-69 -219h-291q35 -287 283 -287z" />
    <glyph glyph-name="afii61289" unicode="&#x2113;" horiz-adv-x="1118" 
d="M532 1204v-305q102 133 162 271t60 236t-24 140q-24 43 -81 43q-117 0 -117 -385zM633 -25q-197 0 -294 109t-112 274q0 18 -2 27q-12 -8 -50 -41t-58 -49l-74 170q20 18 81 71t99 95v598q0 289 116 443t282 153q165 0 241 -118t76 -310q0 -367 -406 -799v-127
q2 -113 50 -174t125 -61q135 -1 260 202l120 -133q-156 -330 -454 -330z" />
    <glyph glyph-name="trademark" unicode="&#x2122;" horiz-adv-x="2048" 
d="M510 1223q0 -305 72 -521q0 -20 -78 -20h-142l-29 -2q-21 0 -29 16q-9 16 -16 40t-14 106q-6 80 -6 178t18 240t42 235q0 33 -29 33q-49 0 -158 -64t-120 -63q-11 0 -11 30q0 31 20 115t34 106q12 22 131 46t261 24t264 -34t122 -76q0 -37 -33 -104t-47 -66q-8 0 -31 22
q-69 64 -141 64q-80 0 -80 -305zM1677 682q-26 0 -26 18q0 2 29 112q50 186 53 448q0 176 -41 176q-25 0 -86 -152q-43 -96 -67 -200t-40 -135t-61 -31q-79 1 -97 87q-28 131 -96 279q-4 6 -31 79t-47 73q-39 0 -39 -178t20 -285t34 -159q12 -52 20 -82t8 -32q0 -18 -62 -18
h-109q-47 0 -60 2t-23 21q-29 80 -28 413l12 367q17 187 56 211q13 8 48 8h117q43 0 67 -12t80 -85t97 -153t50 -80t21 26q11 26 50 89t97 130t102 82q13 3 47 3h96q53 0 67 -39q20 -43 33 -180l12 -367q0 -334 -28 -413l-5 -10t-8 -8l-8 -4q-3 -1 -67 -1h-187z" />
    <glyph glyph-name="Omega" unicode="&#x2126;" horiz-adv-x="1478" 
d="M342 268v6q-244 285 -244 656q0 311 180 533t465 223q154 0 278 -69q221 -123 310 -415q39 -125 39 -250q0 -205 -71 -383t-175 -295v-6h279v-268h-572v195q92 69 154 239t62 420t-79 401q-78 150 -226 150t-234 -151q-86 -152 -86 -396t63 -421t154 -242v-195h-571v268
h274z" />
    <glyph glyph-name="estimated" unicode="&#x212e;" horiz-adv-x="2076" 
d="M1642 868v471q0 33 -22 56q-252 245 -584 245t-581 -254q-23 -23 -23 -57v-461q0 -16 12 -16h1188q10 0 10 16zM1995 807h-1551q-12 0 -12 -10v-469q0 -29 21 -54q246 -256 585 -256q182 0 342 77t275 210h137q-129 -154 -329 -244t-427 -90q-395 0 -676 252t-280 606
q0 236 128 435q128 200 348 314t480 114q397 0 678 -252t281 -611v-22z" />
    <glyph glyph-name="partialdiff" unicode="&#x2202;" horiz-adv-x="1265" 
d="M571 260h2q68 0 123 79q103 148 125 406q-18 59 -72 111q-55 52 -143 53q-88 -1 -148 -115t-60 -248t46 -210q47 -76 127 -76zM561 1880q246 0 421 -232t175 -684t-163 -717t-455 -265q-143 0 -251 88q-204 166 -204 465t136 470t335 171q104 0 181 -50t108 -106h2
q2 14 2 70q0 200 -94 358t-246 158t-277 -113l-84 254q168 133 414 133z" />
    <glyph glyph-name="Delta" unicode="&#x2206;" horiz-adv-x="1413" 
d="M379 266h643l-199 608q-14 62 -59 222t-55 213h-7q-8 -45 -50 -189t-58 -211zM57 0v190l471 1502h377l449 -1495v-197h-1297z" />
    <glyph glyph-name="product" unicode="&#x220f;" horiz-adv-x="1583" 
d="M1522 1360h-207v-1589h-318v1589h-413v-1589h-318v1589h-209v301h1465v-301z" />
    <glyph glyph-name="summation" unicode="&#x2211;" horiz-adv-x="1202" 
d="M1161 -229h-1106v217l500 733l-487 706v234h1060v-277h-643v-6l424 -596l-479 -696v-6h731v-309z" />
    <glyph glyph-name="minus" unicode="&#x2212;" 
d="M1083 578h-979v192h979v-192z" />
    <glyph glyph-name="uni2215" unicode="&#x2215;" horiz-adv-x="473" 
d="M-51 -20h-201l778 1703h201z" />
    <glyph glyph-name="uni2219" unicode="&#x2219;" horiz-adv-x="593" 
d="M296 463q-95 1 -162 67q-66 66 -66 159t66 159q67 66 161 66t163 -66q68 -66 68 -160t-67 -160q-68 -65 -163 -65z" />
    <glyph glyph-name="radical" unicode="&#x221a;" horiz-adv-x="1308" 
d="M1323 2005l-483 -2322h-250l-307 1017l-162 -63l-49 184l403 164l195 -688q6 -31 16 -81t16 -85t11 -59l4 -4q2 6 13 98t22 149l354 1690h217z" />
    <glyph glyph-name="infinity" unicode="&#x221e;" horiz-adv-x="1757" 
d="M1276 899h-2q-56 0 -108 -29t-86 -70q-35 -40 -67 -77t-36 -43q99 -133 163 -180t147 -47q83 1 135 69t52 157t-54 155q-56 66 -144 65zM489 453h5q57 -1 113 33t90 71t91 107q-51 70 -69 94q-17 24 -61 68q-75 74 -172 73q-97 0 -150 -63q-53 -64 -53 -160t60 -160
t146 -63zM1651 686v-2q0 -184 -110 -295t-259 -110q-106 0 -200 54t-199 197q-97 -124 -193 -188t-233 -64t-244 111t-107 285t109 286t272 111q119 0 214 -61t188 -185q106 125 168 168q109 78 249 77q140 0 242 -106t103 -278z" />
    <glyph glyph-name="integral" unicode="&#x222b;" horiz-adv-x="927" 
d="M594 1372q0 -190 15 -546t16 -582q0 -328 -74 -480q-86 -182 -311 -182q-111 0 -177 37l37 238q50 -23 102 -23t81 43q51 82 51 335q0 252 -16 618t-15 575q0 209 31 335t104 208q100 113 281 112q78 1 141 -22l-31 -232q-37 18 -73 19q-70 0 -109 -62q-53 -76 -53 -391z
" />
    <glyph glyph-name="approxequal" unicode="&#x2248;" 
d="M213 568q86 69 178 69t160 -36q20 -11 31 -16q18 -8 99 -60t124 -52q76 0 134 78q21 29 56 86l111 -98q-51 -111 -131 -179t-176 -68t-225 85q-129 84 -183 84q-54 1 -74 -15t-35 -24q-16 -9 -48 -61q-33 -52 -44 -66l-110 98q47 106 133 175zM799 727q-96 0 -234 88
q-113 78 -169 78q-56 -1 -78 -15q-55 -37 -73 -66q-19 -28 -30 -42t-25 -39l-110 98q49 107 134 175q152 122 346 25q16 -9 36 -18q19 -9 33 -20q13 -11 32 -23q19 -10 33 -20t20 -13t19 -9q11 -6 19 -8t21 -6t36 -5q55 0 96 40t90 124l111 -98q-51 -111 -131 -179t-176 -67
z" />
    <glyph glyph-name="notequal" unicode="&#x2260;" 
d="M1083 1010v-187h-342l-125 -301h467v-184h-532l-105 -250l-143 55l84 195h-283v184h349l122 301h-471v187h537l100 243l146 -51l-82 -192h278z" />
    <glyph glyph-name="lessequal" unicode="&#x2264;" 
d="M1087 -41h-978v191h978v-191zM1077 233l-960 510v203l958 510v-217l-786 -391v-4l788 -393v-218z" />
    <glyph glyph-name="greaterequal" unicode="&#x2265;" 
d="M1085 -41h-974v191h974v-191zM123 1456l960 -510v-203l-960 -510v218l786 393v4l-786 391v217z" />
    <glyph glyph-name="lozenge" unicode="&#x25ca;" horiz-adv-x="1306" 
d="M915 821l-210 518q-33 102 -43 164h-9q-18 -94 -43 -164l-219 -503l215 -531q20 -63 37 -151h12q23 111 39 145zM1198 829l-424 -944h-260l-405 944l423 947h261z" />
    </font>
</defs>
</svg>
