<?xml version="1.0" standalone="no"?>
<!DOCTYPE svg PUBLIC "-//W3C//DTD SVG 1.1//EN" "http://www.w3.org/Graphics/SVG/1.1/DTD/svg11.dtd" >
<svg xmlns="http://www.w3.org/2000/svg">
<metadata>
Created by FontPrep 20130207 at Fri Mar  3 11:21:14 2017
 By bwbuser
(c) vallex
</metadata>
<defs>
<font id="f84c80a2c027a891385a033b8a70351d" horiz-adv-x='1024' >
  <font-face 
    font-family="ObelixPro-Bold"
    font-weight="700"
    font-stretch="normal"
    units-per-em="2048"
    panose-1="2 0 0 0 0 0 0 0 0 0"
    ascent="1638"
    descent="-410"
    x-height="2126"
    cap-height="2129"
    bbox="-163 -783 3439 2828"
    underline-thickness="591"
    underline-position="234"
    unicode-range="U+0020-2212"
  />
<missing-glyph horiz-adv-x="1586" 
 />
    <glyph glyph-name=".notdef" horiz-adv-x="1586" 
 />
    <glyph glyph-name=".null" horiz-adv-x="0" 
 />
    <glyph glyph-name="nonmarkingreturn" horiz-adv-x="682" 
 />
    <glyph glyph-name="space" unicode=" " horiz-adv-x="715" 
 />
    <glyph glyph-name="space" unicode="&#xa0;" horiz-adv-x="715" 
 />
    <glyph glyph-name="exclam" unicode="!" horiz-adv-x="848" 
d="M312 -29q-133 28 -206 124q-74 97 -47 211q10 65 52 107q100 100 217 120q160 29 265 -46q104 -75 132 -177t-55 -216q-65 -89 -218 -127q-68 -16 -140 4zM182 735q3 6 -10 679q0 319 -3 732l702 -39l-227 -1402z" />
    <glyph glyph-name="quotedbl" unicode="&#x22;" horiz-adv-x="1050" 
d="M1040 2220q-107 -455 -91 -790l-400 -91l39 820zM471 2246q-65 -458 -9 -790l-394 -143l-39 813z" />
    <glyph glyph-name="numbersign" unicode="#" horiz-adv-x="2431" 
d="M1008 1109q0 -68 -10 -209l354 13l7 212q-120 -3 -351 -16zM504 1876l572 78q-26 -241 -45 -481l321 13v390l569 78q-26 -224 -45 -449l445 26l3 -370q-75 -3 -234 -5t-231 -12q-13 -104 -3 -208l426 23l29 -371q-146 -7 -455 -13q3 -85 7 -162l16 -159l-520 -108v410
q-117 -3 -342 -16q0 -143 14 -286l-524 -108v361q-81 -3 -149 -10l-173 -9l-126 370l448 16v205q-150 -3 -322 -22l-97 373l416 30v416z" />
    <glyph glyph-name="dollar" unicode="$" horiz-adv-x="1794" 
d="M991 764q-9 0 -9 -13l-13 -364h3q94 20 153 45q29 0 58 23q42 0 91 91v78q-59 75 -159 101q0 16 -78 26l-23 13h-23zM452 1489q0 -62 117 -130q16 0 58 -23q23 0 49 -16h13l3 283l13 32q-59 -20 -113 -23q-7 -10 -72 -35q-68 -46 -68 -88zM767 2341h224l26 -17l-3 -45
v-104l13 -10h108q296 -20 331 -36l114 -29q111 -33 110 -55v-4l-26 -52l-26 -81l-81 -214l-68 -163h-3q-26 0 -85 29l-88 23q-68 29 -256 39l-66 7v-381l17 -16h42l124 -23q111 -20 230 -74q101 -29 228 -140q68 -88 68 -104q16 0 20 -59q16 0 32 -75v-123
q-33 -137 -114 -250q0 -13 -113 -114q-65 -65 -134 -98q-104 -59 -201 -94q0 -10 -78 -23q0 -7 -78 -26q-7 -10 -69 -16v-124l-19 -22h-198q-36 0 -39 16v78l-17 16h-32q-231 16 -335 36q-36 0 -97 33q-169 36 -212 84v7l30 162q13 0 16 140q16 13 29 159h23q20 0 143 -91
l68 -19q42 -33 81 -33q0 -16 221 -32q85 0 85 22l-3 10l3 185v215q-29 20 -137 36q0 10 -71 26l-65 29q-7 16 -42 16q0 13 -49 26l-117 75q-75 59 -101 117q-68 72 -101 211v140q0 42 30 107q33 120 182 247q85 72 250 160q156 55 179 55t68 36l-3 42v120q-1 43 32 43z" />
    <glyph glyph-name="uni0025" unicode="%" horiz-adv-x="1999" 
d="M1339 325q0 -26 46 -26h36q46 0 113 98l33 104v6q0 91 -101 111h-36q-112 -50 -130 -189q7 -104 39 -104zM1365 -59h-29q-159 0 -283 124q-46 65 -71 140q0 20 -23 84v7h6l-6 62v39q26 159 39 175q39 143 198 299q166 120 270 120l42 4q241 0 355 -189q23 -16 55 -127
v-178q-26 -137 -81 -247q-117 -202 -316 -277q-120 -36 -156 -36zM380 1714q0 -83 62 -105l20 -6h48q65 0 127 87l13 78v20q0 62 -71 88h-69q-98 -36 -97 -78q-33 -1 -33 -84zM1759 2006q0 -10 -65 -101l-186 -283q-10 0 -22 -45q-16 -3 -26 -46l-215 -318
q-270 -406 -624 -855q-208 -260 -364 -413q-49 7 -254 201v4q88 72 234 263q156 185 442 601l192 277q293 410 585 868l20 6l49 -36q0 -7 32 -6q42 -39 202 -104v-13zM413 1320q-169 0 -250 65q-98 49 -140 143l-20 71v121q23 111 75 185q20 46 166 159q120 78 266 101h169
q169 -39 192 -71q81 -23 146 -170l14 -78q0 -215 -186 -373q-133 -111 -234 -124q0 -13 -192 -29h-6z" />
    <glyph glyph-name="ampersand" unicode="&#x26;" horiz-adv-x="2087" 
d="M543 653v-74q0 -36 49 -78q68 -39 133 -46h3q169 20 202 46q23 0 91 39v13q-36 0 -325 263h-10q-107 -81 -133 -140q-10 0 -10 -23zM790 1573h-16q-68 -39 -69 -84q0 -98 65 -150q26 -33 49 -48q85 0 189 123l13 39v29q-23 13 -23 46q-55 52 -150 52zM1421 1573
q3 0 13 -65q0 -36 -20 -159q-13 0 -26 -58q-7 0 -52 -52q-124 -120 -166 -137q-49 -36 -65 -36q0 -10 -26 -16v-10l212 -166q72 -42 94 -42q78 98 91 143q29 36 49 108q10 0 22 52l4 3h9q62 -36 88 -39q0 -13 130 -59l114 -42l6 -13l-45 -114q-7 0 -16 -32q-10 -7 -26 -43
l-114 -159q0 -13 84 -45q75 -46 156 -75t104 -52v-3q-46 -81 -130 -186q-75 -104 -133 -156l-19 -6l-140 58l-218 124l-175 -104l-147 -55l-71 -23l-117 -29l-169 -7q-182 7 -251 36q-127 36 -178 71q-78 33 -163 182q-33 52 -52 163v36q0 199 185 364q111 104 205 153v6
l-49 88q-91 163 -100 250q-7 0 -13 36h-4l4 19v39q26 127 48 127q0 39 108 150q101 68 182 97q3 6 130 26h117l130 -19q208 -55 322 -192q78 -81 78 -137z" />
    <glyph glyph-name="quotesingle" unicode="'" horiz-adv-x="936" 
d="M595 2233l-423 -481l-247 111l306 497z" />
    <glyph glyph-name="parenleft" unicode="(" horiz-adv-x="991" 
d="M774 2344q-403 -1222 -10 -2575l-224 -120q-991 1421 -13 2776z" />
    <glyph glyph-name="parenright" unicode=")" horiz-adv-x="952" 
d="M462 2425q988 -1356 -13 -2776l-228 120q400 1352 -6 2575z" />
    <glyph glyph-name="asterisk" unicode="*" horiz-adv-x="1362" 
d="M1281 1788q-169 -94 -348 -189l270 -178l-244 -234q-39 16 -189 123q-10 -114 -16 -227l-348 -52l46 289q-38 -29 -128 -78t-126 -72l-175 221l338 182q-130 75 -273 160l208 269l244 -152l42 266l318 4l-29 -131q-7 -72 -13 -136l312 179z" />
    <glyph glyph-name="plus" unicode="+" horiz-adv-x="1602" 
d="M1492 741q-215 -16 -429 -36q3 -130 42 -334l-520 -72v354q-156 -13 -364 -42l-136 426l471 46l-62 383l566 33q-46 -286 -52 -390l409 55z" />
    <glyph glyph-name="comma" unicode="," horiz-adv-x="741" 
d="M725 432q-247 -371 -348 -666h-494l247 689z" />
    <glyph glyph-name="hyphen" unicode="-" horiz-adv-x="1010" 
d="M900 757q-449 16 -776 -19l-39 478l828 10z" />
    <glyph glyph-name="hyphen" unicode="&#xad;" horiz-adv-x="1010" 
d="M900 757q-449 16 -776 -19l-39 478l828 10z" />
    <glyph glyph-name="period" unicode="." horiz-adv-x="799" 
d="M283 -29q-158 32 -211 123q-71 120 -49 212q20 65 60 107q144 148 343 127q134 -23 218 -130q34 -42 48 -100t-6 -112q-29 -122 -143 -183q-138 -78 -260 -44z" />
    <glyph glyph-name="slash" unicode="/" horiz-adv-x="2139" 
d="M1599 2090l618 -133q-1040 -1131 -1687 -2032l-598 75z" />
    <glyph glyph-name="zero" unicode="0" horiz-adv-x="1950" 
d="M1076 1603q-218 0 -380 -257q-124 -202 -150 -384q-10 -104 7 -188q29 -117 131 -192t265 -75q224 0 358 159q107 138 129 334t-77 400q-98 204 -283 203zM1109 2194q416 0 676 -338q265 -338 204 -799q-55 -393 -328 -716q-335 -403 -819 -403q-423 0 -676 329
q-120 156 -169 360q-55 198 -23 430q46 403 312 731q335 406 823 406z" />
    <glyph glyph-name="one" unicode="1" horiz-adv-x="1339" 
d="M1271 2068q-137 -1092 -42 -1941l-631 -130l-10 1453l-500 -59l-26 530z" />
    <glyph glyph-name="two" unicode="2" horiz-adv-x="1891" 
d="M952 1580q-169 0 -133 -192l-695 -101q26 627 490 784q133 46 270 45q299 0 569 -146q341 -189 403 -458q62 -244 -175 -478q-182 -176 -585 -319q-306 -104 -371 -208l1008 46l48 -524l-1703 -68q-20 65 -32 120q-68 283 32 481q130 241 722 488q319 137 357 267
q16 71 0 123t-70 96t-135 44z" />
    <glyph glyph-name="three" unicode="3" horiz-adv-x="1843" 
d="M644 777q-208 0 -550 -29l30 465q309 172 598 331q-328 -23 -650 -55l-79 536l1558 62q-1 -208 22 -627q-250 0 -588 -247q751 -81 835 -413q66 -283 -344 -571t-842 -258q-507 29 -673 523l705 75q-7 -29 -3 -62q13 -46 85 -45q23 0 58 6q166 36 231 120q26 33 20 62
q-29 127 -413 127z" />
    <glyph glyph-name="four" unicode="4" horiz-adv-x="1787" 
d="M972 1807l640 78q-59 -559 -68 -887l176 13l61 -527h-126q-72 -7 -108 -6q0 -189 26 -377l-591 -104l-7 465q-377 -20 -760 -49l-212 237l195 1352l712 82q-169 -605 -270 -1119l335 13z" />
    <glyph glyph-name="five" unicode="5" horiz-adv-x="1765" 
d="M624 3q-260 0 -439 195q-104 101 -143 296q-33 114 -42 247l699 -42q-25 -148 75 -150q20 0 42 4q150 36 218 139q29 62 16 104q-13 59 -72 104q-91 78 -396 78q-140 0 -312 -13l-237 -45q-3 419 32 1105l1430 65l52 -517q-426 -16 -884 -29q-3 -52 -6 -130
q917 -13 1043 -397q68 -172 -52 -377q-78 -169 -253 -315q-380 -322 -771 -322z" />
    <glyph glyph-name="six" unicode="6" horiz-adv-x="1878" 
d="M965 455q72 0 170 36q195 62 172 153q-10 42 -57 83t-112 40q23 0 -260 -45q-107 -26 -215 -56q98 -211 302 -211zM1057 2116q406 0 676 -312l-364 -416q-52 39 -101 81q-65 42 -124 43q-241 0 -409 -342q429 103 796 10q289 -78 341 -286q10 -55 7 -124
q-33 -273 -302 -503q-289 -260 -679 -260t-657 305q-150 182 -199 410q-42 156 -32 338q20 374 270 686q309 370 777 370z" />
    <glyph glyph-name="seven" unicode="7" horiz-adv-x="1456" 
d="M1489 2126l-641 -2077l-627 -52l429 1505l-692 -36l32 530z" />
    <glyph glyph-name="eight" unicode="8" horiz-adv-x="2067" 
d="M1469 754q-21 84 -137 130t-268 36t-285 -94q-132 -84 -100 -205q20 -94 147 -143q107 -42 234 -36q179 7 302 98q133 94 107 214zM1079 1629q-107 -3 -196 -63t-74 -136q29 -120 254 -110q117 6 202 60t71 128q-20 64 -98 96t-159 25zM1642 1232q384 -137 448 -423
q13 -52 10 -123q-13 -283 -338 -501q-312 -198 -735 -224q-442 -20 -738 166q-221 124 -263 312q-55 244 140 468q124 159 361 267q-270 104 -316 292q-10 42 -9 104q13 234 302 403q270 153 626 169t616 -123q195 -111 237 -267q62 -305 -341 -520z" />
    <glyph glyph-name="nine" unicode="9" horiz-adv-x="2041" 
d="M982 1154q133 7 240 75t85 169q-23 72 -114 109t-202 34q-133 -13 -230 -78q-120 -72 -101 -176q23 -72 123 -104q85 -42 199 -29zM972 777q-445 -16 -741 159q-215 130 -260 322q-20 65 -17 137q16 293 339 500q325 202 749 225t723 -153q228 -137 275 -333t-86 -389
q-328 -676 -498 -1225l-634 74l293 699q-36 -9 -143 -16z" />
    <glyph glyph-name="colon" unicode=":" horiz-adv-x="815" 
d="M203 1130q-173 99 -141 297q13 55 55 101q87 95 226 121t245 -40t145 -185q18 -55 -5 -111q-48 -177 -268 -230q-124 -30 -257 47zM203 400q-54 29 -91 78q-72 96 -50 211t151 185q132 71 260 46q128 -24 208 -120q34 -42 52 -101t-5 -114q-50 -185 -268 -227
q-131 -25 -257 42z" />
    <glyph glyph-name="semicolon" unicode=";" horiz-adv-x="871" 
d="M286 1130q-111 56 -145 180q-15 55 5 117q10 55 51 101q83 93 229 120q147 27 264 -37q117 -65 152 -187q31 -108 -49 -207t-219 -130t-288 43zM764 699q-237 -465 -351 -842l-465 -3l228 884z" />
    <glyph glyph-name="equal" unicode="=" horiz-adv-x="1479" 
d="M1437 449q-618 -26 -1209 -108l-147 426l1271 107zM1395 1063q-699 -36 -1219 -111l-130 423l1271 111z" />
    <glyph glyph-name="question" unicode="?" horiz-adv-x="1375" 
d="M437 -33q-124 -30 -255 48q-105 62 -140 182q-16 54 4 109q13 65 53 107q144 148 343 127q136 -23 218 -130q33 -42 49 -100t-2 -112q-42 -127 -146 -183q-57 -31 -124 -48zM621 900l-33 -208l-432 23l-16 481q556 127 596 340q41 213 -603 177l65 468q462 -23 767 -136
q393 -146 365 -436q-46 -371 -456 -598q-97 -52 -253 -111z" />
    <glyph glyph-name="at" unicode="@" horiz-adv-x="2815" 
d="M1105 725q0 -114 121 -114q98 0 185 81q62 65 78 140q9 72 -39 114t-122 28t-148 -91q-75 -76 -75 -158zM2389 1252q0 306 -321 477q-257 150 -569 150q-507 0 -784 -322q-211 -247 -211 -637q0 -276 136 -644l-549 -335q-98 439 -98 797q0 553 238 952q215 345 588 524
q335 166 725 166q481 0 849 -225q468 -276 468 -721q0 -325 -280 -810q-234 -403 -783 -663l-296 250l45 260q-218 -137 -448 -136q-163 0 -273 91q-137 111 -137 289q0 302 283 569q217 214 484 273q117 23 241 0l3 16q65 7 114 7l201 -10q55 0 124 10q-68 -299 -114 -559
l-120 -556q345 293 432 539q52 133 52 248z" />
    <glyph glyph-name="A" unicode="A" horiz-adv-x="1797" 
d="M1031 761l-160 747l-130 -751zM-46 120q335 969 508 1928l845 111q153 -868 536 -1996l-640 -134l-91 355l-420 -39l-71 -358z" />
    <glyph glyph-name="B" unicode="B" horiz-adv-x="1745" 
d="M569 1317q267 49 328 159q114 205 -133 224q-107 10 -228 -19zM618 497q166 -10 276 20q159 39 189 146q39 146 -131 205q-159 49 -347 -3zM78 1125q-33 803 -45 874q267 103 611 109t572 -115q241 -133 257 -345q20 -237 -267 -455q341 -39 481 -315q65 -118 42 -256
t-143 -255q-257 -267 -682 -325q-299 -49 -803 -9q19 513 -23 1092z" />
    <glyph glyph-name="C" unicode="C" horiz-adv-x="1508" 
d="M504 120q-224 134 -367 402t-140 577q7 289 133 536q124 260 325 397q228 146 509 114t583 -293l-321 -384q-312 182 -491 23q-163 -133 -155 -416t177 -416q185 -153 475 39l309 -348q-244 -289 -533 -338q-250 -42 -504 107z" />
    <glyph glyph-name="D" unicode="D" horiz-adv-x="1768" 
d="M692 1541q-46 -506 -19 -904q241 85 377 260q127 172 104 351q-33 156 -158 228t-304 65zM59 2035q913 153 1310 -127q312 -218 377 -491q23 -104 16 -211q-16 -231 -130 -429q-133 -221 -387 -400q-146 -104 -325 -175q-364 -156 -835 -169h-7l-13 1664q-6 299 -6 338z
" />
    <glyph glyph-name="E" unicode="E" horiz-adv-x="1492" 
d="M1047 1609q-179 -23 -335 -36q-16 -98 -20 -143l-6 -139l533 78l49 -391q-254 -36 -363 -54t-219 -33l-7 -264l716 95l71 -524q-273 -16 -621 -61q-348 -55 -764 -134q-3 169 -6 501l-10 507q-7 666 -6 1008l630 65l637 71l82 -523q-189 -10 -361 -23z" />
    <glyph glyph-name="F" unicode="F" horiz-adv-x="1449" 
d="M673 1557l-13 -302l679 104l65 -387q-397 -55 -744 -107q0 -377 36 -738l-637 -130l-36 2009l1307 133l87 -517q-390 -19 -744 -65z" />
    <glyph glyph-name="G" unicode="G" horiz-adv-x="2031" 
d="M1115 2159q224 0 390 -85q176 -78 302 -244l-175 -166l-176 -172q-182 190 -398 124t-369 -293q-179 -260 -120 -540q23 -146 120 -230q117 -98 315 -85q169 7 287 104q127 88 172 237q-127 -16 -286 -45q-114 -16 -277 -55l10 204l20 209l536 84l536 75q29 -88 23 -195
q0 -101 -26 -221q-58 -207 -175 -377q-163 -254 -403 -374q-237 -127 -553 -127q-208 0 -374 75q-166 85 -292 234q-59 85 -111 172q-33 94 -65 185q-38 189 -16 413q45 377 318 709q326 384 787 384z" />
    <glyph glyph-name="H" unicode="H" 
d="M751 2120q-72 -559 -85 -956l319 45l-3 819l702 92q-130 -1170 -46 -1987l-650 -133l-3 783q-114 -20 -328 -48q16 -358 42 -602l-640 -133l-10 2028z" />
    <glyph glyph-name="I" unicode="I" horiz-adv-x="828" 
d="M91 2025l332 43l328 48q-68 -566 -85 -1056q-10 -484 26 -894l-292 -72l-306 -52z" />
    <glyph glyph-name="J" unicode="J" horiz-adv-x="1394" 
d="M1343 2120q-121 -1120 -46 -1951l-598 -120q-16 0 -348 39q-137 26 -253 42l-124 20l228 490l477 -52l-3 1440l335 43z" />
    <glyph glyph-name="K" unicode="K" horiz-adv-x="1745" 
d="M55 2028l644 92q-33 -247 -36 -397q299 208 530 413l556 -228l-660 -491l718 -1144l-643 -270l-540 1057q-7 -455 23 -891l-585 -123z" />
    <glyph glyph-name="L" unicode="L" horiz-adv-x="1345" 
d="M59 2022l640 91q-81 -783 -75 -1437l673 78l68 -526q-527 -29 -1306 -195v1989z" />
    <glyph glyph-name="M" unicode="M" horiz-adv-x="2366" 
d="M-46 78q312 865 465 1941l595 107l179 -1021l153 979l565 42q130 -962 504 -2038l-627 -108l-231 1037l-136 -984l-524 -36l-136 1086l-189 -1112z" />
    <glyph glyph-name="N" unicode="N" horiz-adv-x="1813" 
d="M75 2077l653 98q20 -88 55 -254q94 -377 202 -666q59 -166 120 -264v1093l657 91q-133 -1131 -55 -1951l-595 -130q-3 7 -72 104l-302 416q-85 98 -98 134q0 -341 26 -654l-588 -123z" />
    <glyph glyph-name="O" unicode="O" horiz-adv-x="1849" 
d="M959 1583q-176 0 -293 -237q-78 -176 -84 -364q-8 -94 22 -194t111 -162q81 -64 205 -64q185 0 280 143q68 120 71 312t-75 381q-91 185 -237 185zM972 2136q377 0 637 -312q139 -172 193 -356t44 -402q-13 -371 -243 -682q-280 -380 -732 -381q-384 0 -640 316
q-107 137 -176 338q-62 198 -52 409q20 387 241 693q276 377 728 377z" />
    <glyph glyph-name="P" unicode="P" horiz-adv-x="1648" 
d="M640 1135q208 3 345 117q94 85 114 208q26 166 -121 221q-133 39 -354 -20zM81 1008q13 868 -32 1033q559 121 895 103q695 -36 701 -623q3 -243 -114 -417t-315 -285q-231 -137 -563 -179q-10 -205 30 -581l-624 -59q15 280 22 1008z" />
    <glyph glyph-name="Q" unicode="Q" horiz-adv-x="1992" 
d="M871 -13q-410 0 -656 312q-127 166 -166 361q-49 189 -23 410q42 387 309 708q325 390 796 390q400 0 647 -322q130 -163 176 -360q120 -475 -160 -940q46 -117 192 -364l-491 -241l-87 205q-270 -159 -537 -159zM1089 1612q-211 0 -364 -243q-137 -198 -156 -410
q-23 -244 159 -380q179 -146 416 -33l-211 436l247 97l241 104q-20 156 -95 273q-94 156 -237 156z" />
    <glyph glyph-name="R" unicode="R" horiz-adv-x="1703" 
d="M1017 2162q533 0 615 -371q46 -445 -452 -728q75 -104 572 -644q-205 -163 -523 -406l-611 793q-3 -380 22 -692l-581 -130q55 1515 -10 2041q575 137 968 137zM624 1460l-6 -202q130 52 237 127q189 127 166 224q-13 73 -115 77t-266 -31q-16 -101 -16 -195z" />
    <glyph glyph-name="S" unicode="S" horiz-adv-x="1797" 
d="M982 1502q-146 0 -267 -111q-75 -91 -49 -172q29 -49 173 -49q72 0 213 20t271 19q328 0 426 -162q29 -55 42 -104q46 -182 -101 -390q-179 -273 -575 -462q-202 -94 -415 -94t-427 78q59 169 192 504q143 -68 286 -69q59 0 120 17q120 23 215 65q140 59 127 123
q-16 75 -176 75q-117 0 -312 -29q-199 -39 -327 -39t-216 42q-172 72 -179 227q-26 309 382 725t789 439q360 10 461 -396q20 -98 39 -218q-91 -33 -279 -85l-283 -81q-26 127 -130 127z" />
    <glyph glyph-name="T" unicode="T" horiz-adv-x="1674" 
d="M1694 1609q-413 -23 -589 -36q-36 -341 88 -1485l-689 -127l-3 1567q-59 -3 -244 -29q-172 -16 -277 -26l40 542l1566 131z" />
    <glyph glyph-name="U" unicode="U" horiz-adv-x="1820" 
d="M627 722q0 -228 231 -228q169 0 257 98q91 88 91 237l-153 1310l647 -36l124 -1404q26 -338 -280 -507q-234 -130 -740 -182t-680 198q-169 215 -104 611l208 1281l659 -45l-104 -495l-110 -497q0 -33 -23 -153t-23 -188z" />
    <glyph glyph-name="V" unicode="V" horiz-adv-x="1648" 
d="M653 2139q39 -449 147 -1323q114 829 152 1255l712 -46q-283 -904 -503 -1924l-816 -94q-81 835 -361 2021z" />
    <glyph glyph-name="W" unicode="W" horiz-adv-x="2337" 
d="M2389 2028q-315 -848 -468 -1927l-640 -111l-127 917l-140 -878l-585 -29q-130 952 -475 1944l634 117l199 -962l117 1027l526 36l153 -1128l192 1105z" />
    <glyph glyph-name="X" unicode="X" 
d="M585 2211l140 -280q68 -124 136 -276l130 250q65 127 124 241l692 -43l-633 -1014q257 -462 510 -826l-478 -305l-367 617l-371 -578l-536 133q306 426 608 946l-514 852z" />
    <glyph glyph-name="Y" unicode="Y" horiz-adv-x="1735" 
d="M1781 2051q-577 -1095 -877 -2031l-611 35l273 650l-612 1197l699 263q27 -140 69 -343t123 -405l277 712z" />
    <glyph glyph-name="Z" unicode="Z" horiz-adv-x="1904" 
d="M1846 2126q7 -133 26 -523q-140 -127 -533 -514q-130 -117 -260 -254q-176 -169 -237 -256l920 42l49 -530q-1021 -20 -1678 -84l-126 523q133 133 529 517l550 526q-332 -23 -712 -74l-104 542z" />
    <glyph glyph-name="bracketleft" unicode="[" horiz-adv-x="1010" 
d="M640 951q0 -311 13 -660t10 -382q22 -1 198 21t335 60l121 -419q-741 -133 -1171 -130q-22 462 -40 808q-49 967 -18 2066l-3 45q156 42 437 101t367 69t161 15l85 -419q-163 -20 -342 -42q-78 -16 -153 -29q-4 -281 -2 -537t2 -567z" />
    <glyph glyph-name="backslash" unicode="\" horiz-adv-x="1706" 
d="M302 2565q224 -406 459 -836q107 -175 221 -375q427 -747 731 -1224l-400 -205q-292 453 -650 1065t-471 824q-114 211 -212 406z" />
    <glyph glyph-name="bracketright" unicode="]" horiz-adv-x="650" 
d="M985 1573q-11 -683 -101 -1804v-68q-156 -45 -264 -65t-368 -54q-258 -34 -333 -40l-69 406q218 9 508 55q20 267 29 540q47 796 55 1446v82q-3 0 -3 3h-163q-189 0 -348 -6l-16 409q163 22 483 4t499 -36q81 -582 91 -872z" />
    <glyph glyph-name="asciicircum" unicode="^" horiz-adv-x="2350" 
d="M1544 -39q-152 45 -213 130q-21 29 -34 60q-42 -77 -109 -112q-137 -72 -271 -49q-178 39 -240 178q-49 -118 -136 -163q-134 -70 -258 -47q-65 20 -125 48q-107 49 -138 183q-13 52 3 110q10 65 55 107q168 153 343 123q176 -30 246 -170q27 78 140 148t256 55
q136 -30 216 -131q20 -26 33 -56q36 57 105 100q126 78 273 61q131 -29 208 -130q33 -42 51 -99t-5 -112q-53 -182 -263 -231q-69 -16 -137 -3zM868 2318l852 88l-433 -1707q-461 42 -481 19q-20 -24 10 484t52 1116zM1489 705q5 7 103 517t128 907l773 -88l-559 -1436z
M115 681q0 -3 -1 -5q-1 2 1 5zM115 681q19 136 -118 1484l728 78l-130 -1544q-455 11 -480 -18z" />
    <glyph glyph-name="underscore" unicode="_" horiz-adv-x="1579" 
d="M1573 -270q-891 10 -1547 -10l-52 287l1629 6z" />
    <glyph glyph-name="grave" unicode="`" horiz-adv-x="663" 
d="M400 2240l221 -618l-354 -88l-342 599z" />
    <glyph glyph-name="a" unicode="a" horiz-adv-x="1797" 
d="M1031 761l-160 747l-130 -751zM-46 120q335 969 508 1928l845 111q153 -868 536 -1996l-640 -134l-91 355l-420 -39l-71 -358z" />
    <glyph glyph-name="b" unicode="b" horiz-adv-x="1745" 
d="M569 1317q267 49 328 159q114 205 -133 224q-107 10 -228 -19zM618 497q166 -10 276 20q159 39 189 146q39 146 -131 205q-159 49 -347 -3zM78 1125q-33 803 -45 874q267 103 611 109t572 -115q241 -133 257 -345q20 -237 -267 -455q341 -39 481 -315q65 -118 42 -256
t-143 -255q-257 -267 -682 -325q-299 -49 -803 -9q19 513 -23 1092z" />
    <glyph glyph-name="c" unicode="c" horiz-adv-x="1508" 
d="M504 120q-224 134 -367 402t-140 577q7 289 133 536q124 260 325 397q228 146 509 114t583 -293l-321 -384q-312 182 -491 23q-163 -133 -155 -416t177 -416q185 -153 475 39l309 -348q-244 -289 -533 -338q-250 -42 -504 107z" />
    <glyph glyph-name="d" unicode="d" horiz-adv-x="1768" 
d="M692 1541q-46 -506 -19 -904q241 85 377 260q127 172 104 351q-33 156 -158 228t-304 65zM59 2035q913 153 1310 -127q312 -218 377 -491q23 -104 16 -211q-16 -231 -130 -429q-133 -221 -387 -400q-146 -104 -325 -175q-364 -156 -835 -169h-7l-13 1664q-6 299 -6 338z
" />
    <glyph glyph-name="e" unicode="e" horiz-adv-x="1492" 
d="M1047 1609q-179 -23 -335 -36q-16 -98 -20 -143l-6 -139l533 78l49 -391q-254 -36 -363 -54t-219 -33l-7 -264l716 95l71 -524q-273 -16 -621 -61q-348 -55 -764 -134q-3 169 -6 501l-10 507q-7 666 -6 1008l630 65l637 71l82 -523q-189 -10 -361 -23z" />
    <glyph glyph-name="f" unicode="f" horiz-adv-x="1449" 
d="M673 1557l-13 -302l679 104l65 -387q-397 -55 -744 -107q0 -377 36 -738l-637 -130l-36 2009l1307 133l87 -517q-390 -19 -744 -65z" />
    <glyph glyph-name="g" unicode="g" horiz-adv-x="2031" 
d="M1115 2159q224 0 390 -85q176 -78 302 -244l-175 -166l-176 -172q-182 190 -398 124t-369 -293q-179 -260 -120 -540q23 -146 120 -230q117 -98 315 -85q169 7 287 104q127 88 172 237q-127 -16 -286 -45q-114 -16 -277 -55l10 204l20 209l536 84l536 75q29 -88 23 -195
q0 -101 -26 -221q-58 -207 -175 -377q-163 -254 -403 -374q-237 -127 -553 -127q-208 0 -374 75q-166 85 -292 234q-59 85 -111 172q-33 94 -65 185q-38 189 -16 413q45 377 318 709q326 384 787 384z" />
    <glyph glyph-name="h" unicode="h" 
d="M751 2120q-72 -559 -85 -956l319 45l-3 819l702 92q-130 -1170 -46 -1987l-650 -133l-3 783q-114 -20 -328 -48q16 -358 42 -602l-640 -133l-10 2028z" />
    <glyph glyph-name="i" unicode="i" horiz-adv-x="828" 
d="M91 2025l332 43l328 48q-68 -566 -85 -1056q-10 -484 26 -894l-292 -72l-306 -52z" />
    <glyph glyph-name="j" unicode="j" horiz-adv-x="1394" 
d="M1343 2120q-121 -1120 -46 -1951l-598 -120q-16 0 -348 39q-137 26 -253 42l-124 20l228 490l477 -52l-3 1440l335 43z" />
    <glyph glyph-name="k" unicode="k" horiz-adv-x="1745" 
d="M55 2028l644 92q-33 -247 -36 -397q299 208 530 413l556 -228l-660 -491l718 -1144l-643 -270l-540 1057q-7 -455 23 -891l-585 -123z" />
    <glyph glyph-name="l" unicode="l" horiz-adv-x="1345" 
d="M59 2022l640 91q-81 -783 -75 -1437l673 78l68 -526q-527 -29 -1306 -195v1989z" />
    <glyph glyph-name="m" unicode="m" horiz-adv-x="2366" 
d="M-46 78q312 865 465 1941l595 107l179 -1021l153 979l565 42q130 -962 504 -2038l-627 -108l-231 1037l-136 -984l-524 -36l-136 1086l-189 -1112z" />
    <glyph glyph-name="n" unicode="n" horiz-adv-x="1813" 
d="M75 2077l653 98q20 -88 55 -254q94 -377 202 -666q59 -166 120 -264v1093l657 91q-133 -1131 -55 -1951l-595 -130q-3 7 -72 104l-302 416q-85 98 -98 134q0 -341 26 -654l-588 -123z" />
    <glyph glyph-name="o" unicode="o" horiz-adv-x="1849" 
d="M959 1583q-176 0 -293 -237q-78 -176 -84 -364q-8 -94 22 -194t111 -162q81 -64 205 -64q185 0 280 143q68 120 71 312t-75 381q-91 185 -237 185zM972 2136q377 0 637 -312q139 -172 193 -356t44 -402q-13 -371 -243 -682q-280 -380 -732 -381q-384 0 -640 316
q-107 137 -176 338q-62 198 -52 409q20 387 241 693q276 377 728 377z" />
    <glyph glyph-name="p" unicode="p" horiz-adv-x="1648" 
d="M640 1135q208 3 345 117q94 85 114 208q26 166 -121 221q-133 39 -354 -20zM81 1008q13 868 -32 1033q559 121 895 103q695 -36 701 -623q3 -243 -114 -417t-315 -285q-231 -137 -563 -179q-10 -205 30 -581l-624 -59q15 280 22 1008z" />
    <glyph glyph-name="q" unicode="q" horiz-adv-x="1992" 
d="M871 -13q-410 0 -656 312q-127 166 -166 361q-49 189 -23 410q42 387 309 708q325 390 796 390q400 0 647 -322q130 -163 176 -360q120 -475 -160 -940q46 -117 192 -364l-491 -241l-87 205q-270 -159 -537 -159zM1089 1612q-211 0 -364 -243q-137 -198 -156 -410
q-23 -244 159 -380q179 -146 416 -33l-211 436l247 97l241 104q-20 156 -95 273q-94 156 -237 156z" />
    <glyph glyph-name="r" unicode="r" horiz-adv-x="1703" 
d="M1017 2162q533 0 615 -371q46 -445 -452 -728q75 -104 572 -644q-205 -163 -523 -406l-611 793q-3 -380 22 -692l-581 -130q55 1515 -10 2041q575 137 968 137zM624 1460l-6 -202q130 52 237 127q189 127 166 224q-13 73 -115 77t-266 -31q-16 -101 -16 -195z" />
    <glyph glyph-name="s" unicode="s" horiz-adv-x="1797" 
d="M982 1502q-146 0 -267 -111q-75 -91 -49 -172q29 -49 173 -49q72 0 213 20t271 19q328 0 426 -162q29 -55 42 -104q46 -182 -101 -390q-179 -273 -575 -462q-202 -94 -415 -94t-427 78q59 169 192 504q143 -68 286 -69q59 0 120 17q120 23 215 65q140 59 127 123
q-16 75 -176 75q-117 0 -312 -29q-199 -39 -327 -39t-216 42q-172 72 -179 227q-26 309 382 725t789 439q360 10 461 -396q20 -98 39 -218q-91 -33 -279 -85l-283 -81q-26 127 -130 127z" />
    <glyph glyph-name="t" unicode="t" horiz-adv-x="1674" 
d="M1694 1609q-413 -23 -589 -36q-36 -341 88 -1485l-689 -127l-3 1567q-59 -3 -244 -29q-172 -16 -277 -26l40 542l1566 131z" />
    <glyph glyph-name="u" unicode="u" horiz-adv-x="1820" 
d="M627 722q0 -228 231 -228q169 0 257 98q91 88 91 237l-153 1310l647 -36l124 -1404q26 -338 -280 -507q-234 -130 -740 -182t-680 198q-169 215 -104 611l208 1281l659 -45l-104 -495l-110 -497q0 -33 -23 -153t-23 -188z" />
    <glyph glyph-name="v" unicode="v" horiz-adv-x="1648" 
d="M653 2139q39 -449 147 -1323q114 829 152 1255l712 -46q-283 -904 -503 -1924l-816 -94q-81 835 -361 2021z" />
    <glyph glyph-name="w" unicode="w" horiz-adv-x="2337" 
d="M2389 2028q-315 -848 -468 -1927l-640 -111l-127 917l-140 -878l-585 -29q-130 952 -475 1944l634 117l199 -962l117 1027l526 36l153 -1128l192 1105z" />
    <glyph glyph-name="x" unicode="x" 
d="M585 2211l140 -280q68 -124 136 -276l130 250q65 127 124 241l692 -43l-633 -1014q257 -462 510 -826l-478 -305l-367 617l-371 -578l-536 133q306 426 608 946l-514 852z" />
    <glyph glyph-name="y" unicode="y" horiz-adv-x="1735" 
d="M1781 2051q-577 -1095 -877 -2031l-611 35l273 650l-612 1197l699 263q27 -140 69 -343t123 -405l277 712z" />
    <glyph glyph-name="z" unicode="z" horiz-adv-x="1904" 
d="M1846 2126q7 -133 26 -523q-140 -127 -533 -514q-130 -117 -260 -254q-176 -169 -237 -256l920 42l49 -530q-1021 -20 -1678 -84l-126 523q133 133 529 517l550 526q-332 -23 -712 -74l-104 542z" />
    <glyph glyph-name="braceleft" unicode="{" horiz-adv-x="1778" 
d="M445 332q176 62 355 133q164 75 287 130t211 104l162 91l175 -351q-150 -75 -386 -197t-358 -161q-121 -39 -208 -74zM1382 1336q-163 81 -335 153q-103 55 -255 113q-152 59 -240 87t-172 60l163 354q265 -81 402 -137q137 -55 281 -118t253 -132zM700 861
q-264 0 -368 5t-195 8l-69 397q208 -13 361 -15t255 -3q326 -6 633 21l-7 -390q-346 -23 -610 -23z" />
    <glyph glyph-name="braceright" unicode="}" horiz-adv-x="1778" 
d="M1255 1788q-172 -72 -351 -140q-364 -155 -660 -322l-176 348q190 106 360 181q170 76 253 118q83 41 169 71t167 59zM332 783q156 -88 280 -140l199 -84q232 -101 331 -132t181 -56l-149 -364q-163 52 -326 117q-219 70 -386 151q-167 80 -238 122zM1058 1323
q262 0 548 -16l49 -400q-198 13 -413 23q-98 0 -197 2q-316 5 -632 -28l13 393q370 26 632 26z" />
    <glyph glyph-name="asciitilde" unicode="~" horiz-adv-x="1768" 
d="M1115 696h1h-1zM1226 -46q-68 20 -127 48t-91 80q-72 114 -43 214q18 117 147 183q134 71 253 48q124 -18 217 -126q71 -84 47 -209q-16 -59 -57 -111q-71 -90 -216 -123q-71 -17 -130 -4zM416 -46q-65 20 -120 48t-88 80q-68 106 -34 219q34 114 163 183q128 69 255 43
q62 -10 117 -46q108 -70 133 -180q13 -57 -10 -109q-13 -59 -55 -111q-70 -87 -224 -123q-69 -17 -137 -4zM650 949l13 -270l-419 -55l-117 514q507 224 499 437t-633 67l-39 458q458 59 768 3q410 -68 452 -351q46 -361 -303 -653q-81 -72 -221 -150zM1534 640
q-285 50 -399 56h-19q4 2 10 64t25 237t29 430q23 328 49 745l637 -82z" />
    <glyph glyph-name="Scedilla" unicode="&#x15e;" horiz-adv-x="1752" 
d="M848 -296l-419 -487l-257 120l319 491zM839 1502q-146 0 -260 -111q-81 -91 -49 -172q33 -49 166 -49q78 0 216 20t275 19q322 0 422 -162q26 -55 39 -104q46 -182 -94 -390q-172 -273 -572 -462q-205 -94 -418 -94t-427 78q55 169 191 504q137 -69 281 -69t340 82
q137 59 121 123q-16 75 -176 75q-107 0 -309 -29q-202 -39 -327 -39t-212 42q-179 72 -186 227q-26 309 382 725t789 439q367 10 461 -396q20 -98 39 -218q-81 -33 -279 -85l-274 -81q-29 127 -139 127z" />
    <glyph glyph-name="Scaron" unicode="&#x160;" horiz-adv-x="1752" 
d="M1087 2154q-173 13 -388 -92l-465 340l244 221l348 -247l354 247l221 -247zM839 1502q-146 0 -260 -111q-81 -91 -49 -172q33 -49 166 -49q78 0 216 20t275 19q322 0 422 -162q26 -55 39 -104q46 -182 -94 -390q-172 -273 -572 -462q-205 -94 -418 -94t-427 78
q55 169 191 504q137 -69 281 -69t340 82q137 59 121 123q-16 75 -176 75q-107 0 -309 -29q-202 -39 -327 -39t-212 42q-179 72 -186 227q-26 309 374 716q238 243 465 355l127 -92l261 184q319 -21 405 -395q20 -98 39 -218q-81 -33 -279 -85l-274 -81q-29 127 -139 127z
" />
    <glyph glyph-name="scaron" unicode="&#x161;" horiz-adv-x="1752" 
d="M1193 2154q-123 10 -282 -50l-485 357l247 221l341 -250l351 250l221 -250zM959 1502q-150 0 -270 -111q-75 -91 -45 -172q29 -49 172 -49q72 0 213 20t268 19q332 0 419 -162q142 -217 -43 -492q-184 -275 -577 -464q-205 -94 -420 -94t-432 78q55 169 195 504
q143 -68 283 -69q65 0 123 17q124 23 215 65q143 59 130 123q-16 75 -179 75q-114 0 -315 -29q-198 -39 -326 -39t-211 42q-172 72 -179 227q-33 309 374 716q288 296 557 397l103 -76l179 126q320 -19 419 -395q20 -98 33 -218q-85 -33 -280 -85l-276 -81q-29 127 -130 127
z" />
    <glyph glyph-name="Ydieresis" unicode="&#x178;" horiz-adv-x="1547" 
d="M512 2597q128 1 211 -79t83 -190t-76 -180t-171 -83q-10 53 -19 100l-183 -69q-32 17 -61 43q-88 78 -88 190t88 190t216 78zM1346 2597q128 1 212 -79t84 -190t-88 -189q-48 -43 -108 -62l-277 33q-126 82 -126 207q1 124 88 202q88 78 215 78zM1320 2061q76 0 126 16
l215 -26q-293 -562 -507 -1066q-221 -510 -364 -965l-614 35l266 650l-296 595l-309 602l520 194q67 -35 121 -35t81 4q21 -106 53 -276t116 -372l280 712l161 -19q75 -49 151 -49z" />
    <glyph glyph-name="ogonek" unicode="&#x2db;" horiz-adv-x="1160" 
d="M192 -380q0 120 112 219q138 121 223 161h269v-7q-98 -45 -174 -123t-76 -150t52 -114t120 -42t124 22q55 22 117 40v-305q-170 -59 -282 -59q-206 0 -346 89q-139 88 -139 269z" />
    <glyph glyph-name="tilde" unicode="&#x2dc;" horiz-adv-x="1215" 
d="M380 2282q-115 0 -130 -114h-296q18 206 85 320q39 67 111 114t169 47q149 0 280 -70t220 -69q132 0 146 146l296 -20q-31 -208 -102 -318q-104 -161 -298 -159q-77 0 -157 26q-80 27 -142 49t-99 35t-83 13z" />
    <glyph glyph-name="hungarumlaut" unicode="&#x2dd;" horiz-adv-x="1241" 
d="M644 2536l-514 -491l-283 146l387 514zM1395 2536l-524 -491l-276 146l390 514z" />
    <glyph glyph-name="afii10023" unicode="&#x401;" horiz-adv-x="1440" 
d="M291 2094q-122 0 -200 63t-65 148q20 88 117 153q98 65 223 65q126 0 200 -65q74 -66 60 -152t-114 -149q-99 -63 -221 -63zM936 2165q-120 0 -201 62t-62 153q9 88 107 152t224 65q126 -1 202 -65q75 -64 65 -152q-16 -91 -115 -153q-100 -62 -220 -62zM683 1560
q-10 -81 -17 -159l-6 -153l605 91l61 -380q-436 -65 -679 -101q-3 -59 0 -107v-111l712 69l75 -517q-556 -33 -1375 -195l-36 2009l1268 133l91 -517q-390 -20 -699 -62z" />
    <glyph glyph-name="afii10017" unicode="&#x410;" horiz-adv-x="1797" 
d="M1031 761l-160 747l-130 -751zM-46 120q335 969 508 1928l845 111q153 -868 536 -1996l-640 -134l-91 355l-420 -39l-71 -358z" />
    <glyph glyph-name="afii10018" unicode="&#x411;" horiz-adv-x="1706" 
d="M637 504q253 23 385 117t87 211q-23 75 -147 111q-127 29 -322 9zM1255 1339q374 -88 435 -348q72 -276 -81 -487q-133 -185 -413 -306q-254 -114 -569 -149q-293 -39 -536 0l-3 985q-10 523 -29 998l1160 81l130 -501q-322 -13 -722 -39v-191q361 25 628 -43z" />
    <glyph glyph-name="afii10019" unicode="&#x412;" horiz-adv-x="1745" 
d="M569 1317q267 49 328 159q114 205 -133 224q-107 10 -228 -19zM618 497q166 -10 276 20q159 39 189 146q39 146 -131 205q-159 49 -347 -3zM78 1125q-33 803 -45 874q267 103 611 109t572 -115q241 -133 257 -345q20 -237 -267 -455q341 -39 481 -315q65 -118 42 -256
t-143 -255q-257 -267 -682 -325q-299 -49 -803 -9q19 513 -23 1092z" />
    <glyph glyph-name="afii10020" unicode="&#x413;" horiz-adv-x="1420" 
d="M676 922q4 -29 78 -792l-331 -68l-335 -62l-20 1004l-9 1011l653 62l650 69l42 -254l36 -260q-310 -24 -480 -40t-307 -25q-6 -262 23 -645z" />
    <glyph glyph-name="afii10021" unicode="&#x414;" horiz-adv-x="1989" 
d="M1957 -10q-1037 43 -1915 -45l-62 448l228 23q241 702 413 1625l881 101q65 -852 283 -1680l217 -20l-16 -227zM1154 462q-59 250 -150 851q-101 -491 -159 -864z" />
    <glyph glyph-name="afii10022" unicode="&#x415;" horiz-adv-x="1492" 
d="M1047 1609q-179 -23 -335 -36q-16 -98 -20 -143l-6 -139l533 78l49 -391q-254 -36 -363 -54t-219 -33l-7 -264l716 95l71 -524q-273 -16 -621 -61q-348 -55 -764 -134q-3 169 -6 501l-10 507q-7 666 -6 1008l630 65l637 71l82 -523q-189 -10 -361 -23z" />
    <glyph glyph-name="afii10024" unicode="&#x416;" horiz-adv-x="2694" 
d="M1700 2051q-16 -176 -36 -478q49 36 143 143q87 113 125 151q51 41 249 201l543 -225l-640 -578l705 -1002l-634 -263l-520 897l-26 -572q-7 -153 13 -273l-614 -91l26 910l-524 -848l-627 260l754 1004l-624 585l549 222q62 -52 238 -251q163 -172 253 -240l13 650z
M1941 1876q-5 -4 -27 -22t27 22z" />
    <glyph glyph-name="afii10025" unicode="&#x417;" horiz-adv-x="1631" 
d="M1414 1440q-85 -127 -257 -231q488 -72 472 -452q-13 -335 -312 -562q-306 -237 -677 -179q-224 38 -400 164t-289 369l602 163q68 -114 156 -146q78 -36 139 0q133 68 98 221q-46 133 -211 130q-111 0 -342 -17l30 189l32 182q133 7 280 81q166 101 136 202
q-19 89 -159 81q-65 0 -179 -62t-279 -169l-140 218l-156 221q403 293 900 303q247 10 403 -91q176 -111 205 -332q20 -150 -52 -283z" />
    <glyph glyph-name="afii10026" unicode="&#x418;" horiz-adv-x="1807" 
d="M757 2116q-75 -296 -107 -591q-26 -293 -6 -608q94 325 256 682q166 345 212 442l640 79q-52 -543 -40 -1044t37 -900l-546 -111q-33 530 -65 1031q-107 -198 -231 -452q-111 -257 -140 -468q-72 -7 -354 -62q-172 -39 -283 -68q-46 510 -52 994q-3 484 -45 982z" />
    <glyph glyph-name="afii10027" unicode="&#x419;" horiz-adv-x="1865" 
d="M1788 75l-735 -91q88 293 143 591q46 293 46 534q-111 -250 -296 -608q-189 -348 -250 -442l-631 -79q75 507 55 1011q-29 504 -87 907l594 117q72 -517 72 -1079q156 257 286 524q127 250 172 458q442 88 483 96t171 41q3 -503 -20 -993t-3 -987zM1606 2103l-832 -192
l-62 293l650 241z" />
    <glyph glyph-name="afii10028" unicode="&#x41a;" horiz-adv-x="1706" 
d="M55 2028l644 92q-33 -247 -36 -397q299 208 530 413l556 -228l-660 -491l718 -1144l-643 -270l-540 1057q-7 -455 23 -891l-585 -123z" />
    <glyph glyph-name="afii10029" unicode="&#x41b;" horiz-adv-x="1661" 
d="M991 -42q-33 455 -149 1352q-114 -848 -153 -1281l-731 49q299 913 517 1950l851 98q75 -848 364 -2051z" />
    <glyph glyph-name="afii10030" unicode="&#x41c;" horiz-adv-x="2366" 
d="M-46 78q312 865 465 1941l595 107l179 -1021l153 979l565 42q130 -962 504 -2038l-627 -108l-231 1037l-136 -984l-524 -36l-136 1086l-189 -1112z" />
    <glyph glyph-name="afii10031" unicode="&#x41d;" 
d="M751 2120q-72 -559 -85 -956l319 45l-3 819l702 92q-130 -1170 -46 -1987l-650 -133l-3 783q-114 -20 -328 -48q16 -358 42 -602l-640 -133l-10 2028z" />
    <glyph glyph-name="afii10032" unicode="&#x41e;" horiz-adv-x="1849" 
d="M959 1583q-176 0 -293 -237q-78 -176 -84 -364q-8 -94 22 -194t111 -162q81 -64 205 -64q185 0 280 143q68 120 71 312t-75 381q-91 185 -237 185zM972 2136q377 0 637 -312q139 -172 193 -356t44 -402q-13 -371 -243 -682q-280 -380 -732 -381q-384 0 -640 316
q-107 137 -176 338q-62 198 -52 409q20 387 241 693q276 377 728 377z" />
    <glyph glyph-name="afii10033" unicode="&#x41f;" horiz-adv-x="1638" 
d="M59 1934q1502 195 1511 195q-16 -130 29 -2044l-627 -75l10 1599q-107 -10 -286 -36q-49 -673 13 -1479l-631 -114q10 310 -8 968t-11 986z" />
    <glyph glyph-name="afii10034" unicode="&#x420;" horiz-adv-x="1648" 
d="M640 1135q208 3 345 117q94 85 114 208q26 166 -121 221q-133 39 -354 -20zM81 1008q13 868 -32 1033q559 121 895 103q695 -36 701 -623q3 -243 -114 -417t-315 -285q-231 -137 -563 -179q-10 -205 30 -581l-624 -59q15 280 22 1008z" />
    <glyph glyph-name="afii10035" unicode="&#x421;" horiz-adv-x="1508" 
d="M504 120q-224 134 -367 402t-140 577q7 289 133 536q124 260 325 397q228 146 509 114t583 -293l-321 -384q-312 182 -491 23q-163 -133 -155 -416t177 -416q185 -153 475 39l309 -348q-244 -289 -533 -338q-250 -42 -504 107z" />
    <glyph glyph-name="afii10036" unicode="&#x422;" horiz-adv-x="1674" 
d="M1694 1609q-413 -23 -589 -36q-36 -341 88 -1485l-689 -127l-3 1567q-59 -3 -244 -29q-172 -16 -277 -26l40 542l1566 131z" />
    <glyph glyph-name="afii10037" unicode="&#x423;" horiz-adv-x="1735" 
d="M1781 2051q-577 -1095 -877 -2031l-611 35l273 650l-612 1197l699 263q27 -140 69 -343t123 -405l277 712z" />
    <glyph glyph-name="afii10038" unicode="&#x424;" horiz-adv-x="2681" 
d="M1703 2015q423 -72 686 -286q315 -241 285 -587t-327 -606q-257 -234 -657 -341l13 -175l-699 -114l13 208q-400 16 -637 159q-280 165 -359 533t236 735t757 465l-10 257l706 -137zM1960 904q111 159 81 370q-20 111 -126 176q-104 59 -280 75q-55 -579 -16 -875
q237 111 341 254zM686 1229q-107 -159 -75 -364q26 -130 156 -215q107 -62 277 -52q23 351 6 888q-247 -94 -364 -257z" />
    <glyph glyph-name="afii10039" unicode="&#x425;" 
d="M585 2211l140 -280q68 -124 136 -276l130 250q65 127 124 241l692 -43l-633 -1014q257 -462 510 -826l-478 -305l-367 617l-371 -578l-536 133q306 426 608 946l-514 852z" />
    <glyph glyph-name="afii10040" unicode="&#x426;" horiz-adv-x="1930" 
d="M387 2107l338 52q-73 -231 -69 -723t66 -909h156q85 3 169 3l-3 855q-3 530 -23 692l318 46l312 39q-47 -597 -19 -1590q195 13 423 39l-147 -380l-117 -455l-539 104l32 113l39 101q-559 -33 -676 -39q-367 -29 -504 -45l-42 1027q-20 588 -52 1024z" />
    <glyph glyph-name="afii10041" unicode="&#x427;" horiz-adv-x="1644" 
d="M16 1437q0 217 -29 523l689 160q-16 -124 -39 -313q-33 -185 -19 -347q6 -162 76 -252t252 -8v855l657 87q-72 -423 -111 -972q-33 -650 0 -1037l-592 -130l30 725q-380 -74 -554 -6t-282 295q-36 88 -48 192q-26 107 -30 228z" />
    <glyph glyph-name="afii10042" unicode="&#x428;" horiz-adv-x="2425" 
d="M725 2071q-127 -972 -81 -1652l260 20l-10 809q-7 559 -10 807l660 74q-107 -952 -49 -1658l296 26l-55 1574l634 101q-106 -1103 -16 -2045l-2295 -130l6 2005z" />
    <glyph glyph-name="afii10043" unicode="&#x429;" horiz-adv-x="2717" 
d="M790 2077q-133 -972 -85 -1651l267 19l-7 1632l657 82q-117 -1001 -65 -1681q137 13 293 32l-39 1525l627 98q-49 -523 -55 -972q-10 -286 3 -569q234 33 384 48q-185 -478 -299 -890l-540 107l91 244l-1902 -98l23 2006z" />
    <glyph glyph-name="afii10044" unicode="&#x42a;" horiz-adv-x="1904" 
d="M861 536q198 -33 358 49q163 78 133 241q-16 143 -100 201q-120 78 -352 43zM406 1661l-448 -29l182 494l855 -68q-26 -205 -23 -527q302 3 514 -83t321 -229q114 -169 101 -410q-12 -302 -206 -481t-522 -260q-358 -72 -848 -45q64 455 74 1638z" />
    <glyph glyph-name="afii10045" unicode="&#x42b;" horiz-adv-x="2379" 
d="M1684 1976l644 92q-124 -1125 -49 -1944l-592 -131zM624 494q220 -28 360 46t115 234q-20 120 -114 191q-137 85 -345 56zM49 20q124 587 45 1986l589 101q-29 -263 -10 -582q313 3 527 -85q457 -186 445 -637q-3 -302 -185 -491q-179 -172 -511 -250q-341 -72 -900 -42z
" />
    <glyph glyph-name="afii10046" unicode="&#x42c;" horiz-adv-x="1644" 
d="M624 507q220 -29 360 45t115 238q-20 117 -114 188q-137 85 -345 59zM49 33q124 586 45 1989l589 101q-29 -267 -10 -582q312 3 543 -88q198 -85 305 -227q130 -169 124 -407q-6 -582 -696 -744q-341 -72 -900 -42z" />
    <glyph glyph-name="afii10047" unicode="&#x42d;" horiz-adv-x="1557" 
d="M59 1713q-26 289 -26 342q484 127 877 22q575 -153 634 -715q33 -358 -156 -699q-114 -195 -283 -338q-172 -156 -390 -240q-293 -98 -617 -33l3 553q293 -39 510 45q221 98 322 299l-660 -55l3 458l722 17q-16 237 -315 263q-133 13 -332 -16q-72 -10 -292 -56v153z" />
    <glyph glyph-name="afii10048" unicode="&#x42e;" horiz-adv-x="2519" 
d="M1650 1583q-158 0 -259 -237q-137 -284 -69 -558q24 -100 99 -154q85 -72 211 -72q176 0 260 143q75 120 78 312t-85 381q-77 185 -235 185zM1677 2136q364 0 605 -312q137 -172 189 -356t42 -402q-13 -371 -237 -682q-260 -380 -693 -381q-371 0 -611 316
q-111 137 -172 338q-26 78 -36 149q-88 -3 -169 -10q-13 -358 16 -663l-578 -107q26 1200 110 2035l598 -91q-85 -410 -117 -777l140 7q42 299 218 559q263 377 695 377z" />
    <glyph glyph-name="afii10049" unicode="&#x42f;" horiz-adv-x="1761" 
d="M1687 0l-621 33q39 309 36 565l-85 -3q-244 -397 -539 -741q-172 107 -309 188q-143 72 -224 127q348 293 556 598q-218 75 -332 231q-228 315 52 621q199 217 587 349t902 178q-56 -823 -23 -2146zM1135 1554q-244 -58 -345 -138t-52 -190q29 -146 377 -140z" />
    <glyph glyph-name="afii10065" unicode="&#x430;" horiz-adv-x="1797" 
d="M1031 761l-160 747l-130 -751zM-46 120q335 969 508 1928l845 111q153 -868 536 -1996l-640 -134l-91 355l-420 -39l-71 -358z" />
    <glyph glyph-name="afii10066" unicode="&#x431;" horiz-adv-x="1706" 
d="M637 504q253 23 385 117t87 211q-23 75 -147 111q-127 29 -322 9zM1255 1339q374 -88 435 -348q72 -276 -81 -487q-133 -185 -413 -306q-254 -114 -569 -149q-293 -39 -536 0l-3 985q-10 523 -29 998l1160 81l130 -501q-322 -13 -722 -39v-191q361 25 628 -43z" />
    <glyph glyph-name="afii10067" unicode="&#x432;" horiz-adv-x="1745" 
d="M569 1317q267 49 328 159q114 205 -133 224q-107 10 -228 -19zM618 497q166 -10 276 20q159 39 189 146q39 146 -131 205q-159 49 -347 -3zM78 1125q-33 803 -45 874q267 103 611 109t572 -115q241 -133 257 -345q20 -237 -267 -455q341 -39 481 -315q65 -118 42 -256
t-143 -255q-257 -267 -682 -325q-299 -49 -803 -9q19 513 -23 1092z" />
    <glyph glyph-name="afii10068" unicode="&#x433;" horiz-adv-x="1420" 
d="M676 922q4 -29 78 -792l-331 -68l-335 -62l-20 1004l-9 1011l653 62l650 69l42 -254l36 -260q-310 -24 -480 -40t-307 -25q-6 -262 23 -645z" />
    <glyph glyph-name="afii10069" unicode="&#x434;" horiz-adv-x="1989" 
d="M1957 -10q-1037 43 -1915 -45l-62 448l228 23q241 702 413 1625l881 101q65 -852 283 -1680l217 -20l-16 -227zM1154 462q-59 250 -150 851q-101 -491 -159 -864z" />
    <glyph glyph-name="afii10070" unicode="&#x435;" horiz-adv-x="1492" 
d="M1047 1609q-179 -23 -335 -36q-16 -98 -20 -143l-6 -139l533 78l49 -391q-254 -36 -363 -54t-219 -33l-7 -264l716 95l71 -524q-273 -16 -621 -61q-348 -55 -764 -134q-3 169 -6 501l-10 507q-7 666 -6 1008l630 65l637 71l82 -523q-189 -10 -361 -23z" />
    <glyph glyph-name="afii10072" unicode="&#x436;" horiz-adv-x="2694" 
d="M1700 2051q-16 -176 -36 -478q49 36 143 143q87 113 125 151q51 41 249 201l543 -225l-640 -578l705 -1002l-634 -263l-520 897l-26 -572q-7 -153 13 -273l-614 -91l26 910l-524 -848l-627 260l754 1004l-624 585l549 222q62 -52 238 -251q163 -172 253 -240l13 650z
M1941 1876q-5 -4 -27 -22t27 22z" />
    <glyph glyph-name="afii10073" unicode="&#x437;" horiz-adv-x="1631" 
d="M1414 1440q-85 -127 -257 -231q488 -72 472 -452q-13 -335 -312 -562q-306 -237 -677 -179q-224 38 -400 164t-289 369l602 163q68 -114 156 -146q78 -36 139 0q133 68 98 221q-46 133 -211 130q-111 0 -342 -17l30 189l32 182q133 7 280 81q166 101 136 202
q-19 89 -159 81q-65 0 -179 -62t-279 -169l-140 218l-156 221q403 293 900 303q247 10 403 -91q176 -111 205 -332q20 -150 -52 -283z" />
    <glyph glyph-name="afii10074" unicode="&#x438;" horiz-adv-x="1807" 
d="M757 2116q-75 -296 -107 -591q-26 -293 -6 -608q94 325 256 682q166 345 212 442l640 79q-52 -543 -40 -1044t37 -900l-546 -111q-33 530 -65 1031q-107 -198 -231 -452q-111 -257 -140 -468q-72 -7 -354 -62q-172 -39 -283 -68q-46 510 -52 994q-3 484 -45 982z" />
    <glyph glyph-name="afii10075" unicode="&#x439;" horiz-adv-x="1865" 
d="M1788 75l-735 -91q88 293 143 591q46 293 46 534q-111 -250 -296 -608q-189 -348 -250 -442l-631 -79q75 507 55 1011q-29 504 -87 907l594 117q72 -517 72 -1079q156 257 286 524q127 250 172 458q442 88 483 96t171 41q3 -503 -20 -993t-3 -987zM1606 2103l-832 -192
l-62 293l650 241z" />
    <glyph glyph-name="afii10076" unicode="&#x43a;" horiz-adv-x="1706" 
d="M55 2028l644 92q-33 -247 -36 -397q299 208 530 413l556 -228l-660 -491l718 -1144l-643 -270l-540 1057q-7 -455 23 -891l-585 -123z" />
    <glyph glyph-name="afii10077" unicode="&#x43b;" horiz-adv-x="1661" 
d="M991 -42q-33 455 -149 1352q-114 -848 -153 -1281l-731 49q299 913 517 1950l851 98q75 -848 364 -2051z" />
    <glyph glyph-name="afii10078" unicode="&#x43c;" horiz-adv-x="2366" 
d="M-46 78q312 865 465 1941l595 107l179 -1021l153 979l565 42q130 -962 504 -2038l-627 -108l-231 1037l-136 -984l-524 -36l-136 1086l-189 -1112z" />
    <glyph glyph-name="afii10079" unicode="&#x43d;" 
d="M751 2120q-72 -559 -85 -956l319 45l-3 819l702 92q-130 -1170 -46 -1987l-650 -133l-3 783q-114 -20 -328 -48q16 -358 42 -602l-640 -133l-10 2028z" />
    <glyph glyph-name="afii10080" unicode="&#x43e;" horiz-adv-x="1849" 
d="M959 1583q-176 0 -293 -237q-78 -176 -84 -364q-8 -94 22 -194t111 -162q81 -64 205 -64q185 0 280 143q68 120 71 312t-75 381q-91 185 -237 185zM972 2136q377 0 637 -312q139 -172 193 -356t44 -402q-13 -371 -243 -682q-280 -380 -732 -381q-384 0 -640 316
q-107 137 -176 338q-62 198 -52 409q20 387 241 693q276 377 728 377z" />
    <glyph glyph-name="afii10081" unicode="&#x43f;" horiz-adv-x="1638" 
d="M59 1934q1502 195 1511 195q-16 -130 29 -2044l-627 -75l10 1599q-107 -10 -286 -36q-49 -673 13 -1479l-631 -114q10 310 -8 968t-11 986z" />
    <glyph glyph-name="afii10082" unicode="&#x440;" horiz-adv-x="1648" 
d="M640 1135q208 3 345 117q94 85 114 208q26 166 -121 221q-133 39 -354 -20zM81 1008q13 868 -32 1033q559 121 895 103q695 -36 701 -623q3 -243 -114 -417t-315 -285q-231 -137 -563 -179q-10 -205 30 -581l-624 -59q15 280 22 1008z" />
    <glyph glyph-name="afii10083" unicode="&#x441;" horiz-adv-x="1508" 
d="M504 120q-224 134 -367 402t-140 577q7 289 133 536q124 260 325 397q228 146 509 114t583 -293l-321 -384q-312 182 -491 23q-163 -133 -155 -416t177 -416q185 -153 475 39l309 -348q-244 -289 -533 -338q-250 -42 -504 107z" />
    <glyph glyph-name="afii10084" unicode="&#x442;" horiz-adv-x="1674" 
d="M1694 1609q-413 -23 -589 -36q-36 -341 88 -1485l-689 -127l-3 1567q-59 -3 -244 -29q-172 -16 -277 -26l40 542l1566 131z" />
    <glyph glyph-name="afii10085" unicode="&#x443;" horiz-adv-x="1735" 
d="M1781 2051q-577 -1095 -877 -2031l-611 35l273 650l-612 1197l699 263q27 -140 69 -343t123 -405l277 712z" />
    <glyph glyph-name="afii10086" unicode="&#x444;" horiz-adv-x="2681" 
d="M1703 2015q423 -72 686 -286q315 -241 285 -587t-327 -606q-257 -234 -657 -341l13 -175l-699 -114l13 208q-400 16 -637 159q-280 165 -359 533t236 735t757 465l-10 257l706 -137zM1960 904q111 159 81 370q-20 111 -126 176q-104 59 -280 75q-55 -579 -16 -875
q237 111 341 254zM686 1229q-107 -159 -75 -364q26 -130 156 -215q107 -62 277 -52q23 351 6 888q-247 -94 -364 -257z" />
    <glyph glyph-name="afii10087" unicode="&#x445;" 
d="M585 2211l140 -280q68 -124 136 -276l130 250q65 127 124 241l692 -43l-633 -1014q257 -462 510 -826l-478 -305l-367 617l-371 -578l-536 133q306 426 608 946l-514 852z" />
    <glyph glyph-name="afii10088" unicode="&#x446;" horiz-adv-x="1930" 
d="M387 2107l338 52q-73 -231 -69 -723t66 -909h156q85 3 169 3l-3 855q-3 530 -23 692l318 46l312 39q-47 -597 -19 -1590q195 13 423 39l-147 -380l-117 -455l-539 104l32 113l39 101q-559 -33 -676 -39q-367 -29 -504 -45l-42 1027q-20 588 -52 1024z" />
    <glyph glyph-name="afii10089" unicode="&#x447;" horiz-adv-x="1644" 
d="M16 1437q0 217 -29 523l689 160q-16 -124 -39 -313q-33 -185 -19 -347q6 -162 76 -252t252 -8v855l657 87q-72 -423 -111 -972q-33 -650 0 -1037l-592 -130l30 725q-380 -74 -554 -6t-282 295q-36 88 -48 192q-26 107 -30 228z" />
    <glyph glyph-name="afii10090" unicode="&#x448;" horiz-adv-x="2425" 
d="M725 2071q-127 -972 -81 -1652l260 20l-10 809q-7 559 -10 807l660 74q-107 -952 -49 -1658l296 26l-55 1574l634 101q-106 -1103 -16 -2045l-2295 -130l6 2005z" />
    <glyph glyph-name="afii10091" unicode="&#x449;" horiz-adv-x="2717" 
d="M790 2077q-133 -972 -85 -1651l267 19l-7 1632l657 82q-117 -1001 -65 -1681q137 13 293 32l-39 1525l627 98q-49 -523 -55 -972q-10 -286 3 -569q234 33 384 48q-185 -478 -299 -890l-540 107l91 244l-1902 -98l23 2006z" />
    <glyph glyph-name="afii10092" unicode="&#x44a;" horiz-adv-x="1904" 
d="M861 536q198 -33 358 49q163 78 133 241q-16 143 -100 201q-120 78 -352 43zM406 1661l-448 -29l182 494l855 -68q-26 -205 -23 -527q302 3 514 -83t321 -229q114 -169 101 -410q-12 -302 -206 -481t-522 -260q-358 -72 -848 -45q64 455 74 1638z" />
    <glyph glyph-name="afii10093" unicode="&#x44b;" horiz-adv-x="2379" 
d="M1684 1976l644 92q-124 -1125 -49 -1944l-592 -131zM624 494q220 -28 360 46t115 234q-20 120 -114 191q-137 85 -345 56zM49 20q124 587 45 1986l589 101q-29 -263 -10 -582q313 3 527 -85q457 -186 445 -637q-3 -302 -185 -491q-179 -172 -511 -250q-341 -72 -900 -42z
" />
    <glyph glyph-name="afii10094" unicode="&#x44c;" horiz-adv-x="1644" 
d="M624 507q220 -29 360 45t115 238q-20 117 -114 188q-137 85 -345 59zM49 33q124 586 45 1989l589 101q-29 -267 -10 -582q312 3 543 -88q198 -85 305 -227q130 -169 124 -407q-6 -582 -696 -744q-341 -72 -900 -42z" />
    <glyph glyph-name="afii10095" unicode="&#x44d;" horiz-adv-x="1557" 
d="M59 1713q-26 289 -26 342q484 127 877 22q575 -153 634 -715q33 -358 -156 -699q-114 -195 -283 -338q-172 -156 -390 -240q-293 -98 -617 -33l3 553q293 -39 510 45q221 98 322 299l-660 -55l3 458l722 17q-16 237 -315 263q-133 13 -332 -16q-72 -10 -292 -56v153z" />
    <glyph glyph-name="afii10096" unicode="&#x44e;" horiz-adv-x="2519" 
d="M1650 1583q-158 0 -259 -237q-137 -284 -69 -558q24 -100 99 -154q85 -72 211 -72q176 0 260 143q75 120 78 312t-85 381q-77 185 -235 185zM1677 2136q364 0 605 -312q137 -172 189 -356t42 -402q-13 -371 -237 -682q-260 -380 -693 -381q-371 0 -611 316
q-111 137 -172 338q-26 78 -36 149q-88 -3 -169 -10q-13 -358 16 -663l-578 -107q26 1200 110 2035l598 -91q-85 -410 -117 -777l140 7q42 299 218 559q263 377 695 377z" />
    <glyph glyph-name="afii10097" unicode="&#x44f;" horiz-adv-x="1761" 
d="M1687 0l-621 33q39 309 36 565l-85 -3q-244 -397 -539 -741q-172 107 -309 188q-143 72 -224 127q348 293 556 598q-218 75 -332 231q-228 315 52 621q199 217 587 349t902 178q-56 -823 -23 -2146zM1135 1554q-244 -58 -345 -138t-52 -190q29 -146 377 -140z" />
    <glyph glyph-name="endash" unicode="&#x2013;" horiz-adv-x="2008" 
d="M2009 1424v-475h-2009v475h2009z" />
    <glyph glyph-name="emdash" unicode="&#x2014;" horiz-adv-x="3904" 
d="M3439 1424v-475h-2974v475h2974z" />
    <glyph glyph-name="quoteleft" unicode="&#x2018;" horiz-adv-x="984" 
d="M1252 2828q-247 -611 -352 -1115l-750 -97l377 1157z" />
    <glyph glyph-name="quoteright" unicode="&#x2019;" horiz-adv-x="984" 
d="M1252 2828q-247 -611 -352 -1115l-750 -97l377 1157z" />
    <glyph glyph-name="quotesinglbase" unicode="&#x201a;" horiz-adv-x="1196" 
d="M1102 582l-608 -1099h-406l406 1099h608z" />
    <glyph glyph-name="quotedblleft" unicode="&#x201c;" horiz-adv-x="1176" 
d="M969 2350q65 -468 211 -780l-351 -221l-276 806zM406 2207q120 -462 290 -773l-316 -247l-357 773z" />
    <glyph glyph-name="quotedblright" unicode="&#x201d;" horiz-adv-x="1118" 
d="M598 2162l-296 -771l-325 212q150 306 228 764zM1105 1960l-357 -744l-312 250q179 296 305 748z" />
    <glyph glyph-name="quotedblbase" unicode="&#x201e;" horiz-adv-x="1950" 
d="M1099 582l-605 -1099h-406l406 1099h605zM1856 582l-601 -1099h-400l400 1099h601z" />
    <glyph glyph-name="bullet" unicode="&#x2022;" horiz-adv-x="1670" 
d="M1370 1805q218 -201 216 -469q0 -140 -58 -265q-119 -254 -402 -366q-138 -55 -296 -55t-294 55t-240 148t-164 218t-60 263t60 259q60 120 164 214q220 199 538 199t536 -201z" />
    <glyph glyph-name="ellipsis" unicode="&#x2026;" horiz-adv-x="2711" 
d="M124 293q0 151 110 250t269 98q160 -1 268 -102q107 -101 107 -246q0 -146 -110 -242q-110 -97 -267 -97t-267 94t-110 245zM2233 -46q-78 0 -148 28q-147 59 -204 179q-31 63 -31 135q0 138 113 242q115 104 270 102q231 0 350 -211q34 -62 34 -133q0 -70 -34 -134
q-68 -128 -200 -180q-72 -28 -150 -28zM1736 293q0 -222 -228 -311q-72 -28 -150 -28q-80 0 -152 28t-120 72q-106 96 -105 240t107 246t269 101q162 -1 271 -99q108 -98 108 -249z" />
    <glyph glyph-name="guilsinglleft" unicode="&#x2039;" horiz-adv-x="1020" 
d="M618 2025l302 -159l-413 -673l413 -702l-302 -137l-530 839z" />
    <glyph glyph-name="guilsinglright" unicode="&#x203a;" horiz-adv-x="1020" 
d="M930 1193l-524 -839l-315 137l416 702l-416 673l315 159z" />
    <glyph glyph-name="fraction" unicode="&#x2044;" horiz-adv-x="1706" 
d="M1713 2220q-242 -481 -658 -1199q-109 -189 -213 -355q-231 -387 -458 -741l-404 205q117 189 317 510t366 618q166 296 273 471q241 429 455 836z" />
    <glyph glyph-name="fraction" unicode="&#x2215;" horiz-adv-x="1706" 
d="M1713 2220q-242 -481 -658 -1199q-109 -189 -213 -355q-231 -387 -458 -741l-404 205q117 189 317 510t366 618q166 296 273 471q241 429 455 836z" />
    <glyph glyph-name="Euro" unicode="&#x20ac;" horiz-adv-x="1953" 
d="M1652 455q117 0 207 23v-481q-98 -23 -217 -23q-257 0 -475 83q-436 166 -663 556q-111 190 -163 401h-256l42 238h166q-4 35 -4 123v59h-204l42 240h201q49 205 160 398q219 382 660 566q215 89 474 89q137 0 299 -35l-62 -472q-91 20 -211 20t-248 -47
q-253 -93 -376 -301q-62 -104 -107 -218h877l-32 -240h-888v-121q0 -33 10 -61h849l-33 -238h-757q94 -255 261 -390q93 -75 212 -122t236 -47z" />
    <glyph glyph-name="minus" unicode="&#x2212;" horiz-adv-x="1950" 
d="M72 1112h1807v-390h-1807v390z" />
    <glyph glyph-name=".notdef.001" horiz-adv-x="721" 
 />
    </font>
</defs>
</svg>
