<?xml version="1.0" standalone="no"?>
<!DOCTYPE svg PUBLIC "-//W3C//DTD SVG 1.1//EN" "http://www.w3.org/Graphics/SVG/1.1/DTD/svg11.dtd" >
<svg xmlns="http://www.w3.org/2000/svg">
<metadata>
Created by FontPrep 20130207 at Fri Mar  3 11:21:16 2017
 By bwbuser
(c) vallex
</metadata>
<defs>
<font id="acd67bad86b5bd2ac262f10e643ddcd0" horiz-adv-x='1024' >
  <font-face 
    font-family="ObelixPro-Italic"
    font-weight="400"
    font-style="italic"
    font-stretch="normal"
    units-per-em="2048"
    panose-1="2 0 0 0 0 0 0 0 0 0"
    ascent="1638"
    descent="-410"
    x-height="2015"
    cap-height="2018"
    bbox="-185 -869 2732 2723"
    underline-thickness="473"
    underline-position="185"
    unicode-range="U+0020-2212"
  />
<missing-glyph horiz-adv-x="1392" 
 />
    <glyph glyph-name=".notdef" horiz-adv-x="1392" 
 />
    <glyph glyph-name=".null" horiz-adv-x="0" 
 />
    <glyph glyph-name="nonmarkingreturn" horiz-adv-x="680" 
 />
    <glyph glyph-name="space" unicode=" " horiz-adv-x="625" 
 />
    <glyph glyph-name="space" unicode="&#xa0;" horiz-adv-x="625" 
 />
    <glyph glyph-name="exclam" unicode="!" horiz-adv-x="666" 
d="M161 612q8 -8 -81 1425l557 -39l-117 -1414zM198 -113q-75 53 -115 186q-17 54 -6 118q10 100 103 170q93 71 205 60q53 -14 99 -50q85 -68 113 -180t-28 -215t-165 -131t-206 42z" />
    <glyph glyph-name="quotedbl" unicode="&#x22;" horiz-adv-x="827" 
d="M761 2112q-64 -459 -36 -795l-310 -99l-5 824zM318 2139q-30 -462 25 -799l-301 -144l-64 819z" />
    <glyph glyph-name="numbersign" unicode="#" horiz-adv-x="1915" 
d="M786 994q3 -72 3 -211l279 17l-5 207q-97 -2 -277 -13zM363 1763l440 77q-11 -238 -14 -481l254 16l-16 388l437 77q-11 -224 -14 -445l349 22l17 -374q-58 -3 -182 -4t-178 -9q-8 -108 3 -214l337 23l36 -371q-116 -6 -360 -14q11 -86 17 -161l17 -163l-402 -108
l-16 413q-91 -3 -269 -14q8 -147 25 -291l-404 -108l-17 363q-64 -3 -116 -9l-133 -11l-116 374l352 19l-9 202q-119 -3 -252 -22l-91 379l324 25z" />
    <glyph glyph-name="dollar" unicode="$" horiz-adv-x="1408" 
d="M783 645q-11 0 -8 -14l5 -365h3q83 19 125 47q17 0 36 25q33 0 77 88l-3 78q-58 77 -130 99q0 19 -60 28l-28 14h-17zM335 1378q3 -64 91 -130q14 0 56 -33q17 0 36 -11h11l-9 285l6 36q-44 -22 -91 -25q-3 -11 -53 -33q-47 -50 -47 -89zM542 2231h178l16 -14v-44l6 -106
l11 -11h88q230 -19 258 -38l88 -25q89 -33 92 -58v-6l-17 -53l-17 -83l-102 -376h-3q-25 0 -69 30l-69 25q-58 28 -205 36l-47 6v-22l14 -360l11 -14h33l100 -25q91 -22 185 -72q83 -30 186 -141q58 -91 58 -108q11 0 19 -61q11 0 28 -74l3 -125q-17 -136 -78 -249
q0 -14 -83 -119q-50 -61 -105 -94q-72 -61 -152 -94q0 -11 -56 -31q0 -6 -58 -16q-6 -11 -61 -20l6 -124l-17 -22h-155q-22 0 -25 19l-2 77l-12 12h-22q-185 19 -268 38q-25 0 -78 28q-133 42 -171 86v8l11 169q11 0 14 138q11 17 25 164h8q14 0 113 -97l59 -20
q33 -28 63 -27q0 -19 177 -36q64 0 61 22l-3 14l-5 180l-8 218q-22 22 -117 36q0 11 -49 31l-50 25q-6 17 -36 16q0 11 -45 25l-85 80q-64 55 -94 114q-47 72 -78 213l-5 141q-3 44 16 111q22 116 130 249q58 72 188 158q122 58 140 58t46 33l-3 47l-5 116q-4 42 24 42z" />
    <glyph glyph-name="uni0025" unicode="%" horiz-adv-x="1571" 
d="M1079 202q0 -22 31 -22h30q39 0 86 94l19 105v6q-6 97 -83 110h-27q-50 -27 -68 -69t-24 -119q11 -105 36 -105zM1113 -185h-25q-127 0 -222 127q-36 61 -69 141q0 19 -19 83v8h2l-8 100q14 161 28 177q22 144 138 302q127 125 208 124l39 3q183 0 279 -191
q19 -17 50 -130l8 -180q-17 -138 -52 -249q-75 -208 -233 -279q-100 -36 -124 -36zM376 1489q44 0 94 86l9 80v22q-3 64 -67 86h-47q-77 -36 -74 -78q-28 1 -25 -81t58 -110l14 -5h38zM1331 1896q0 -8 -47 -105l-127 -283q-11 0 -20 -41q-14 -6 -22 -50l-152 -318
q-196 -410 -448 -864q-152 -257 -271 -415q-36 11 -205 202v3q72 75 174 268q111 188 321 604l141 279q202 412 410 866l19 14l39 -38q0 -6 25 -6q36 -39 163 -105v-11zM310 1204q-130 0 -199 66q-77 50 -114 141l-19 75l-6 125q14 108 53 180q17 44 124 166q83 77 202 99
h133q130 -42 150 -74q66 -19 122 -164l11 -83q8 -213 -122 -376q-100 -108 -180 -122q0 -22 -147 -33h-8z" />
    <glyph glyph-name="ampersand" unicode="&#x26;" horiz-adv-x="1643" 
d="M830 432q-36 0 -268 265h-11q-77 -86 -97 -141q-11 0 -11 -22l3 -77q3 -33 47 -78q58 -39 102 -41h3q138 17 155 41q17 0 77 42v11zM598 1461h-11q-53 -42 -50 -83q5 -102 41 -146t56 -56q69 0 138 122l14 36l-3 33q-17 17 -16 44q-50 58 -119 59zM872 952q0 -14 -22 -19
v-11l180 -164q50 -47 63 -47q61 100 67 144q25 39 36 108q11 0 16 58v3h8q50 -42 70 -44q0 -14 102 -58l91 -36l6 -20l-28 -113q-6 0 -11 -33q-8 -8 -19 -42l-78 -163q0 -11 64 -42q65 -47 125 -77t83 -53v-3q-31 -80 -89 -184t-105 -162l-11 -5l-114 64l-177 121l-130 -108
l-111 -55l-55 -22l-86 -25l-138 -8q-138 8 -197 33q-100 36 -132 75q-69 30 -147 180q-17 55 -44 168l-3 34q-3 83 16 135q6 53 42 125q25 44 90 127t134 130v8l-39 89q-86 166 -94 255q-3 0 -5 33h-3v55q11 133 25 133q-3 36 83 149q69 72 138 97q3 6 97 28h97l100 -22
q166 -53 263 -188q61 -86 63 -139q3 0 14 -63q0 -39 -14 -161q-8 0 -16 -61q-6 0 -34 -52q-97 -122 -130 -142q-28 -30 -41 -30z" />
    <glyph glyph-name="quotesingle" unicode="'" horiz-adv-x="755" 
d="M401 2123l-304 -485l-208 117l227 495z" />
    <glyph glyph-name="parenleft" unicode="(" horiz-adv-x="750" 
d="M506 2233q-268 -1229 103 -2593l-174 -119q-836 1434 -128 2798z" />
    <glyph glyph-name="parenright" unicode=")" horiz-adv-x="761" 
d="M321 2319q825 -1364 108 -2798l-183 119q255 1364 -116 2593z" />
    <glyph glyph-name="asterisk" unicode="*" horiz-adv-x="1073" 
d="M969 1677q-125 -97 -263 -191l218 -177l-185 -241q-22 19 -150 125q-6 -113 -5 -230l-263 -50l22 291q-89 -75 -194 -150l-143 222l249 188q-97 72 -213 155l154 274l189 -152l19 263l260 5l-16 -133q-8 -72 -14 -132l235 177z" />
    <glyph glyph-name="plus" unicode="+" horiz-adv-x="1267" 
d="M1193 623q-172 -19 -338 -39q8 -130 47 -335l-407 -69l-13 354q-122 -14 -283 -44l-124 429l360 44l-61 390l442 34q-30 -288 -27 -393l318 52z" />
    <glyph glyph-name="comma" unicode="," horiz-adv-x="567" 
d="M581 313q-177 -374 -243 -676h-380l155 701z" />
    <glyph glyph-name="hyphen" unicode="-" horiz-adv-x="805" 
d="M725 637q-351 22 -614 -17l-45 481l648 9z" />
    <glyph glyph-name="hyphen" unicode="&#xad;" horiz-adv-x="805" 
d="M725 637q-351 22 -614 -17l-45 481l648 9z" />
    <glyph glyph-name="period" unicode="." horiz-adv-x="633" 
d="M466 -113q-148 -103 -294 0q-86 59 -119 186q-14 54 -3 118q10 101 103 171q92 70 204 59q109 -29 173 -134t43 -212q-8 -55 -36 -107t-71 -81z" />
    <glyph glyph-name="slash" unicode="/" horiz-adv-x="1660" 
d="M1196 1979l487 -130q-767 -1143 -1229 -2051l-473 77z" />
    <glyph glyph-name="zero" unicode="0" horiz-adv-x="1516" 
d="M805 1489q-169 0 -282 -255q-94 -205 -105 -390q-7 -258 124 -376q83 -83 211 -83q174 0 274 166q77 133 88 318q3 210 -74 415q-89 205 -236 205zM805 2081q327 0 540 -335q229 -348 197 -808q-22 -390 -222 -722q-241 -404 -620 -404q-332 0 -545 326
q-105 163 -149 371q-50 196 -39 429q22 404 216 739q240 404 622 404z" />
    <glyph glyph-name="one" unicode="1" horiz-adv-x="1059" 
d="M955 1959q-58 -1104 55 -1959l-490 -127l-77 1458l-382 -55l-44 534z" />
    <glyph glyph-name="two" unicode="2" horiz-adv-x="1475" 
d="M639 2004q230 0 446 -147q280 -185 340 -457q58 -249 -119 -484q-133 -177 -440 -321q-238 -105 -282 -210l786 47l58 -523l-1320 -70q-28 64 -42 119q-64 282 11 485q89 241 537 490q252 136 272 265q6 75 -6 129t-58 98q-47 44 -108 45q-136 0 -100 -197l-539 -100
q-6 628 351 789q100 42 213 42z" />
    <glyph glyph-name="three" unicode="3" horiz-adv-x="1439" 
d="M512 661q-163 0 -429 -36l-8 474q246 172 459 326q-252 -22 -501 -47l-86 534l1213 64q8 -210 47 -631q-194 -3 -454 -246q595 -80 675 -418q64 -291 -243 -577t-648 -259q-401 30 -548 526l551 77q-6 -28 0 -63q11 -44 58 -45q22 0 55 6q119 36 175 122q19 30 11 63
q-36 130 -327 130z" />
    <glyph glyph-name="four" unicode="4" horiz-adv-x="1400" 
d="M720 1694l500 83q-17 -567 -13 -891l141 8l66 -534h-97q-53 -3 -83 -3q8 -188 31 -371l-460 -113l-25 467q-288 -19 -586 -47l-177 238l94 1362l559 80q-116 -609 -166 -1126l254 11z" />
    <glyph glyph-name="five" unicode="5" horiz-adv-x="1386" 
d="M529 -122q-202 0 -349 197q-83 105 -130 296q-25 116 -39 252l551 -42q-8 -61 5 -97q11 -55 56 -55q17 0 36 3q108 36 160 141q48 117 -55 210q-69 75 -310 75q-105 0 -244 -11l-180 -42q-22 421 -22 1107l1113 67l64 -518q-329 -19 -687 -36q0 -44 -3 -127
q720 -14 831 -399q64 -172 -22 -379q-55 -172 -189 -318q-277 -324 -586 -324z" />
    <glyph glyph-name="six" unicode="6" horiz-adv-x="1469" 
d="M772 338q64 0 136 30q149 64 130 158q-11 42 -51 82t-88 40q13 0 -137 -34t-228 -63q77 -213 238 -213zM772 2004q318 0 545 -313l-265 -418q-39 42 -83 83q-55 44 -94 44q-188 0 -313 -346q338 107 627 7t289 -405q-14 -280 -222 -528t-500 -247q-318 0 -537 315
q-122 174 -169 371t-47 377q3 376 182 686q222 374 587 374z" />
    <glyph glyph-name="seven" unicode="7" horiz-adv-x="1126" 
d="M1110 2015l-410 -2095l-490 -47l274 1516l-539 -36v534z" />
    <glyph glyph-name="eight" unicode="8" horiz-adv-x="1610" 
d="M850 805q-130 -14 -230 -94q-102 -89 -72 -213q18 -89 110 -136t211 -40t213 99q102 91 75 213q-23 86 -115 132t-192 39zM816 1514q-88 -3 -156 -61t-48 -136q28 -125 202 -113q90 6 158 61t48 126t-82 103q-64 32 -122 20zM1273 1118q379 -180 379 -551
q3 -288 -241 -503q-238 -202 -574 -226t-577 162q-174 127 -216 318q-58 244 89 471q89 163 268 268q-216 108 -257 296q-11 44 -14 106q3 232 219 404q205 152 481 171q280 11 485 -127q161 -113 196 -269q8 -44 8 -94q3 -249 -246 -426z" />
    <glyph glyph-name="nine" unicode="9" horiz-adv-x="1585" 
d="M750 1038q113 6 194 75q80 69 52 168q-19 75 -91 110t-158 32q-109 -11 -187 -79t-59 -171q19 -72 94 -107q75 -39 155 -28zM761 661q-349 -22 -578 155q-236 178 -236 463q-5 293 237 499t574 231t573 -155q180 -136 233 -329q44 -202 -56 -396q-227 -681 -335 -1231
l-498 77l205 700q-30 -11 -119 -14z" />
    <glyph glyph-name="colon" unicode=":" horiz-adv-x="650" 
d="M249 963q-167 61 -210 234q-13 57 -5 114q17 112 106 179q90 67 203 49q112 -22 174 -129q62 -106 42 -214q-17 -117 -108 -185q-92 -68 -202 -48zM483 278q-144 -97 -295 0q-86 57 -119 186q-14 54 -3 114q11 107 110 179q40 29 94 43t104 5q171 -53 213 -227
q26 -107 -33 -220q-28 -51 -71 -80z" />
    <glyph glyph-name="semicolon" unicode=";" horiz-adv-x="683" 
d="M313 963q-119 35 -176 129q-73 120 -54 223q49 185 213 221q129 26 213 -37t120 -176q36 -112 -35 -231q-60 -99 -169 -126q-57 -14 -112 -3zM603 581q-166 -468 -238 -849l-359 -3l141 891z" />
    <glyph glyph-name="equal" unicode="=" horiz-adv-x="1162" 
d="M1149 329q-476 -28 -939 -113l-133 432l994 110zM1090 949q-542 -39 -941 -116l-130 426l994 116z" />
    <glyph glyph-name="question" unicode="?" horiz-adv-x="1079" 
d="M482 -113q-94 -67 -198 -43q-170 39 -216 229q-40 182 105 295q40 30 95 44t103 9q55 -14 101 -50q82 -64 110 -177t-31 -226q-28 -51 -69 -81zM490 783l-14 -210l-340 22l-34 484q435 127 456 341t-489 182l36 474q368 -33 603 -141q318 -149 308 -441
q-19 -371 -327 -600q-77 -56 -199 -111z" />
    <glyph glyph-name="at" unicode="@" horiz-adv-x="2191" 
d="M968 490q82 0 138 74q54 74 62 148t-33 116t-99 26t-110 -90q-51 -74 -46 -161q6 -113 88 -113zM1140 2269q374 0 681 -229q371 -274 390 -720q14 -327 -182 -816q-163 -404 -582 -665l-232 250l19 260q-166 -136 -348 -136q-127 0 -216 91q-111 113 -119 291
q-14 304 191 576q160 216 365 271q100 28 194 0l3 22q50 6 91 6l152 -11q50 0 100 11q-39 -302 -69 -568l-70 -559q260 293 316 545q30 136 28 247q-14 307 -269 481q-205 149 -451 150q-396 0 -598 -324q-152 -249 -135 -637q11 -280 135 -653l-412 -337q-252 1101 30 1763
q152 349 419 520t569 171z" />
    <glyph glyph-name="A" unicode="A" horiz-adv-x="1400" 
d="M805 639l-144 759l-80 -761zM0 -6q219 977 310 1943l653 105q155 -866 509 -2000l-498 -133l-80 354l-327 -42l-44 -359z" />
    <glyph glyph-name="B" unicode="B" horiz-adv-x="1367" 
d="M426 1198q213 55 260 164q75 205 -119 227q-80 11 -180 -23zM506 376q130 -11 216 14q125 44 141 158q25 147 -113 199q-127 55 -271 -3zM58 1007q-64 814 -72 883q205 105 472 108t450 -116q191 -133 216 -346q25 -241 -191 -459q274 -39 390 -313q61 -125 47 -255
q-8 -149 -97 -265q-194 -257 -520 -330q-235 -44 -623 -3q-17 515 -72 1096z" />
    <glyph glyph-name="C" unicode="C" horiz-adv-x="1181" 
d="M127 390q-125 282 -133 582t72 553q91 257 255 403t371 109q232 -36 481 -293l-116 -194l-122 -194q-246 183 -387 25q-122 -133 -102 -423q25 -282 155 -413q152 -161 373 36l258 -351q-178 -291 -388 -338t-409 102q-189 136 -308 396z" />
    <glyph glyph-name="D" unicode="D" horiz-adv-x="1389" 
d="M529 1423q-14 -447 19 -908q185 83 282 265q89 174 64 342t-126 238t-239 63zM8 1926q705 154 1030 -133q249 -216 310 -489q28 -108 27 -214q-6 -235 -85 -429q-86 -227 -285 -404q-111 -108 -244 -177q-277 -163 -642 -169h-6l-85 1675q-17 301 -20 340z" />
    <glyph glyph-name="E" unicode="E" horiz-adv-x="1178" 
d="M999 858q-263 -47 -454 -86l6 -263l553 89l83 -523q-383 -24 -1071 -197q-11 172 -33 504l-28 512q-33 670 -49 1013l982 133l47 -258l42 -260q-149 -14 -285 -28q-130 -19 -255 -33q-6 -100 -6 -144l-2 -141l207 36l202 44l28 -196z" />
    <glyph glyph-name="F" unicode="F" horiz-adv-x="1131" 
d="M506 1442l6 -302l520 108l67 -396q-307 -50 -570 -108q14 -379 58 -744l-490 -127l-119 2023l1010 135l91 -523q-305 -19 -573 -66z" />
    <glyph glyph-name="G" unicode="G" horiz-adv-x="1588" 
d="M822 2045q174 -1 310 -79t243 -247l-262 -338q-147 185 -324 119q-155 -64 -266 -293q-127 -257 -75 -543q30 -149 108 -232q100 -94 238 -86t232 104t120 245q-234 -47 -426 -106v211l-3 205l418 85l415 78q51 -186 16 -424q-42 -224 -121 -379q-238 -503 -723 -503
q-161 0 -299 77q-130 83 -238 235q-106 182 -139 321q-50 215 -43 457q11 191 63 368q58 180 153 338q122 196 274 293q155 94 329 94z" />
    <glyph glyph-name="H" unicode="H" horiz-adv-x="1358" 
d="M540 2009q-28 -562 -20 -963l244 47l-42 822l548 94q-47 -1179 50 -2001l-501 -133l-39 789q-83 -19 -246 -52q22 -354 55 -604l-492 -133l-103 2040z" />
    <glyph glyph-name="I" unicode="I" horiz-adv-x="666" 
d="M545 2004q-54 -1088 42 -1960l-230 -69l-227 -61l-91 1998z" />
    <glyph glyph-name="J" unicode="J" horiz-adv-x="1090" 
d="M999 2009q-44 -1162 50 -1962l-462 -127q-11 0 -197 34t-271 49l-108 22l158 495l379 -52l-64 1447z" />
    <glyph glyph-name="K" unicode="K" horiz-adv-x="1361" 
d="M0 1915l509 94q-17 -249 -11 -396q213 210 388 413l442 -233l-489 -489l608 -1155l-492 -271l-462 1066q11 -459 52 -897l-445 -130z" />
    <glyph glyph-name="L" unicode="L" horiz-adv-x="1059" 
d="M6 1910l503 91q-36 -789 0 -1445l523 78l72 -529q-407 -30 -1007 -194z" />
    <glyph glyph-name="M" unicode="M" horiz-adv-x="1840" 
d="M3 -44q202 866 277 1951l459 108l180 -1030l80 988l443 42q141 -969 484 -2048l-490 -114l-221 1046l-69 -988l-404 -38l-155 1090l-97 -1118z" />
    <glyph glyph-name="N" unicode="N" horiz-adv-x="1433" 
d="M19 1971l507 96q14 -91 50 -254q190 -757 299 -938l-47 1098l503 94q-53 -1140 47 -1965l-462 -127q-3 11 -61 100l-257 418q-64 100 -78 132q14 -343 47 -650l-451 -130z" />
    <glyph glyph-name="O" unicode="O" horiz-adv-x="1444" 
d="M720 1472q-138 0 -208 -238q-58 -180 -64 -371q6 -94 31 -174q30 -119 98 -183t165 -63q141 0 207 141q53 122 46 316t-79 381q-77 191 -196 191zM708 2026q302 0 512 -313q116 -174 168 -358t54 -403q6 -374 -163 -689q-202 -385 -551 -385q-307 0 -515 321
q-97 138 -160 338q-53 199 -53 415q0 382 158 692q199 382 550 382z" />
    <glyph glyph-name="P" unicode="P" horiz-adv-x="1292" 
d="M501 1021q163 3 260 114q75 80 83 210q17 166 -108 221q-102 44 -268 -19zM69 891q-25 872 -75 1041q428 122 696 102q544 -40 578 -631q14 -238 -75 -432q-83 -161 -233 -271q-174 -138 -423 -182q-3 -202 41 -584l-481 -59q2 280 -28 1016z" />
    <glyph glyph-name="Q" unicode="Q" horiz-adv-x="1560" 
d="M1348 1735q111 -166 158 -360q119 -482 -83 -949q39 -119 163 -365l-368 -246l-83 207q-202 -161 -410 -160q-321 0 -529 318q-203 330 -177 775q17 385 205 706q246 399 612 398q307 0 512 -324zM728 863l188 97l185 106q-22 152 -83 274q-83 161 -196 160
q-158 0 -274 -244q-100 -202 -108 -417q-4 -244 146 -385t333 -28z" />
    <glyph glyph-name="R" unicode="R" horiz-adv-x="1333" 
d="M747 2054q415 0 501 -374q47 -446 -329 -731q64 -111 481 -650q-155 -166 -387 -410l-518 800q11 -385 47 -700l-445 -133q-30 1530 -103 2056q446 142 753 142zM476 1345v-202q94 50 180 127q138 130 119 224q-17 72 -97 76t-202 -26q-6 -105 0 -199z" />
    <glyph glyph-name="S" unicode="S" horiz-adv-x="1405" 
d="M739 1389q-113 0 -197 -113q-58 -91 -30 -172q22 -50 136 -50q58 0 164 20t212 19q255 0 335 -163q28 -53 44 -108q39 -180 -63 -390q-122 -277 -429 -460q-292 -192 -662 -19q39 172 130 504q113 -69 222 -70q53 0 99 23q91 19 166 63q102 58 89 122q-14 77 -139 78
q-86 0 -243 -34q-155 -41 -255 -41t-166 47q-141 72 -152 230q-36 310 257 722q310 423 604 443q282 16 382 -396q22 -97 36 -221q-64 -25 -211 -83l-213 -81q-28 130 -116 130z" />
    <glyph glyph-name="T" unicode="T" horiz-adv-x="1303" 
d="M363 1411l-405 -52l12 545l1223 133l102 -543q-324 -19 -462 -30q-6 -346 133 -1497l-534 -128z" />
    <glyph glyph-name="U" unicode="U" horiz-adv-x="1419" 
d="M689 371q130 0 199 102q64 86 59 235l-178 1323l510 -36l155 -1414q36 -343 -194 -515q-174 -127 -579 -182q-379 -47 -536 202q-136 216 -106 614l111 1293l518 -47l-67 -499l-58 -498q3 -36 -11 -163q-17 -113 -14 -188q11 -227 191 -227z" />
    <glyph glyph-name="V" unicode="V" horiz-adv-x="1286" 
d="M462 2031q50 -454 172 -1334q55 836 61 1265l559 -50q-185 -908 -313 -1926l-634 -105q-100 841 -368 2034z" />
    <glyph glyph-name="W" unicode="W" horiz-adv-x="1818" 
d="M1816 1915q-202 -852 -277 -1929l-496 -119l-146 922l-67 -880l-454 -34q-144 958 -453 1957l481 119l197 -971l58 1035l407 39l166 -1138l96 1115z" />
    <glyph glyph-name="X" unicode="X" horiz-adv-x="1336" 
d="M393 2103l125 -279q58 -130 116 -280l88 247q50 130 94 246l540 -42l-454 -1024q221 -462 438 -835l-363 -299l-307 617l-266 -581l-429 130q224 432 432 955l-435 863z" />
    <glyph glyph-name="Y" unicode="Y" horiz-adv-x="1353" 
d="M1340 1940q-205 -562 -355 -1074q-144 -512 -235 -968l-484 27l180 659l-521 1204l532 268q28 -144 68 -347t112 -405l193 714z" />
    <glyph glyph-name="Z" unicode="Z" horiz-adv-x="1488" 
d="M1398 2015q11 -133 41 -526q-105 -127 -396 -518q-100 -119 -191 -254q-127 -166 -174 -260l720 41l58 -526q-794 -25 -1312 -91l-119 531q97 136 387 518l416 531q-266 -25 -562 -74l-100 542z" />
    <glyph glyph-name="bracketleft" unicode="[" horiz-adv-x="766" 
d="M576 -219q17 0 152 25t254 61l117 -423q-576 -136 -911 -133q-38 457 -62 811t-42 592q-59 780 -59 1495l-6 41q116 47 332 105t281 69t126 17l89 -426q-133 -17 -269 -42q-58 -14 -116 -27q8 -288 20 -571q14 -230 26 -480t40 -661q28 -410 28 -453z" />
    <glyph glyph-name="backslash" unicode="\" horiz-adv-x="1333" 
d="M172 2458q185 -415 390 -842q91 -177 188 -378q339 -702 631 -1235l-310 -205q-191 357 -390 753q-197 356 -568 1152q-97 209 -185 409z" />
    <glyph glyph-name="bracketright" unicode="]" horiz-adv-x="467" 
d="M285 1968h-133q-141 0 -274 -9l-33 413q147 14 362 5q214 -10 416 -41q86 -581 105 -872q10 -328 14 -1375q-6 -235 -9 -449l3 -69q-125 -43 -209 -63q-85 -20 -285 -56t-261 -39l-61 415q127 6 265 25q55 14 122 25q7 266 5 514t-3 552q-1 305 -16 932l-5 86q-3 0 -3 6z
" />
    <glyph glyph-name="asciicircum" unicode="^" horiz-adv-x="1823" 
d="M1251 -161q-118 35 -170 126q-17 31 -29 62q-33 -78 -82 -113q-108 -77 -209 -47q-115 25 -169 123q-15 28 -26 56q-33 -160 -194 -211q-96 -28 -195 41t-127 190q-14 55 0 114q11 109 106 178q40 29 94 46t104 8q148 -61 197 -175q15 85 101 151t200 55
q107 -33 173 -133q17 -26 29 -56q43 111 180 153q53 17 103 11q113 -35 175 -133q100 -151 7 -320q-54 -99 -160 -124q-55 -13 -108 -2zM620 2211l664 89l-263 -1719q-363 42 -381 20t-15 488t-5 1122zM1176 584q4 4 58 520t64 914l603 -86l-368 -1448zM105 558v-2v2z
M105 558q-1 40 -33 398t-125 1100l565 75l-33 -1550q-369 11 -374 -23z" />
    <glyph glyph-name="underscore" unicode="_" horiz-adv-x="1231" 
d="M1281 -396q-695 14 -1209 -8l-55 285l1273 8z" />
    <glyph glyph-name="grave" unicode="`" horiz-adv-x="520" 
d="M246 2128l200 -620l-272 -88l-296 600z" />
    <glyph glyph-name="a" unicode="a" horiz-adv-x="1400" 
d="M805 639l-144 759l-80 -761zM0 -6q219 977 310 1943l653 105q155 -866 509 -2000l-498 -133l-80 354l-327 -42l-44 -359z" />
    <glyph glyph-name="b" unicode="b" horiz-adv-x="1367" 
d="M426 1198q213 55 260 164q75 205 -119 227q-80 11 -180 -23zM506 376q130 -11 216 14q125 44 141 158q25 147 -113 199q-127 55 -271 -3zM58 1007q-64 814 -72 883q205 105 472 108t450 -116q191 -133 216 -346q25 -241 -191 -459q274 -39 390 -313q61 -125 47 -255
q-8 -149 -97 -265q-194 -257 -520 -330q-235 -44 -623 -3q-17 515 -72 1096z" />
    <glyph glyph-name="c" unicode="c" horiz-adv-x="1181" 
d="M127 390q-125 282 -133 582t72 553q91 257 255 403t371 109q232 -36 481 -293l-116 -194l-122 -194q-246 183 -387 25q-122 -133 -102 -423q25 -282 155 -413q152 -161 373 36l258 -351q-178 -291 -388 -338t-409 102q-189 136 -308 396z" />
    <glyph glyph-name="d" unicode="d" horiz-adv-x="1389" 
d="M529 1423q-14 -447 19 -908q185 83 282 265q89 174 64 342t-126 238t-239 63zM8 1926q705 154 1030 -133q249 -216 310 -489q28 -108 27 -214q-6 -235 -85 -429q-86 -227 -285 -404q-111 -108 -244 -177q-277 -163 -642 -169h-6l-85 1675q-17 301 -20 340z" />
    <glyph glyph-name="e" unicode="e" horiz-adv-x="1178" 
d="M999 858q-263 -47 -454 -86l6 -263l553 89l83 -523q-383 -24 -1071 -197q-11 172 -33 504l-28 512q-33 670 -49 1013l982 133l47 -258l42 -260q-149 -14 -285 -28q-130 -19 -255 -33q-6 -100 -6 -144l-2 -141l207 36l202 44l28 -196z" />
    <glyph glyph-name="f" unicode="f" horiz-adv-x="1131" 
d="M506 1442l6 -302l520 108l67 -396q-307 -50 -570 -108q14 -379 58 -744l-490 -127l-119 2023l1010 135l91 -523q-305 -19 -573 -66z" />
    <glyph glyph-name="g" unicode="g" horiz-adv-x="1588" 
d="M822 2045q174 -1 310 -79t243 -247l-262 -338q-147 185 -324 119q-155 -64 -266 -293q-127 -257 -75 -543q30 -149 108 -232q100 -94 238 -86t232 104t120 245q-234 -47 -426 -106v211l-3 205l418 85l415 78q51 -186 16 -424q-42 -224 -121 -379q-238 -503 -723 -503
q-161 0 -299 77q-130 83 -238 235q-106 182 -139 321q-50 215 -43 457q11 191 63 368q58 180 153 338q122 196 274 293q155 94 329 94z" />
    <glyph glyph-name="h" unicode="h" horiz-adv-x="1358" 
d="M540 2009q-28 -562 -20 -963l244 47l-42 822l548 94q-47 -1179 50 -2001l-501 -133l-39 789q-83 -19 -246 -52q22 -354 55 -604l-492 -133l-103 2040z" />
    <glyph glyph-name="i" unicode="i" horiz-adv-x="666" 
d="M545 2004q-54 -1088 42 -1960l-230 -69l-227 -61l-91 1998z" />
    <glyph glyph-name="j" unicode="j" horiz-adv-x="1090" 
d="M999 2009q-44 -1162 50 -1962l-462 -127q-11 0 -197 34t-271 49l-108 22l158 495l379 -52l-64 1447z" />
    <glyph glyph-name="k" unicode="k" horiz-adv-x="1361" 
d="M0 1915l509 94q-17 -249 -11 -396q213 210 388 413l442 -233l-489 -489l608 -1155l-492 -271l-462 1066q11 -459 52 -897l-445 -130z" />
    <glyph glyph-name="l" unicode="l" horiz-adv-x="1059" 
d="M6 1910l503 91q-36 -789 0 -1445l523 78l72 -529q-407 -30 -1007 -194z" />
    <glyph glyph-name="m" unicode="m" horiz-adv-x="1840" 
d="M3 -44q202 866 277 1951l459 108l180 -1030l80 988l443 42q141 -969 484 -2048l-490 -114l-221 1046l-69 -988l-404 -38l-155 1090l-97 -1118z" />
    <glyph glyph-name="n" unicode="n" horiz-adv-x="1433" 
d="M19 1971l507 96q14 -91 50 -254q190 -757 299 -938l-47 1098l503 94q-53 -1140 47 -1965l-462 -127q-3 11 -61 100l-257 418q-64 100 -78 132q14 -343 47 -650l-451 -130z" />
    <glyph glyph-name="o" unicode="o" horiz-adv-x="1444" 
d="M720 1472q-138 0 -208 -238q-58 -180 -64 -371q6 -94 31 -174q30 -119 98 -183t165 -63q141 0 207 141q53 122 46 316t-79 381q-77 191 -196 191zM708 2026q302 0 512 -313q116 -174 168 -358t54 -403q6 -374 -163 -689q-202 -385 -551 -385q-307 0 -515 321
q-97 138 -160 338q-53 199 -53 415q0 382 158 692q199 382 550 382z" />
    <glyph glyph-name="p" unicode="p" horiz-adv-x="1292" 
d="M501 1021q163 3 260 114q75 80 83 210q17 166 -108 221q-102 44 -268 -19zM69 891q-25 872 -75 1041q428 122 696 102q544 -40 578 -631q14 -238 -75 -432q-83 -161 -233 -271q-174 -138 -423 -182q-3 -202 41 -584l-481 -59q2 280 -28 1016z" />
    <glyph glyph-name="q" unicode="q" horiz-adv-x="1560" 
d="M1348 1735q111 -166 158 -360q119 -482 -83 -949q39 -119 163 -365l-368 -246l-83 207q-202 -161 -410 -160q-321 0 -529 318q-203 330 -177 775q17 385 205 706q246 399 612 398q307 0 512 -324zM728 863l188 97l185 106q-22 152 -83 274q-83 161 -196 160
q-158 0 -274 -244q-100 -202 -108 -417q-4 -244 146 -385t333 -28z" />
    <glyph glyph-name="r" unicode="r" horiz-adv-x="1333" 
d="M747 2054q415 0 501 -374q47 -446 -329 -731q64 -111 481 -650q-155 -166 -387 -410l-518 800q11 -385 47 -700l-445 -133q-30 1530 -103 2056q446 142 753 142zM476 1345v-202q94 50 180 127q138 130 119 224q-17 72 -97 76t-202 -26q-6 -105 0 -199z" />
    <glyph glyph-name="s" unicode="s" horiz-adv-x="1405" 
d="M739 1389q-113 0 -197 -113q-58 -91 -30 -172q22 -50 136 -50q58 0 164 20t212 19q255 0 335 -163q28 -53 44 -108q39 -180 -63 -390q-122 -277 -429 -460q-292 -192 -662 -19q39 172 130 504q113 -69 222 -70q53 0 99 23q91 19 166 63q102 58 89 122q-14 77 -139 78
q-86 0 -243 -34q-155 -41 -255 -41t-166 47q-141 72 -152 230q-36 310 257 722q310 423 604 443q282 16 382 -396q22 -97 36 -221q-64 -25 -211 -83l-213 -81q-28 130 -116 130z" />
    <glyph glyph-name="t" unicode="t" horiz-adv-x="1303" 
d="M363 1411l-405 -52l12 545l1223 133l102 -543q-324 -19 -462 -30q-6 -346 133 -1497l-534 -128z" />
    <glyph glyph-name="u" unicode="u" horiz-adv-x="1419" 
d="M689 371q130 0 199 102q64 86 59 235l-178 1323l510 -36l155 -1414q36 -343 -194 -515q-174 -127 -579 -182q-379 -47 -536 202q-136 216 -106 614l111 1293l518 -47l-67 -499l-58 -498q3 -36 -11 -163q-17 -113 -14 -188q11 -227 191 -227z" />
    <glyph glyph-name="v" unicode="v" horiz-adv-x="1286" 
d="M462 2031q50 -454 172 -1334q55 836 61 1265l559 -50q-185 -908 -313 -1926l-634 -105q-100 841 -368 2034z" />
    <glyph glyph-name="w" unicode="w" horiz-adv-x="1818" 
d="M1816 1915q-202 -852 -277 -1929l-496 -119l-146 922l-67 -880l-454 -34q-144 958 -453 1957l481 119l197 -971l58 1035l407 39l166 -1138l96 1115z" />
    <glyph glyph-name="x" unicode="x" horiz-adv-x="1336" 
d="M393 2103l125 -279q58 -130 116 -280l88 247q50 130 94 246l540 -42l-454 -1024q221 -462 438 -835l-363 -299l-307 617l-266 -581l-429 130q224 432 432 955l-435 863z" />
    <glyph glyph-name="y" unicode="y" horiz-adv-x="1353" 
d="M1340 1940q-205 -562 -355 -1074q-144 -512 -235 -968l-484 27l180 659l-521 1204l532 268q28 -144 68 -347t112 -405l193 714z" />
    <glyph glyph-name="z" unicode="z" horiz-adv-x="1488" 
d="M1398 2015q11 -133 41 -526q-105 -127 -396 -518q-100 -119 -191 -254q-127 -166 -174 -260l720 41l58 -526q-794 -25 -1312 -91l-119 531q97 136 387 518l416 531q-266 -25 -562 -74l-100 542z" />
    <glyph glyph-name="braceleft" unicode="{" horiz-adv-x="1408" 
d="M385 210q136 61 268 133q55 33 160 95q219 130 338 235l155 -355q-367 -262 -591 -372q-65 -32 -134 -65zM1068 1215q-126 89 -226 141t-164 88q-192 110 -410 189l111 362q125 -47 255 -105q53 -28 210 -110t285 -172zM1035 767q-266 -25 -519 -25t-403 16l-66 399
q161 -13 280 -15t210 -5t247 4q157 7 240 21z" />
    <glyph glyph-name="braceright" unicode="}" horiz-adv-x="1408" 
d="M949 1677q-316 -168 -381 -210q-64 -42 -171 -106t-214 -152l-153 349q158 116 278 191q121 75 205 128t240 118zM268 664q148 -98 359 -208q286 -149 441 -207l-108 -368q-204 88 -316 145q-113 57 -203 102t-233 146zM327 1182q495 38 755 19q83 -6 163 -14l61 -398
q-268 27 -551 24t-420 -27z" />
    <glyph glyph-name="asciitilde" unicode="~" horiz-adv-x="1369" 
d="M1101 -167q-94 -29 -195 40t-127 192q-12 57 -1 109q16 169 202 230q53 17 105 6q109 -39 171 -130t45 -214q-25 -184 -200 -233zM567 -122q-145 -103 -296 0q-89 61 -110 184t36 213q56 90 175 129q51 17 110 6q103 -42 164 -131q61 -90 38 -212t-117 -189zM509 830
l25 -271l-329 -55l-122 520q393 227 375 440t-494 66l-47 463q346 53 595 2q327 -69 365 -357q53 -363 -202 -658q-64 -70 -166 -150zM886 578q5 12 5 230l6 507q6 327 8 750l504 -86l-197 -1459q-94 24 -145 32t-98 17t-72 9h-11z" />
    <glyph glyph-name="ogonek" unicode="&#x2db;" horiz-adv-x="940" 
d="M684 -125v-5q-72 -42 -130 -124t-54 -153q4 -72 47 -115t95 -43q52 1 96 23q43 22 84 41l17 -307q-106 -61 -242 -61t-250 91q-51 42 -85 111q-35 69 -38 145q-5 130 79 237t170 160h211z" />
    <glyph glyph-name="tilde" unicode="&#x2dc;" horiz-adv-x="940" 
d="M232 2175q-84 0 -91 -116h-227q8 221 43 304q76 180 228 180q95 -1 206 -71t174 -70t87 42t26 105l233 -17q-20 -226 -57 -308q-36 -82 -92 -130t-132 -48t-140 28q-64 29 -122 54q-34 19 -64 33t-72 14z" />
    <glyph glyph-name="hungarumlaut" unicode="&#x2dd;" horiz-adv-x="940" 
d="M421 2430l-385 -495l-221 143l274 518zM1005 2430l-388 -495l-221 143l282 518z" />
    <glyph glyph-name="afii10023" unicode="&#x401;" horiz-adv-x="1129" 
d="M177 1982q-97 0 -158 65t-49 148q2 93 78 157t174 64t155 -64q58 -64 55 -157q-10 -83 -84 -148t-171 -65zM680 2056q-96 0 -160 64t-50 149q3 91 75 155t172 64q101 0 161 -64t57 -155q-11 -85 -85 -149t-170 -64zM512 1447q-6 -83 -3 -163l3 -152l465 94l64 -387
q-338 -64 -526 -100q0 -58 5 -108l3 -113l554 71l80 -523q-429 -30 -1071 -193l-108 2023l982 135l89 -523q-296 -19 -537 -61z" />
    <glyph glyph-name="afii10017" unicode="&#x410;" horiz-adv-x="1400" 
d="M805 639l-144 759l-80 -761zM0 -6q219 977 310 1943l653 105q155 -866 509 -2000l-498 -133l-80 354l-327 -42l-44 -359z" />
    <glyph glyph-name="afii10018" unicode="&#x411;" horiz-adv-x="1339" 
d="M523 382q199 28 305 122q89 91 55 207q-25 77 -123 109t-251 13zM969 1226q299 -91 357 -351q69 -280 -45 -493q-89 -183 -310 -307q-191 -111 -434 -155q-224 -36 -412 0l-50 996q-33 526 -67 1005l900 80l127 -501q-255 -14 -562 -39l9 -199q277 30 487 -36z" />
    <glyph glyph-name="afii10019" unicode="&#x412;" horiz-adv-x="1367" 
d="M426 1198q213 55 260 164q75 205 -119 227q-80 11 -180 -23zM506 376q130 -11 216 14q125 44 141 158q25 147 -113 199q-127 55 -271 -3zM58 1007q-64 814 -72 883q205 105 472 108t450 -116q191 -133 216 -346q25 -241 -191 -459q274 -39 390 -313q61 -125 47 -255
q-8 -149 -97 -265q-194 -257 -520 -330q-235 -44 -623 -3q-17 515 -72 1096z" />
    <glyph glyph-name="afii10020" unicode="&#x413;" horiz-adv-x="1115" 
d="M545 722q-33 338 80 -719l-500 -128l-67 1013l-52 1016l1015 133l83 -515q-241 -28 -375 -42t-234 -30q3 -285 50 -728z" />
    <glyph glyph-name="afii10021" unicode="&#x414;" horiz-adv-x="1549" 
d="M1575 -133q-851 38 -1503 -47l-66 451l179 25q161 706 250 1636l686 102q89 -858 293 -1694l175 -19l-6 -230zM922 340q-55 252 -155 856q-53 -493 -83 -867z" />
    <glyph glyph-name="afii10022" unicode="&#x415;" horiz-adv-x="1178" 
d="M999 858q-263 -47 -454 -86l6 -263l553 89l83 -523q-383 -24 -1071 -197q-11 172 -33 504l-28 512q-33 670 -49 1013l982 133l47 -258l42 -260q-149 -14 -285 -28q-130 -19 -255 -33q-6 -100 -6 -144l-2 -141l207 36l202 44l28 -196z" />
    <glyph glyph-name="afii10024" unicode="&#x416;" horiz-adv-x="2089" 
d="M1276 1940q-8 -177 -11 -479q39 33 110 147q66 122 97 155q-86 -89 177 196l429 -229l-473 -581l592 -1013l-484 -261l-440 905l3 -578q3 -149 22 -279l-470 -84l-28 911l-371 -850l-493 258l540 1015l-512 587l415 222q49 -50 189 -238t218 -255l-17 656z" />
    <glyph glyph-name="afii10025" unicode="&#x417;" horiz-adv-x="1273" 
d="M1079 1326q-55 -130 -188 -233q385 -69 388 -456q3 -335 -219 -568q-227 -232 -520 -177q-180 33 -316 166q-147 133 -243 371l456 163q61 -111 133 -146q55 -33 111 0q94 66 58 221q-33 138 -169 136q-83 0 -263 -20l17 188l19 186q97 9 219 93t94 189q-11 47 -50 67
q-30 22 -80 20t-141 -62q-83 -64 -208 -174l-124 218l-122 222q293 296 681 307q194 3 323 -91q144 -113 175 -333q22 -149 -31 -287z" />
    <glyph glyph-name="afii10026" unicode="&#x418;" horiz-adv-x="1419" 
d="M545 2004q-88 -622 -33 -1201q53 325 168 677t153 449l487 80q-11 -542 17 -1049q33 -506 69 -902l-426 -116q-50 534 -92 1032q-80 -194 -157 -451t-94 -465q-53 -11 -229 -58t-267 -83q-55 518 -77 1005t-78 988z" />
    <glyph glyph-name="afii10027" unicode="&#x419;" horiz-adv-x="1469" 
d="M1442 -47l-570 -97q118 602 94 1138q-72 -254 -205 -610t-172 -448l-487 -83q30 512 -5 1024q-42 506 -105 908l454 119q86 -518 110 -1088q108 260 197 526q94 257 116 462q337 91 369 98t137 44q22 -509 28 -1002q0 -493 39 -991zM1209 1995l-642 -196l-58 296l496 241
z" />
    <glyph glyph-name="afii10028" unicode="&#x41a;" horiz-adv-x="1333" 
d="M0 1915l509 94q-17 -249 -11 -396q213 210 388 413l442 -233l-489 -489l608 -1155l-492 -271l-462 1066q11 -459 52 -897l-445 -130z" />
    <glyph glyph-name="afii10029" unicode="&#x41b;" 
d="M819 -163q-53 457 -174 1356q-58 -852 -67 -1284l-572 47q191 922 321 1959l655 100q97 -850 377 -2062z" />
    <glyph glyph-name="afii10030" unicode="&#x41c;" horiz-adv-x="1840" 
d="M3 -44q202 866 277 1951l459 108l180 -1030l80 988l443 42q141 -969 484 -2048l-490 -114l-221 1046l-69 -988l-404 -38l-155 1090l-97 -1118z" />
    <glyph glyph-name="afii10031" unicode="&#x41d;" horiz-adv-x="1358" 
d="M540 2009q-28 -562 -20 -963l244 47l-42 822l548 94q-47 -1179 50 -2001l-501 -133l-39 789q-83 -19 -246 -52q22 -354 55 -604l-492 -133l-103 2040z" />
    <glyph glyph-name="afii10032" unicode="&#x41e;" horiz-adv-x="1444" 
d="M720 1472q-138 0 -208 -238q-58 -180 -64 -371q6 -94 31 -174q30 -119 98 -183t165 -63q141 0 207 141q53 122 46 316t-79 381q-77 191 -196 191zM708 2026q302 0 512 -313q116 -174 168 -358t54 -403q6 -374 -163 -689q-202 -385 -551 -385q-307 0 -515 321
q-97 138 -160 338q-53 199 -53 415q0 382 158 692q199 382 550 382z" />
    <glyph glyph-name="afii10033" unicode="&#x41f;" 
d="M11 1827q1162 191 1168 191q-6 -127 111 -2054l-487 -80l-64 1610q-75 -8 -210 -30q-14 -681 66 -1489l-482 -122q-3 313 -55 991q-44 648 -47 983z" />
    <glyph glyph-name="afii10034" unicode="&#x420;" horiz-adv-x="1292" 
d="M501 1021q163 3 260 114q75 80 83 210q17 166 -108 221q-102 44 -268 -19zM69 891q-25 872 -75 1041q428 122 696 102q544 -40 578 -631q14 -238 -75 -432q-83 -161 -233 -271q-174 -138 -423 -182q-3 -202 41 -584l-481 -59q2 280 -28 1016z" />
    <glyph glyph-name="afii10035" unicode="&#x421;" horiz-adv-x="1181" 
d="M127 390q-125 282 -133 582t72 553q91 257 255 403t371 109q232 -36 481 -293l-116 -194l-122 -194q-246 183 -387 25q-122 -133 -102 -423q25 -282 155 -413q152 -161 373 36l258 -351q-178 -291 -388 -338t-409 102q-189 136 -308 396z" />
    <glyph glyph-name="afii10036" unicode="&#x422;" horiz-adv-x="1303" 
d="M363 1411l-405 -52l12 545l1223 133l102 -543q-324 -19 -462 -30q-6 -346 133 -1497l-534 -128z" />
    <glyph glyph-name="afii10037" unicode="&#x423;" horiz-adv-x="1353" 
d="M1340 1940q-205 -562 -355 -1074q-144 -512 -235 -968l-484 27l180 659l-521 1204l532 268q28 -144 68 -347t112 -405l193 714z" />
    <glyph glyph-name="afii10038" unicode="&#x424;" horiz-adv-x="2095" 
d="M1281 1904q335 -72 548 -288q255 -238 244 -589q-6 -349 -224 -609q-191 -232 -496 -349l17 -171l-540 -122v213q-316 14 -506 160q-219 169 -305 532q-80 377 150 745t573 470l-20 254l562 -135zM1533 786q77 163 39 376q-14 108 -102 169q-80 66 -219 78
q-17 -581 22 -878q183 108 260 255zM523 1113q-83 -158 -44 -369q25 -133 127 -213q94 -64 224 -49q0 349 -38 893q-189 -99 -269 -262z" />
    <glyph glyph-name="afii10039" unicode="&#x425;" horiz-adv-x="1336" 
d="M393 2103l125 -279q58 -130 116 -280l88 247q50 130 94 246l540 -42l-454 -1024q221 -462 438 -835l-363 -299l-307 617l-266 -581l-429 130q224 432 432 955l-435 863z" />
    <glyph glyph-name="afii10040" unicode="&#x426;" horiz-adv-x="1505" 
d="M-8 1951l528 94q-42 -223 -18 -723t85 -912h127q55 3 127 2l-44 858q-25 531 -41 701l487 83q-11 -678 55 -1603q152 14 327 39l-100 -382l-69 -459l-426 107l47 219q-432 -36 -526 -50q-291 -22 -396 -41l-72 1035q-42 592 -91 1032z" />
    <glyph glyph-name="afii10041" unicode="&#x427;" 
d="M1201 2034q-39 -424 -43 -1030t49 -996l-457 -130l-14 731q-296 -75 -437 -6q-133 69 -222 296q-39 86 -55 194q-22 105 -30 230q-13 268 -45 529l263 80l272 77q-3 -122 -20 -312q-22 -188 0 -352q11 -163 72 -252q55 -91 191 -11l-36 864z" />
    <glyph glyph-name="afii10042" unicode="&#x428;" horiz-adv-x="1906" 
d="M1802 2065q-24 -1114 80 -2065l-1785 -127l-83 2020l509 69q-53 -982 8 -1663l208 19l-42 814q-33 565 -47 814l510 72q-39 -958 41 -1669l224 27l-108 1586z" />
    <glyph glyph-name="afii10043" unicode="&#x429;" horiz-adv-x="2083" 
d="M537 1971q-58 -985 5 -1667l205 20l-74 1647l509 71q-44 -1002 25 -1685q105 11 227 30l-103 1539l490 94q-28 -862 25 -1547q180 30 304 47q-133 -479 -196 -896l-426 108l55 254l-1481 -108l-74 2021z" />
    <glyph glyph-name="afii10044" unicode="&#x42a;" horiz-adv-x="1480" 
d="M689 418q158 -36 274 47q125 83 101 234t-95 212q-91 75 -269 44zM288 1547l-349 -25l111 493l681 -67q-17 -205 0 -531q241 3 420 -91q155 -75 247 -222q100 -172 96 -409q0 -310 -141 -493q-133 -177 -398 -257q-274 -72 -656 -45q31 457 -11 1647z" />
    <glyph glyph-name="afii10045" unicode="&#x42b;" horiz-adv-x="1865" 
d="M1273 1865l507 94q-53 -1137 44 -1962l-460 -127zM515 371q174 -28 268 47q119 75 89 241q-19 116 -100 188q-105 86 -268 55zM97 919q-19 390 -61 977l454 102q-6 -268 16 -589q241 3 413 -83q372 -186 376 -642q11 -304 -127 -488q-122 -180 -385 -257
q-263 -72 -706 -41q45 340 20 1021z" />
    <glyph glyph-name="afii10046" unicode="&#x42c;" 
d="M515 385q174 -28 268 44q119 80 89 244q-19 116 -100 185q-105 91 -268 61zM97 933q-19 387 -61 977l454 102q-8 -266 16 -589q241 3 413 -81t263 -232q111 -172 113 -410q11 -310 -127 -490q-122 -184 -385 -258t-706 -41q45 341 20 1022z" />
    <glyph glyph-name="afii10047" unicode="&#x42d;" horiz-adv-x="1220" 
d="M14 1602q-25 291 -28 344q371 130 689 25q451 -152 523 -720q39 -363 -97 -703q-75 -202 -205 -352t-293 -232q-224 -102 -473 -41l-22 561q221 -39 390 47q169 94 235 299l-512 -55l-16 465l564 16q-28 235 -257 266q-108 10 -212 -10t-272 -65z" />
    <glyph glyph-name="afii10048" unicode="&#x42e;" horiz-adv-x="1976" 
d="M1273 1472q-130 0 -199 -238q-55 -180 -50 -371q-3 -93 22 -193t83 -158q75 -69 166 -69q136 0 197 141q54 122 48 316t-81 381q-69 191 -186 191zM1262 2026q282 0 493 -313q210 -348 210 -761q3 -374 -155 -689q-191 -385 -523 -385q-293 0 -501 321q-86 138 -141 338
q-28 75 -42 152q-61 -6 -124 -11q6 -360 39 -670l-449 -105q-30 1207 -5 2048l476 -94q-44 -410 -56 -780l103 5q21 305 146 562q191 382 529 382z" />
    <glyph glyph-name="afii10049" unicode="&#x42f;" horiz-adv-x="1378" 
d="M1356 -125l-484 36q17 304 0 571l-67 -6q-172 -401 -387 -747q-130 111 -249 185t-180 133q257 293 404 601q-172 75 -266 238q-191 310 14 620q147 219 445 353t698 178q-8 -831 72 -2162zM858 1439q-185 -55 -263 -135q-72 -89 -39 -197q33 -147 313 -141z" />
    <glyph glyph-name="afii10065" unicode="&#x430;" horiz-adv-x="1400" 
d="M805 639l-144 759l-80 -761zM0 -6q219 977 310 1943l653 105q155 -866 509 -2000l-498 -133l-80 354l-327 -42l-44 -359z" />
    <glyph glyph-name="afii10066" unicode="&#x431;" horiz-adv-x="1339" 
d="M523 382q199 28 305 122q89 91 55 207q-25 77 -123 109t-251 13zM969 1226q299 -91 357 -351q69 -280 -45 -493q-89 -183 -310 -307q-191 -111 -434 -155q-224 -36 -412 0l-50 996q-33 526 -67 1005l900 80l127 -501q-255 -14 -562 -39l9 -199q277 30 487 -36z" />
    <glyph glyph-name="afii10067" unicode="&#x432;" horiz-adv-x="1367" 
d="M426 1198q213 55 260 164q75 205 -119 227q-80 11 -180 -23zM506 376q130 -11 216 14q125 44 141 158q25 147 -113 199q-127 55 -271 -3zM58 1007q-64 814 -72 883q205 105 472 108t450 -116q191 -133 216 -346q25 -241 -191 -459q274 -39 390 -313q61 -125 47 -255
q-8 -149 -97 -265q-194 -257 -520 -330q-235 -44 -623 -3q-17 515 -72 1096z" />
    <glyph glyph-name="afii10068" unicode="&#x433;" horiz-adv-x="1115" 
d="M545 722q-33 338 80 -719l-500 -128l-67 1013l-52 1016l1015 133l83 -515q-241 -28 -375 -42t-234 -30q3 -285 50 -728z" />
    <glyph glyph-name="afii10069" unicode="&#x434;" horiz-adv-x="1549" 
d="M1575 -133q-851 38 -1503 -47l-66 451l179 25q161 706 250 1636l686 102q89 -858 293 -1694l175 -19l-6 -230zM922 340q-55 252 -155 856q-53 -493 -83 -867z" />
    <glyph glyph-name="afii10070" unicode="&#x435;" horiz-adv-x="1178" 
d="M999 858q-263 -47 -454 -86l6 -263l553 89l83 -523q-383 -24 -1071 -197q-11 172 -33 504l-28 512q-33 670 -49 1013l982 133l47 -258l42 -260q-149 -14 -285 -28q-130 -19 -255 -33q-6 -100 -6 -144l-2 -141l207 36l202 44l28 -196z" />
    <glyph glyph-name="afii10072" unicode="&#x436;" horiz-adv-x="2089" 
d="M1276 1940q-8 -177 -11 -479q39 33 110 147q66 122 97 155q-86 -89 177 196l429 -229l-473 -581l592 -1013l-484 -261l-440 905l3 -578q3 -149 22 -279l-470 -84l-28 911l-371 -850l-493 258l540 1015l-512 587l415 222q49 -50 189 -238t218 -255l-17 656z" />
    <glyph glyph-name="afii10073" unicode="&#x437;" horiz-adv-x="1273" 
d="M1079 1326q-55 -130 -188 -233q385 -69 388 -456q3 -335 -219 -568q-227 -232 -520 -177q-180 33 -316 166q-147 133 -243 371l456 163q61 -111 133 -146q55 -33 111 0q94 66 58 221q-33 138 -169 136q-83 0 -263 -20l17 188l19 186q97 9 219 93t94 189q-11 47 -50 67
q-30 22 -80 20t-141 -62q-83 -64 -208 -174l-124 218l-122 222q293 296 681 307q194 3 323 -91q144 -113 175 -333q22 -149 -31 -287z" />
    <glyph glyph-name="afii10074" unicode="&#x438;" horiz-adv-x="1419" 
d="M545 2004q-88 -622 -33 -1201q53 325 168 677t153 449l487 80q-11 -542 17 -1049q33 -506 69 -902l-426 -116q-50 534 -92 1032q-80 -194 -157 -451t-94 -465q-53 -11 -229 -58t-267 -83q-55 518 -77 1005t-78 988z" />
    <glyph glyph-name="afii10075" unicode="&#x439;" horiz-adv-x="1469" 
d="M1442 -47l-570 -97q118 602 94 1138q-72 -254 -205 -610t-172 -448l-487 -83q30 512 -5 1024q-42 506 -105 908l454 119q86 -518 110 -1088q108 260 197 526q94 257 116 462q337 91 369 98t137 44q22 -509 28 -1002q0 -493 39 -991zM1209 1995l-642 -196l-58 296l496 241
z" />
    <glyph glyph-name="afii10076" unicode="&#x43a;" horiz-adv-x="1333" 
d="M0 1915l509 94q-17 -249 -11 -396q213 210 388 413l442 -233l-489 -489l608 -1155l-492 -271l-462 1066q11 -459 52 -897l-445 -130z" />
    <glyph glyph-name="afii10077" unicode="&#x43b;" 
d="M819 -163q-53 457 -174 1356q-58 -852 -67 -1284l-572 47q191 922 321 1959l655 100q97 -850 377 -2062z" />
    <glyph glyph-name="afii10078" unicode="&#x43c;" horiz-adv-x="1840" 
d="M3 -44q202 866 277 1951l459 108l180 -1030l80 988l443 42q141 -969 484 -2048l-490 -114l-221 1046l-69 -988l-404 -38l-155 1090l-97 -1118z" />
    <glyph glyph-name="afii10079" unicode="&#x43d;" horiz-adv-x="1358" 
d="M540 2009q-28 -562 -20 -963l244 47l-42 822l548 94q-47 -1179 50 -2001l-501 -133l-39 789q-83 -19 -246 -52q22 -354 55 -604l-492 -133l-103 2040z" />
    <glyph glyph-name="afii10080" unicode="&#x43e;" horiz-adv-x="1444" 
d="M720 1472q-138 0 -208 -238q-58 -180 -64 -371q6 -94 31 -174q30 -119 98 -183t165 -63q141 0 207 141q53 122 46 316t-79 381q-77 191 -196 191zM708 2026q302 0 512 -313q116 -174 168 -358t54 -403q6 -374 -163 -689q-202 -385 -551 -385q-307 0 -515 321
q-97 138 -160 338q-53 199 -53 415q0 382 158 692q199 382 550 382z" />
    <glyph glyph-name="afii10081" unicode="&#x43f;" 
d="M11 1827q1162 191 1168 191q-6 -127 111 -2054l-487 -80l-64 1610q-75 -8 -210 -30q-14 -681 66 -1489l-482 -122q-3 313 -55 991q-44 648 -47 983z" />
    <glyph glyph-name="afii10082" unicode="&#x440;" horiz-adv-x="1292" 
d="M501 1021q163 3 260 114q75 80 83 210q17 166 -108 221q-102 44 -268 -19zM69 891q-25 872 -75 1041q428 122 696 102q544 -40 578 -631q14 -238 -75 -432q-83 -161 -233 -271q-174 -138 -423 -182q-3 -202 41 -584l-481 -59q2 280 -28 1016z" />
    <glyph glyph-name="afii10083" unicode="&#x441;" horiz-adv-x="1181" 
d="M127 390q-125 282 -133 582t72 553q91 257 255 403t371 109q232 -36 481 -293l-116 -194l-122 -194q-246 183 -387 25q-122 -133 -102 -423q25 -282 155 -413q152 -161 373 36l258 -351q-178 -291 -388 -338t-409 102q-189 136 -308 396z" />
    <glyph glyph-name="afii10084" unicode="&#x442;" horiz-adv-x="1303" 
d="M363 1411l-405 -52l12 545l1223 133l102 -543q-324 -19 -462 -30q-6 -346 133 -1497l-534 -128z" />
    <glyph glyph-name="afii10085" unicode="&#x443;" horiz-adv-x="1353" 
d="M1340 1940q-205 -562 -355 -1074q-144 -512 -235 -968l-484 27l180 659l-521 1204l532 268q28 -144 68 -347t112 -405l193 714z" />
    <glyph glyph-name="afii10086" unicode="&#x444;" horiz-adv-x="2095" 
d="M1281 1904q335 -72 548 -288q255 -238 244 -589q-6 -349 -224 -609q-191 -232 -496 -349l17 -171l-540 -122v213q-316 14 -506 160q-219 169 -305 532q-80 377 150 745t573 470l-20 254l562 -135zM1533 786q77 163 39 376q-14 108 -102 169q-80 66 -219 78
q-17 -581 22 -878q183 108 260 255zM523 1113q-83 -158 -44 -369q25 -133 127 -213q94 -64 224 -49q0 349 -38 893q-189 -99 -269 -262z" />
    <glyph glyph-name="afii10087" unicode="&#x445;" horiz-adv-x="1336" 
d="M393 2103l125 -279q58 -130 116 -280l88 247q50 130 94 246l540 -42l-454 -1024q221 -462 438 -835l-363 -299l-307 617l-266 -581l-429 130q224 432 432 955l-435 863z" />
    <glyph glyph-name="afii10088" unicode="&#x446;" horiz-adv-x="1505" 
d="M-8 1951l528 94q-42 -223 -18 -723t85 -912h127q55 3 127 2l-44 858q-25 531 -41 701l487 83q-11 -678 55 -1603q152 14 327 39l-100 -382l-69 -459l-426 107l47 219q-432 -36 -526 -50q-291 -22 -396 -41l-72 1035q-42 592 -91 1032z" />
    <glyph glyph-name="afii10089" unicode="&#x447;" 
d="M1201 2034q-39 -424 -43 -1030t49 -996l-457 -130l-14 731q-296 -75 -437 -6q-133 69 -222 296q-39 86 -55 194q-22 105 -30 230q-13 268 -45 529l263 80l272 77q-3 -122 -20 -312q-22 -188 0 -352q11 -163 72 -252q55 -91 191 -11l-36 864z" />
    <glyph glyph-name="afii10090" unicode="&#x448;" horiz-adv-x="1906" 
d="M1802 2065q-24 -1114 80 -2065l-1785 -127l-83 2020l509 69q-53 -982 8 -1663l208 19l-42 814q-33 565 -47 814l510 72q-39 -958 41 -1669l224 27l-108 1586z" />
    <glyph glyph-name="afii10091" unicode="&#x449;" horiz-adv-x="2083" 
d="M537 1971q-58 -985 5 -1667l205 20l-74 1647l509 71q-44 -1002 25 -1685q105 11 227 30l-103 1539l490 94q-28 -862 25 -1547q180 30 304 47q-133 -479 -196 -896l-426 108l55 254l-1481 -108l-74 2021z" />
    <glyph glyph-name="afii10092" unicode="&#x44a;" horiz-adv-x="1480" 
d="M689 418q158 -36 274 47q125 83 101 234t-95 212q-91 75 -269 44zM288 1547l-349 -25l111 493l681 -67q-17 -205 0 -531q241 3 420 -91q155 -75 247 -222q100 -172 96 -409q0 -310 -141 -493q-133 -177 -398 -257q-274 -72 -656 -45q31 457 -11 1647z" />
    <glyph glyph-name="afii10093" unicode="&#x44b;" horiz-adv-x="1865" 
d="M1273 1865l507 94q-53 -1137 44 -1962l-460 -127zM515 371q174 -28 268 47q119 75 89 241q-19 116 -100 188q-105 86 -268 55zM97 919q-19 390 -61 977l454 102q-6 -268 16 -589q241 3 413 -83q372 -186 376 -642q11 -304 -127 -488q-122 -180 -385 -257
q-263 -72 -706 -41q45 340 20 1021z" />
    <glyph glyph-name="afii10094" unicode="&#x44c;" 
d="M515 385q174 -28 268 44q119 80 89 244q-19 116 -100 185q-105 91 -268 61zM97 933q-19 387 -61 977l454 102q-8 -266 16 -589q241 3 413 -81t263 -232q111 -172 113 -410q11 -310 -127 -490q-122 -184 -385 -258t-706 -41q45 341 20 1022z" />
    <glyph glyph-name="afii10095" unicode="&#x44d;" horiz-adv-x="1220" 
d="M14 1602q-25 291 -28 344q371 130 689 25q451 -152 523 -720q39 -363 -97 -703q-75 -202 -205 -352t-293 -232q-224 -102 -473 -41l-22 561q221 -39 390 47q169 94 235 299l-512 -55l-16 465l564 16q-28 235 -257 266q-108 10 -212 -10t-272 -65z" />
    <glyph glyph-name="afii10096" unicode="&#x44e;" horiz-adv-x="1976" 
d="M1273 1472q-130 0 -199 -238q-55 -180 -50 -371q-3 -93 22 -193t83 -158q75 -69 166 -69q136 0 197 141q54 122 48 316t-81 381q-69 191 -186 191zM1262 2026q282 0 493 -313q210 -348 210 -761q3 -374 -155 -689q-191 -385 -523 -385q-293 0 -501 321q-86 138 -141 338
q-28 75 -42 152q-61 -6 -124 -11q6 -360 39 -670l-449 -105q-30 1207 -5 2048l476 -94q-44 -410 -56 -780l103 5q21 305 146 562q191 382 529 382z" />
    <glyph glyph-name="afii10097" unicode="&#x44f;" horiz-adv-x="1378" 
d="M1356 -125l-484 36q17 304 0 571l-67 -6q-172 -401 -387 -747q-130 111 -249 185t-180 133q257 293 404 601q-172 75 -266 238q-191 310 14 620q147 219 445 353t698 178q-8 -831 72 -2162zM858 1439q-185 -55 -263 -135q-72 -89 -39 -197q33 -147 313 -141z" />
    <glyph glyph-name="endash" unicode="&#x2013;" horiz-adv-x="1571" 
d="M1550 1312l22 -482h-1572l-19 482h1569z" />
    <glyph glyph-name="emdash" unicode="&#x2014;" horiz-adv-x="3138" 
d="M2712 1312l20 -482h-2325l-20 482h2325z" />
    <glyph glyph-name="quoteleft" unicode="&#x2018;" horiz-adv-x="755" 
d="M911 2723q-169 -614 -225 -1121l-584 -99l247 1165z" />
    <glyph glyph-name="quoteright" unicode="&#x2019;" horiz-adv-x="755" 
d="M911 2723q-169 -614 -225 -1121l-584 -99l247 1165z" />
    <glyph glyph-name="quotesinglbase" unicode="&#x201a;" horiz-adv-x="949" 
d="M888 462l-423 -1104h-316l263 1104h476z" />
    <glyph glyph-name="quotedblleft" unicode="&#x201c;" horiz-adv-x="918" 
d="M697 2244q72 -476 200 -785l-263 -222l-252 803zM263 2098q113 -468 268 -778l-238 -252l-312 784z" />
    <glyph glyph-name="quotedblright" unicode="&#x201d;" horiz-adv-x="877" 
d="M410 2054l-191 -778l-269 213q100 304 147 764zM816 1852l-251 -751l-247 252q122 296 202 753z" />
    <glyph glyph-name="quotedblbase" unicode="&#x201e;" horiz-adv-x="1541" 
d="M886 462l-421 -1104h-316l263 1104h474zM1478 462l-424 -1104h-312l263 1104h473z" />
    <glyph glyph-name="bullet" unicode="&#x2022;" horiz-adv-x="1317" 
d="M612 1896q122 0 231 -54q217 -107 332 -361q53 -122 59 -262t-37 -266q-87 -256 -299 -366q-106 -55 -228 -55t-233 54q-224 112 -332 367q-53 126 -59 266q-11 273 153 476q75 93 183 147t230 54z" />
    <glyph glyph-name="ellipsis" unicode="&#x2026;" horiz-adv-x="2139" 
d="M446 -166q-138 0 -223 102q-84 102 -90 236q-6 135 72 240q77 104 208 105t220 -100t95 -245q3 -69 -17 -132q-39 -127 -151 -181q-50 -25 -114 -25zM1798 -166q-133 0 -221 103t-94 239q-6 135 76 238q82 102 212 104q194 0 281 -212q56 -132 11 -266
q-45 -133 -149 -181q-54 -25 -116 -25zM1324 -69q-76 -97 -208 -97q-190 0 -283 206q-59 131 -11 266q74 209 266 212q189 0 283 -212q61 -130 13 -266q-22 -62 -60 -109z" />
    <glyph glyph-name="guilsinglleft" unicode="&#x2039;" horiz-adv-x="816" 
d="M443 1912l252 -155l-296 -680l354 -709l-233 -136l-448 845z" />
    <glyph glyph-name="guilsinglright" unicode="&#x203a;" horiz-adv-x="816" 
d="M722 1077l-371 -845l-243 136l288 709l-352 680l238 155z" />
    <glyph glyph-name="fraction" unicode="&#x2044;" horiz-adv-x="1333" 
d="M1287 2112q-220 -608 -384 -1004q-164 -397 -280 -675t-277 -635l-329 205q205 428 524 1235q79 201 154 378q169 426 323 842z" />
    <glyph glyph-name="fraction" unicode="&#x2215;" horiz-adv-x="1333" 
d="M1287 2112q-220 -608 -384 -1004q-164 -397 -280 -675t-277 -635l-329 205q205 428 524 1235q79 201 154 378q169 426 323 842z" />
    <glyph glyph-name="Euro" unicode="&#x20ac;" horiz-adv-x="1538" 
d="M1201 2618q121 0 235 -30l-25 -476q-77 17 -141 16q-231 0 -390 -166q-126 -131 -183 -404h684l-17 -238h-689l3 -58q0 -82 11 -127h667l-19 -238h-595q120 -378 398 -514q156 -76 346 -26l20 -484q-77 -25 -172 -25q-392 0 -686 311q-257 271 -380 738h-193l14 238h141
q-9 45 -9 124l-2 61h-161l11 238h161q30 208 109 402q160 391 494 571q163 87 368 87z" />
    <glyph glyph-name="minus" unicode="&#x2212;" horiz-adv-x="1538" 
d="M58 996h1412l16 -398h-1411z" />
    <glyph glyph-name=".notdef.001" horiz-adv-x="628" 
 />
    </font>
</defs>
</svg>
